<?xml version="1.0" encoding="UTF-8" standalone="no"?>
<!DOCTYPE svg PUBLIC "-//W3C//DTD SVG 1.1//EN"
 "http://www.w3.org/Graphics/SVG/1.1/DTD/svg11.dtd">
<!-- Generated by graphviz version 2.47.0 (20210316.0004)
 -->
<!-- Title: dependencies Pages: 1 -->
<svg width="1060pt" height="211pt"
 viewBox="0.00 0.00 1060.00 211.00" xmlns="http://www.w3.org/2000/svg" xmlns:xlink="http://www.w3.org/1999/xlink">
<g id="graph0" class="graph" transform="scale(1 1) rotate(0) translate(4 207)">
<title>dependencies</title>
<polygon fill="white" stroke="transparent" points="-4,4 -4,-207 1056,-207 1056,4 -4,4"/>
<text text-anchor="start" x="505.01" y="-42.4" font-family="Times-12" font-weight="bold" font-size="14.00">Legend</text>
<polygon fill="#ffffb3" stroke="transparent" points="292,-10 292,-30 312,-30 312,-10 292,-10"/>
<text text-anchor="start" x="315.63" y="-15.4" font-family="Times-12" font-size="14.00"> &#160;Declarations</text>
<polygon fill="#8dd3c7" stroke="transparent" points="405,-10 405,-30 425,-30 425,-10 405,-10"/>
<text text-anchor="start" x="428.73" y="-15.4" font-family="Times-12" font-size="14.00"> &#160;Module</text>
<polygon fill="#80b1d3" stroke="transparent" points="491,-10 491,-30 511,-30 511,-10 491,-10"/>
<text text-anchor="start" x="514.78" y="-15.4" font-family="Times-12" font-size="14.00"> &#160;Bootstrap</text>
<polygon fill="#fdb462" stroke="transparent" points="588,-10 588,-30 608,-30 608,-10 588,-10"/>
<text text-anchor="start" x="611.67" y="-15.4" font-family="Times-12" font-size="14.00"> &#160;Providers</text>
<polygon fill="#fb8072" stroke="transparent" points="684,-10 684,-30 704,-30 704,-10 684,-10"/>
<text text-anchor="start" x="707.73" y="-15.4" font-family="Times-12" font-size="14.00"> &#160;Exports</text>
<g id="clust1" class="cluster">
<title>cluster_EthereumPaymentsModule</title>
<polygon fill="none" stroke="black" stroke-dasharray="1,5" points="8,-70 8,-195 1044,-195 1044,-70 8,-70"/>
</g>
<g id="clust3" class="cluster">
<title>cluster_EthereumPaymentsModule_imports</title>
<polygon fill="none" stroke="black" points="782,-78 782,-130 1036,-130 1036,-78 782,-78"/>
</g>
<g id="clust6" class="cluster">
<title>cluster_EthereumPaymentsModule_providers</title>
<polygon fill="none" stroke="black" points="16,-78 16,-130 774,-130 774,-78 16,-78"/>
</g>
<!-- ApiKeysModule -->
<g id="node1" class="node">
<title>ApiKeysModule</title>
<polygon fill="#8dd3c7" stroke="black" points="1027.81,-122 1024.81,-126 1003.81,-126 1000.81,-122 918.19,-122 918.19,-86 1027.81,-86 1027.81,-122"/>
<text text-anchor="middle" x="973" y="-99.8" font-family="Times,serif" font-size="14.00">ApiKeysModule</text>
</g>
<!-- EthereumPaymentsModule -->
<g id="node3" class="node">
<title>EthereumPaymentsModule</title>
<polygon fill="#8dd3c7" stroke="black" points="709.41,-187 706.41,-191 685.41,-191 682.41,-187 540.59,-187 540.59,-151 709.41,-151 709.41,-187"/>
<text text-anchor="middle" x="625" y="-164.8" font-family="Times,serif" font-size="14.00">EthereumPaymentsModule</text>
</g>
<!-- ApiKeysModule&#45;&gt;EthereumPaymentsModule -->
<g id="edge1" class="edge">
<title>ApiKeysModule&#45;&gt;EthereumPaymentsModule</title>
<path fill="none" stroke="black" d="M973,-122.28C973,-143.32 973,-175 973,-175 973,-175 719.24,-175 719.24,-175"/>
<polygon fill="black" stroke="black" points="719.24,-171.5 709.24,-175 719.24,-178.5 719.24,-171.5"/>
</g>
<!-- DatabaseModule -->
<g id="node2" class="node">
<title>DatabaseModule</title>
<polygon fill="#8dd3c7" stroke="black" points="900.35,-122 897.35,-126 876.35,-126 873.35,-122 789.65,-122 789.65,-86 900.35,-86 900.35,-122"/>
<text text-anchor="middle" x="845" y="-99.8" font-family="Times,serif" font-size="14.00">DatabaseModule</text>
</g>
<!-- DatabaseModule&#45;&gt;EthereumPaymentsModule -->
<g id="edge2" class="edge">
<title>DatabaseModule&#45;&gt;EthereumPaymentsModule</title>
<path fill="none" stroke="black" d="M845,-122.02C845,-139.37 845,-163 845,-163 845,-163 719.43,-163 719.43,-163"/>
<polygon fill="black" stroke="black" points="719.43,-159.5 709.43,-163 719.43,-166.5 719.43,-159.5"/>
</g>
<!-- BackendWalletsEthereumService -->
<g id="node4" class="node">
<title>BackendWalletsEthereumService</title>
<ellipse fill="#fdb462" stroke="black" cx="625" cy="-104" rx="140.63" ry="18"/>
<text text-anchor="middle" x="625" y="-99.8" font-family="Times,serif" font-size="14.00">BackendWalletsEthereumService</text>
</g>
<!-- BackendWalletsEthereumService&#45;&gt;EthereumPaymentsModule -->
<g id="edge3" class="edge">
<title>BackendWalletsEthereumService&#45;&gt;EthereumPaymentsModule</title>
<path fill="none" stroke="black" d="M625,-122.11C625,-122.11 625,-140.99 625,-140.99"/>
<polygon fill="black" stroke="black" points="621.5,-140.99 625,-150.99 628.5,-140.99 621.5,-140.99"/>
</g>
<!-- EthereumPaymentsService -->
<g id="node5" class="node">
<title>EthereumPaymentsService</title>
<ellipse fill="#fdb462" stroke="black" cx="351" cy="-104" rx="115.16" ry="18"/>
<text text-anchor="middle" x="351" y="-99.8" font-family="Times,serif" font-size="14.00">EthereumPaymentsService</text>
</g>
<!-- EthereumPaymentsService&#45;&gt;EthereumPaymentsModule -->
<g id="edge4" class="edge">
<title>EthereumPaymentsService&#45;&gt;EthereumPaymentsModule</title>
<path fill="none" stroke="black" d="M351,-122.02C351,-139.37 351,-163 351,-163 351,-163 530.56,-163 530.56,-163"/>
<polygon fill="black" stroke="black" points="530.56,-166.5 540.56,-163 530.56,-159.5 530.56,-166.5"/>
</g>
<!-- WebhookSendService -->
<g id="node6" class="node">
<title>WebhookSendService</title>
<ellipse fill="#fdb462" stroke="black" cx="121" cy="-104" rx="96.7" ry="18"/>
<text text-anchor="middle" x="121" y="-99.8" font-family="Times,serif" font-size="14.00">WebhookSendService</text>
</g>
<!-- WebhookSendService&#45;&gt;EthereumPaymentsModule -->
<g id="edge5" class="edge">
<title>WebhookSendService&#45;&gt;EthereumPaymentsModule</title>
<path fill="none" stroke="black" d="M121,-122.28C121,-143.32 121,-175 121,-175 121,-175 530.64,-175 530.64,-175"/>
<polygon fill="black" stroke="black" points="530.64,-178.5 540.64,-175 530.64,-171.5 530.64,-178.5"/>
</g>
</g>
</svg>
