<?xml version="1.0" encoding="UTF-8" standalone="no"?>
<!DOCTYPE svg PUBLIC "-//W3C//DTD SVG 1.1//EN"
 "http://www.w3.org/Graphics/SVG/1.1/DTD/svg11.dtd">
<!-- Generated by graphviz version 2.47.0 (20210316.0004)
 -->
<!-- Title: dependencies Pages: 1 -->
<svg width="504pt" height="211pt"
 viewBox="0.00 0.00 504.00 211.00" xmlns="http://www.w3.org/2000/svg" xmlns:xlink="http://www.w3.org/1999/xlink">
<g id="graph0" class="graph" transform="scale(1 1) rotate(0) translate(4 207)">
<title>dependencies</title>
<polygon fill="white" stroke="transparent" points="-4,4 -4,-207 500,-207 500,4 -4,4"/>
<text text-anchor="start" x="227.01" y="-42.4" font-family="Times-12" font-weight="bold" font-size="14.00">Legend</text>
<polygon fill="#ffffb3" stroke="transparent" points="14,-10 14,-30 34,-30 34,-10 14,-10"/>
<text text-anchor="start" x="37.63" y="-15.4" font-family="Times-12" font-size="14.00"> &#160;Declarations</text>
<polygon fill="#8dd3c7" stroke="transparent" points="127,-10 127,-30 147,-30 147,-10 127,-10"/>
<text text-anchor="start" x="150.73" y="-15.4" font-family="Times-12" font-size="14.00"> &#160;Module</text>
<polygon fill="#80b1d3" stroke="transparent" points="213,-10 213,-30 233,-30 233,-10 213,-10"/>
<text text-anchor="start" x="236.78" y="-15.4" font-family="Times-12" font-size="14.00"> &#160;Bootstrap</text>
<polygon fill="#fdb462" stroke="transparent" points="310,-10 310,-30 330,-30 330,-10 310,-10"/>
<text text-anchor="start" x="333.67" y="-15.4" font-family="Times-12" font-size="14.00"> &#160;Providers</text>
<polygon fill="#fb8072" stroke="transparent" points="406,-10 406,-30 426,-30 426,-10 406,-10"/>
<text text-anchor="start" x="429.73" y="-15.4" font-family="Times-12" font-size="14.00"> &#160;Exports</text>
<g id="clust1" class="cluster">
<title>cluster_BalancesAPIModule</title>
<polygon fill="none" stroke="black" stroke-dasharray="1,5" points="78,-70 78,-195 418,-195 418,-70 78,-70"/>
</g>
<g id="clust6" class="cluster">
<title>cluster_BalancesAPIModule_providers</title>
<polygon fill="none" stroke="black" points="214,-78 214,-130 410,-130 410,-78 214,-78"/>
</g>
<g id="clust3" class="cluster">
<title>cluster_BalancesAPIModule_imports</title>
<polygon fill="none" stroke="black" points="86,-78 86,-130 206,-130 206,-78 86,-78"/>
</g>
<!-- ApiKeyModule -->
<g id="node1" class="node">
<title>ApiKeyModule</title>
<polygon fill="#8dd3c7" stroke="black" points="197.87,-122 194.87,-126 173.87,-126 170.87,-122 94.13,-122 94.13,-86 197.87,-86 197.87,-122"/>
<text text-anchor="middle" x="146" y="-99.8" font-family="Times,serif" font-size="14.00">ApiKeyModule</text>
</g>
<!-- BalancesAPIModule -->
<g id="node2" class="node">
<title>BalancesAPIModule</title>
<polygon fill="#8dd3c7" stroke="black" points="298.13,-187 295.13,-191 274.13,-191 271.13,-187 165.87,-187 165.87,-151 298.13,-151 298.13,-187"/>
<text text-anchor="middle" x="232" y="-164.8" font-family="Times,serif" font-size="14.00">BalancesAPIModule</text>
</g>
<!-- ApiKeyModule&#45;&gt;BalancesAPIModule -->
<g id="edge1" class="edge">
<title>ApiKeyModule&#45;&gt;BalancesAPIModule</title>
<path fill="none" stroke="black" d="M181.81,-122.11C181.81,-122.11 181.81,-140.99 181.81,-140.99"/>
<polygon fill="black" stroke="black" points="178.31,-140.99 181.81,-150.99 185.31,-140.99 178.31,-140.99"/>
</g>
<!-- BalancesAPIService -->
<g id="node3" class="node">
<title>BalancesAPIService</title>
<ellipse fill="#fdb462" stroke="black" cx="312" cy="-104" rx="90.3" ry="18"/>
<text text-anchor="middle" x="312" y="-99.8" font-family="Times,serif" font-size="14.00">BalancesAPIService</text>
</g>
<!-- BalancesAPIService&#45;&gt;BalancesAPIModule -->
<g id="edge2" class="edge">
<title>BalancesAPIService&#45;&gt;BalancesAPIModule</title>
<path fill="none" stroke="black" d="M259.96,-118.75C259.96,-118.75 259.96,-140.59 259.96,-140.59"/>
<polygon fill="black" stroke="black" points="256.46,-140.59 259.96,-150.59 263.46,-140.59 256.46,-140.59"/>
</g>
</g>
</svg>
