<?xml version="1.0" encoding="UTF-8" standalone="no"?>
<!DOCTYPE svg PUBLIC "-//W3C//DTD SVG 1.1//EN"
 "http://www.w3.org/Graphics/SVG/1.1/DTD/svg11.dtd">
<!-- Generated by graphviz version 2.47.0 (20210316.0004)
 -->
<!-- Title: dependencies Pages: 1 -->
<svg width="504pt" height="284pt"
 viewBox="0.00 0.00 504.00 284.00" xmlns="http://www.w3.org/2000/svg" xmlns:xlink="http://www.w3.org/1999/xlink">
<g id="graph0" class="graph" transform="scale(1 1) rotate(0) translate(4 280)">
<title>dependencies</title>
<polygon fill="white" stroke="transparent" points="-4,4 -4,-280 500,-280 500,4 -4,4"/>
<text text-anchor="start" x="227.01" y="-42.4" font-family="Times-12" font-weight="bold" font-size="14.00">Legend</text>
<polygon fill="#ffffb3" stroke="transparent" points="14,-10 14,-30 34,-30 34,-10 14,-10"/>
<text text-anchor="start" x="37.63" y="-15.4" font-family="Times-12" font-size="14.00"> &#160;Declarations</text>
<polygon fill="#8dd3c7" stroke="transparent" points="127,-10 127,-30 147,-30 147,-10 127,-10"/>
<text text-anchor="start" x="150.73" y="-15.4" font-family="Times-12" font-size="14.00"> &#160;Module</text>
<polygon fill="#80b1d3" stroke="transparent" points="213,-10 213,-30 233,-30 233,-10 213,-10"/>
<text text-anchor="start" x="236.78" y="-15.4" font-family="Times-12" font-size="14.00"> &#160;Bootstrap</text>
<polygon fill="#fdb462" stroke="transparent" points="310,-10 310,-30 330,-30 330,-10 310,-10"/>
<text text-anchor="start" x="333.67" y="-15.4" font-family="Times-12" font-size="14.00"> &#160;Providers</text>
<polygon fill="#fb8072" stroke="transparent" points="406,-10 406,-30 426,-30 426,-10 406,-10"/>
<text text-anchor="start" x="429.73" y="-15.4" font-family="Times-12" font-size="14.00"> &#160;Exports</text>
<g id="clust1" class="cluster">
<title>cluster_ApiKeysModule</title>
<polygon fill="none" stroke="black" stroke-dasharray="1,5" points="91,-70 91,-268 405,-268 405,-70 91,-70"/>
</g>
<g id="clust3" class="cluster">
<title>cluster_ApiKeysModule_imports</title>
<polygon fill="none" stroke="black" points="271,-78 271,-130 397,-130 397,-78 271,-78"/>
</g>
<g id="clust4" class="cluster">
<title>cluster_ApiKeysModule_exports</title>
<polygon fill="none" stroke="black" points="193,-208 193,-260 321,-260 321,-208 193,-208"/>
</g>
<g id="clust6" class="cluster">
<title>cluster_ApiKeysModule_providers</title>
<polygon fill="none" stroke="black" points="99,-78 99,-130 263,-130 263,-78 99,-78"/>
</g>
<!-- DatabaseModule -->
<g id="node1" class="node">
<title>DatabaseModule</title>
<polygon fill="#8dd3c7" stroke="black" points="389.35,-122 386.35,-126 365.35,-126 362.35,-122 278.65,-122 278.65,-86 389.35,-86 389.35,-122"/>
<text text-anchor="middle" x="334" y="-99.8" font-family="Times,serif" font-size="14.00">DatabaseModule</text>
</g>
<!-- ApiKeysModule -->
<g id="node2" class="node">
<title>ApiKeysModule</title>
<polygon fill="#8dd3c7" stroke="black" points="311.81,-187 308.81,-191 287.81,-191 284.81,-187 202.19,-187 202.19,-151 311.81,-151 311.81,-187"/>
<text text-anchor="middle" x="257" y="-164.8" font-family="Times,serif" font-size="14.00">ApiKeysModule</text>
</g>
<!-- DatabaseModule&#45;&gt;ApiKeysModule -->
<g id="edge1" class="edge">
<title>DatabaseModule&#45;&gt;ApiKeysModule</title>
<path fill="none" stroke="black" d="M295.12,-122.11C295.12,-122.11 295.12,-140.99 295.12,-140.99"/>
<polygon fill="black" stroke="black" points="291.62,-140.99 295.12,-150.99 298.62,-140.99 291.62,-140.99"/>
</g>
<!-- ApiKeysService  -->
<g id="node3" class="node">
<title>ApiKeysService </title>
<polygon fill="#fb8072" stroke="black" points="312.74,-252 201.26,-252 201.26,-216 312.74,-216 312.74,-252"/>
<text text-anchor="middle" x="257" y="-229.8" font-family="Times,serif" font-size="14.00">ApiKeysService </text>
</g>
<!-- ApiKeysModule&#45;&gt;ApiKeysService  -->
<g id="edge2" class="edge">
<title>ApiKeysModule&#45;&gt;ApiKeysService </title>
<path fill="none" stroke="black" stroke-dasharray="5,2" d="M257,-187.11C257,-187.11 257,-205.99 257,-205.99"/>
<polygon fill="black" stroke="black" points="253.5,-205.99 257,-215.99 260.5,-205.99 253.5,-205.99"/>
</g>
<!-- ApiKeysService -->
<g id="node4" class="node">
<title>ApiKeysService</title>
<ellipse fill="#fdb462" stroke="black" cx="181" cy="-104" rx="74.14" ry="18"/>
<text text-anchor="middle" x="181" y="-99.8" font-family="Times,serif" font-size="14.00">ApiKeysService</text>
</g>
<!-- ApiKeysService&#45;&gt;ApiKeysModule -->
<g id="edge3" class="edge">
<title>ApiKeysService&#45;&gt;ApiKeysModule</title>
<path fill="none" stroke="black" d="M228.83,-117.78C228.83,-117.78 228.83,-140.55 228.83,-140.55"/>
<polygon fill="black" stroke="black" points="225.33,-140.55 228.83,-150.55 232.33,-140.55 225.33,-140.55"/>
</g>
</g>
</svg>
