<?xml version="1.0" encoding="UTF-8" standalone="no"?>
<!DOCTYPE svg PUBLIC "-//W3C//DTD SVG 1.1//EN"
 "http://www.w3.org/Graphics/SVG/1.1/DTD/svg11.dtd">
<!-- Generated by graphviz version 2.47.0 (20210316.0004)
 -->
<!-- Title: dependencies Pages: 1 -->
<svg width="504pt" height="284pt"
 viewBox="0.00 0.00 504.00 284.00" xmlns="http://www.w3.org/2000/svg" xmlns:xlink="http://www.w3.org/1999/xlink">
<g id="graph0" class="graph" transform="scale(1 1) rotate(0) translate(4 280)">
<title>dependencies</title>
<polygon fill="white" stroke="transparent" points="-4,4 -4,-280 500,-280 500,4 -4,4"/>
<text text-anchor="start" x="227.01" y="-42.4" font-family="Times-12" font-weight="bold" font-size="14.00">Legend</text>
<polygon fill="#ffffb3" stroke="transparent" points="14,-10 14,-30 34,-30 34,-10 14,-10"/>
<text text-anchor="start" x="37.63" y="-15.4" font-family="Times-12" font-size="14.00"> &#160;Declarations</text>
<polygon fill="#8dd3c7" stroke="transparent" points="127,-10 127,-30 147,-30 147,-10 127,-10"/>
<text text-anchor="start" x="150.73" y="-15.4" font-family="Times-12" font-size="14.00"> &#160;Module</text>
<polygon fill="#80b1d3" stroke="transparent" points="213,-10 213,-30 233,-30 233,-10 213,-10"/>
<text text-anchor="start" x="236.78" y="-15.4" font-family="Times-12" font-size="14.00"> &#160;Bootstrap</text>
<polygon fill="#fdb462" stroke="transparent" points="310,-10 310,-30 330,-30 330,-10 310,-10"/>
<text text-anchor="start" x="333.67" y="-15.4" font-family="Times-12" font-size="14.00"> &#160;Providers</text>
<polygon fill="#fb8072" stroke="transparent" points="406,-10 406,-30 426,-30 426,-10 406,-10"/>
<text text-anchor="start" x="429.73" y="-15.4" font-family="Times-12" font-size="14.00"> &#160;Exports</text>
<g id="clust1" class="cluster">
<title>cluster_WebhooksModule</title>
<polygon fill="none" stroke="black" stroke-dasharray="1,5" points="84,-70 84,-268 412,-268 412,-70 84,-70"/>
</g>
<g id="clust4" class="cluster">
<title>cluster_WebhooksModule_exports</title>
<polygon fill="none" stroke="black" points="169,-208 169,-260 307,-260 307,-208 169,-208"/>
</g>
<g id="clust6" class="cluster">
<title>cluster_WebhooksModule_providers</title>
<polygon fill="none" stroke="black" points="226,-78 226,-130 404,-130 404,-78 226,-78"/>
</g>
<g id="clust3" class="cluster">
<title>cluster_WebhooksModule_imports</title>
<polygon fill="none" stroke="black" points="92,-78 92,-130 218,-130 218,-78 92,-78"/>
</g>
<!-- DatabaseModule -->
<g id="node1" class="node">
<title>DatabaseModule</title>
<polygon fill="#8dd3c7" stroke="black" points="210.35,-122 207.35,-126 186.35,-126 183.35,-122 99.65,-122 99.65,-86 210.35,-86 210.35,-122"/>
<text text-anchor="middle" x="155" y="-99.8" font-family="Times,serif" font-size="14.00">DatabaseModule</text>
</g>
<!-- WebhooksModule -->
<g id="node2" class="node">
<title>WebhooksModule</title>
<polygon fill="#8dd3c7" stroke="black" points="297.92,-187 294.92,-191 273.92,-191 270.92,-187 178.08,-187 178.08,-151 297.92,-151 297.92,-187"/>
<text text-anchor="middle" x="238" y="-164.8" font-family="Times,serif" font-size="14.00">WebhooksModule</text>
</g>
<!-- DatabaseModule&#45;&gt;WebhooksModule -->
<g id="edge1" class="edge">
<title>DatabaseModule&#45;&gt;WebhooksModule</title>
<path fill="none" stroke="black" d="M194.36,-122.11C194.36,-122.11 194.36,-140.99 194.36,-140.99"/>
<polygon fill="black" stroke="black" points="190.86,-140.99 194.36,-150.99 197.86,-140.99 190.86,-140.99"/>
</g>
<!-- WebhooksService  -->
<g id="node3" class="node">
<title>WebhooksService </title>
<polygon fill="#fb8072" stroke="black" points="298.85,-252 177.15,-252 177.15,-216 298.85,-216 298.85,-252"/>
<text text-anchor="middle" x="238" y="-229.8" font-family="Times,serif" font-size="14.00">WebhooksService </text>
</g>
<!-- WebhooksModule&#45;&gt;WebhooksService  -->
<g id="edge2" class="edge">
<title>WebhooksModule&#45;&gt;WebhooksService </title>
<path fill="none" stroke="black" stroke-dasharray="5,2" d="M238,-187.11C238,-187.11 238,-205.99 238,-205.99"/>
<polygon fill="black" stroke="black" points="234.5,-205.99 238,-215.99 241.5,-205.99 234.5,-205.99"/>
</g>
<!-- WebhooksService -->
<g id="node4" class="node">
<title>WebhooksService</title>
<ellipse fill="#fdb462" stroke="black" cx="315" cy="-104" rx="81.08" ry="18"/>
<text text-anchor="middle" x="315" y="-99.8" font-family="Times,serif" font-size="14.00">WebhooksService</text>
</g>
<!-- WebhooksService&#45;&gt;WebhooksModule -->
<g id="edge3" class="edge">
<title>WebhooksService&#45;&gt;WebhooksModule</title>
<path fill="none" stroke="black" d="M265.71,-118.43C265.71,-118.43 265.71,-140.89 265.71,-140.89"/>
<polygon fill="black" stroke="black" points="262.21,-140.89 265.71,-150.89 269.21,-140.89 262.21,-140.89"/>
</g>
</g>
</svg>
