<?xml version="1.0" encoding="UTF-8" standalone="no"?>
<!DOCTYPE svg PUBLIC "-//W3C//DTD SVG 1.1//EN"
 "http://www.w3.org/Graphics/SVG/1.1/DTD/svg11.dtd">
<!-- Generated by graphviz version 2.47.0 (20210316.0004)
 -->
<!-- Title: dependencies Pages: 1 -->
<svg width="504pt" height="211pt"
 viewBox="0.00 0.00 504.00 211.00" xmlns="http://www.w3.org/2000/svg" xmlns:xlink="http://www.w3.org/1999/xlink">
<g id="graph0" class="graph" transform="scale(1 1) rotate(0) translate(4 207)">
<title>dependencies</title>
<polygon fill="white" stroke="transparent" points="-4,4 -4,-207 500,-207 500,4 -4,4"/>
<text text-anchor="start" x="227.01" y="-42.4" font-family="Times-12" font-weight="bold" font-size="14.00">Legend</text>
<polygon fill="#ffffb3" stroke="transparent" points="14,-10 14,-30 34,-30 34,-10 14,-10"/>
<text text-anchor="start" x="37.63" y="-15.4" font-family="Times-12" font-size="14.00"> &#160;Declarations</text>
<polygon fill="#8dd3c7" stroke="transparent" points="127,-10 127,-30 147,-30 147,-10 127,-10"/>
<text text-anchor="start" x="150.73" y="-15.4" font-family="Times-12" font-size="14.00"> &#160;Module</text>
<polygon fill="#80b1d3" stroke="transparent" points="213,-10 213,-30 233,-30 233,-10 213,-10"/>
<text text-anchor="start" x="236.78" y="-15.4" font-family="Times-12" font-size="14.00"> &#160;Bootstrap</text>
<polygon fill="#fdb462" stroke="transparent" points="310,-10 310,-30 330,-30 330,-10 310,-10"/>
<text text-anchor="start" x="333.67" y="-15.4" font-family="Times-12" font-size="14.00"> &#160;Providers</text>
<polygon fill="#fb8072" stroke="transparent" points="406,-10 406,-30 426,-30 426,-10 406,-10"/>
<text text-anchor="start" x="429.73" y="-15.4" font-family="Times-12" font-size="14.00"> &#160;Exports</text>
<g id="clust1" class="cluster">
<title>cluster_AppStoreModule</title>
<polygon fill="none" stroke="black" stroke-dasharray="1,5" points="33,-70 33,-195 463,-195 463,-70 33,-70"/>
</g>
<g id="clust6" class="cluster">
<title>cluster_AppStoreModule_providers</title>
<polygon fill="none" stroke="black" points="285,-78 285,-130 455,-130 455,-78 285,-78"/>
</g>
<g id="clust3" class="cluster">
<title>cluster_AppStoreModule_imports</title>
<polygon fill="none" stroke="black" points="41,-78 41,-130 277,-130 277,-78 41,-78"/>
</g>
<!-- DatabaseModule -->
<g id="node1" class="node">
<title>DatabaseModule</title>
<polygon fill="#8dd3c7" stroke="black" points="269.35,-122 266.35,-126 245.35,-126 242.35,-122 158.65,-122 158.65,-86 269.35,-86 269.35,-122"/>
<text text-anchor="middle" x="214" y="-99.8" font-family="Times,serif" font-size="14.00">DatabaseModule</text>
</g>
<!-- AppStoreModule -->
<g id="node3" class="node">
<title>AppStoreModule</title>
<polygon fill="#8dd3c7" stroke="black" points="270.7,-187 267.7,-191 246.7,-191 243.7,-187 157.3,-187 157.3,-151 270.7,-151 270.7,-187"/>
<text text-anchor="middle" x="214" y="-164.8" font-family="Times,serif" font-size="14.00">AppStoreModule</text>
</g>
<!-- DatabaseModule&#45;&gt;AppStoreModule -->
<g id="edge1" class="edge">
<title>DatabaseModule&#45;&gt;AppStoreModule</title>
<path fill="none" stroke="black" d="M214,-122.11C214,-122.11 214,-140.99 214,-140.99"/>
<polygon fill="black" stroke="black" points="210.5,-140.99 214,-150.99 217.5,-140.99 210.5,-140.99"/>
</g>
<!-- UsersModule -->
<g id="node2" class="node">
<title>UsersModule</title>
<polygon fill="#8dd3c7" stroke="black" points="140.92,-122 137.92,-126 116.92,-126 113.92,-122 49.08,-122 49.08,-86 140.92,-86 140.92,-122"/>
<text text-anchor="middle" x="95" y="-99.8" font-family="Times,serif" font-size="14.00">UsersModule</text>
</g>
<!-- UsersModule&#45;&gt;AppStoreModule -->
<g id="edge2" class="edge">
<title>UsersModule&#45;&gt;AppStoreModule</title>
<path fill="none" stroke="black" d="M95,-122.11C95,-141.34 95,-169 95,-169 95,-169 147.29,-169 147.29,-169"/>
<polygon fill="black" stroke="black" points="147.29,-172.5 157.29,-169 147.29,-165.5 147.29,-172.5"/>
</g>
<!-- AppStoreService -->
<g id="node4" class="node">
<title>AppStoreService</title>
<ellipse fill="#fdb462" stroke="black" cx="370" cy="-104" rx="77" ry="18"/>
<text text-anchor="middle" x="370" y="-99.8" font-family="Times,serif" font-size="14.00">AppStoreService</text>
</g>
<!-- AppStoreService&#45;&gt;AppStoreModule -->
<g id="edge3" class="edge">
<title>AppStoreService&#45;&gt;AppStoreModule</title>
<path fill="none" stroke="black" d="M370,-122.11C370,-141.34 370,-169 370,-169 370,-169 280.76,-169 280.76,-169"/>
<polygon fill="black" stroke="black" points="280.76,-165.5 270.76,-169 280.76,-172.5 280.76,-165.5"/>
</g>
</g>
</svg>
