<?xml version="1.0" encoding="UTF-8" standalone="no"?>
<!DOCTYPE svg PUBLIC "-//W3C//DTD SVG 1.1//EN"
 "http://www.w3.org/Graphics/SVG/1.1/DTD/svg11.dtd">
<!-- Generated by graphviz version 2.47.0 (20210316.0004)
 -->
<!-- Title: dependencies Pages: 1 -->
<svg width="504pt" height="211pt"
 viewBox="0.00 0.00 504.00 211.00" xmlns="http://www.w3.org/2000/svg" xmlns:xlink="http://www.w3.org/1999/xlink">
<g id="graph0" class="graph" transform="scale(1 1) rotate(0) translate(4 207)">
<title>dependencies</title>
<polygon fill="white" stroke="transparent" points="-4,4 -4,-207 500,-207 500,4 -4,4"/>
<text text-anchor="start" x="227.01" y="-42.4" font-family="Times-12" font-weight="bold" font-size="14.00">Legend</text>
<polygon fill="#ffffb3" stroke="transparent" points="14,-10 14,-30 34,-30 34,-10 14,-10"/>
<text text-anchor="start" x="37.63" y="-15.4" font-family="Times-12" font-size="14.00"> &#160;Declarations</text>
<polygon fill="#8dd3c7" stroke="transparent" points="127,-10 127,-30 147,-30 147,-10 127,-10"/>
<text text-anchor="start" x="150.73" y="-15.4" font-family="Times-12" font-size="14.00"> &#160;Module</text>
<polygon fill="#80b1d3" stroke="transparent" points="213,-10 213,-30 233,-30 233,-10 213,-10"/>
<text text-anchor="start" x="236.78" y="-15.4" font-family="Times-12" font-size="14.00"> &#160;Bootstrap</text>
<polygon fill="#fdb462" stroke="transparent" points="310,-10 310,-30 330,-30 330,-10 310,-10"/>
<text text-anchor="start" x="333.67" y="-15.4" font-family="Times-12" font-size="14.00"> &#160;Providers</text>
<polygon fill="#fb8072" stroke="transparent" points="406,-10 406,-30 426,-30 426,-10 406,-10"/>
<text text-anchor="start" x="429.73" y="-15.4" font-family="Times-12" font-size="14.00"> &#160;Exports</text>
<g id="clust1" class="cluster">
<title>cluster_AppStoreModule</title>
<polygon fill="none" stroke="black" stroke-dasharray="1,5" points="33,-70 33,-195 463,-195 463,-70 33,-70"/>
</g>
<g id="clust3" class="cluster">
<title>cluster_AppStoreModule_imports</title>
<polygon fill="none" stroke="black" points="219,-78 219,-130 455,-130 455,-78 219,-78"/>
</g>
<g id="clust6" class="cluster">
<title>cluster_AppStoreModule_providers</title>
<polygon fill="none" stroke="black" points="41,-78 41,-130 211,-130 211,-78 41,-78"/>
</g>
<!-- DatabaseModule -->
<g id="node1" class="node">
<title>DatabaseModule</title>
<polygon fill="#8dd3c7" stroke="black" points="447.35,-122 444.35,-126 423.35,-126 420.35,-122 336.65,-122 336.65,-86 447.35,-86 447.35,-122"/>
<text text-anchor="middle" x="392" y="-99.8" font-family="Times,serif" font-size="14.00">DatabaseModule</text>
</g>
<!-- AppStoreModule -->
<g id="node3" class="node">
<title>AppStoreModule</title>
<polygon fill="#8dd3c7" stroke="black" points="329.7,-187 326.7,-191 305.7,-191 302.7,-187 216.3,-187 216.3,-151 329.7,-151 329.7,-187"/>
<text text-anchor="middle" x="273" y="-164.8" font-family="Times,serif" font-size="14.00">AppStoreModule</text>
</g>
<!-- DatabaseModule&#45;&gt;AppStoreModule -->
<g id="edge1" class="edge">
<title>DatabaseModule&#45;&gt;AppStoreModule</title>
<path fill="none" stroke="black" d="M336.6,-104C329.23,-104 324.16,-104 324.16,-104 324.16,-104 324.16,-140.89 324.16,-140.89"/>
<polygon fill="black" stroke="black" points="320.66,-140.89 324.16,-150.89 327.66,-140.89 320.66,-140.89"/>
</g>
<!-- UsersModule -->
<g id="node2" class="node">
<title>UsersModule</title>
<polygon fill="#8dd3c7" stroke="black" points="318.92,-122 315.92,-126 294.92,-126 291.92,-122 227.08,-122 227.08,-86 318.92,-86 318.92,-122"/>
<text text-anchor="middle" x="273" y="-99.8" font-family="Times,serif" font-size="14.00">UsersModule</text>
</g>
<!-- UsersModule&#45;&gt;AppStoreModule -->
<g id="edge2" class="edge">
<title>UsersModule&#45;&gt;AppStoreModule</title>
<path fill="none" stroke="black" d="M273,-122.11C273,-122.11 273,-140.99 273,-140.99"/>
<polygon fill="black" stroke="black" points="269.5,-140.99 273,-150.99 276.5,-140.99 269.5,-140.99"/>
</g>
<!-- AppStoreService -->
<g id="node4" class="node">
<title>AppStoreService</title>
<ellipse fill="#fdb462" stroke="black" cx="126" cy="-104" rx="77" ry="18"/>
<text text-anchor="middle" x="126" y="-99.8" font-family="Times,serif" font-size="14.00">AppStoreService</text>
</g>
<!-- AppStoreService&#45;&gt;AppStoreModule -->
<g id="edge3" class="edge">
<title>AppStoreService&#45;&gt;AppStoreModule</title>
<path fill="none" stroke="black" d="M203.36,-104C214.26,-104 221.84,-104 221.84,-104 221.84,-104 221.84,-140.89 221.84,-140.89"/>
<polygon fill="black" stroke="black" points="218.34,-140.89 221.84,-150.89 225.34,-140.89 218.34,-140.89"/>
</g>
</g>
</svg>
