<?xml version="1.0" encoding="UTF-8" standalone="no"?>
<!DOCTYPE svg PUBLIC "-//W3C//DTD SVG 1.1//EN"
 "http://www.w3.org/Graphics/SVG/1.1/DTD/svg11.dtd">
<!-- Generated by graphviz version 2.47.0 (20210316.0004)
 -->
<!-- Title: dependencies Pages: 1 -->
<svg width="814pt" height="284pt"
 viewBox="0.00 0.00 814.00 284.00" xmlns="http://www.w3.org/2000/svg" xmlns:xlink="http://www.w3.org/1999/xlink">
<g id="graph0" class="graph" transform="scale(1 1) rotate(0) translate(4 280)">
<title>dependencies</title>
<polygon fill="white" stroke="transparent" points="-4,4 -4,-280 810,-280 810,4 -4,4"/>
<text text-anchor="start" x="382.01" y="-42.4" font-family="Times-12" font-weight="bold" font-size="14.00">Legend</text>
<polygon fill="#ffffb3" stroke="transparent" points="169,-10 169,-30 189,-30 189,-10 169,-10"/>
<text text-anchor="start" x="192.63" y="-15.4" font-family="Times-12" font-size="14.00"> &#160;Declarations</text>
<polygon fill="#8dd3c7" stroke="transparent" points="282,-10 282,-30 302,-30 302,-10 282,-10"/>
<text text-anchor="start" x="305.73" y="-15.4" font-family="Times-12" font-size="14.00"> &#160;Module</text>
<polygon fill="#80b1d3" stroke="transparent" points="368,-10 368,-30 388,-30 388,-10 368,-10"/>
<text text-anchor="start" x="391.78" y="-15.4" font-family="Times-12" font-size="14.00"> &#160;Bootstrap</text>
<polygon fill="#fdb462" stroke="transparent" points="465,-10 465,-30 485,-30 485,-10 465,-10"/>
<text text-anchor="start" x="488.67" y="-15.4" font-family="Times-12" font-size="14.00"> &#160;Providers</text>
<polygon fill="#fb8072" stroke="transparent" points="561,-10 561,-30 581,-30 581,-10 561,-10"/>
<text text-anchor="start" x="584.73" y="-15.4" font-family="Times-12" font-size="14.00"> &#160;Exports</text>
<g id="clust1" class="cluster">
<title>cluster_VoltageDexModule</title>
<polygon fill="none" stroke="black" stroke-dasharray="1,5" points="8,-70 8,-268 798,-268 798,-70 8,-70"/>
</g>
<g id="clust6" class="cluster">
<title>cluster_VoltageDexModule_providers</title>
<polygon fill="none" stroke="black" points="16,-78 16,-130 790,-130 790,-78 16,-78"/>
</g>
<g id="clust4" class="cluster">
<title>cluster_VoltageDexModule_exports</title>
<polygon fill="none" stroke="black" points="319,-208 319,-260 465,-260 465,-208 319,-208"/>
</g>
<!-- VoltageDexService  -->
<g id="node1" class="node">
<title>VoltageDexService </title>
<polygon fill="#fb8072" stroke="black" points="456.62,-252 327.38,-252 327.38,-216 456.62,-216 456.62,-252"/>
<text text-anchor="middle" x="392" y="-229.8" font-family="Times,serif" font-size="14.00">VoltageDexService </text>
</g>
<!-- VoltageDexModule -->
<g id="node2" class="node">
<title>VoltageDexModule</title>
<polygon fill="#8dd3c7" stroke="black" points="455.69,-187 452.69,-191 431.69,-191 428.69,-187 328.31,-187 328.31,-151 455.69,-151 455.69,-187"/>
<text text-anchor="middle" x="392" y="-164.8" font-family="Times,serif" font-size="14.00">VoltageDexModule</text>
</g>
<!-- VoltageDexModule&#45;&gt;VoltageDexService  -->
<g id="edge1" class="edge">
<title>VoltageDexModule&#45;&gt;VoltageDexService </title>
<path fill="none" stroke="black" stroke-dasharray="5,2" d="M392,-187.11C392,-187.11 392,-205.99 392,-205.99"/>
<polygon fill="black" stroke="black" points="388.5,-205.99 392,-215.99 395.5,-205.99 388.5,-205.99"/>
</g>
<!-- TokenAddressMapper -->
<g id="node3" class="node">
<title>TokenAddressMapper</title>
<ellipse fill="#fdb462" stroke="black" cx="685" cy="-104" rx="97.26" ry="18"/>
<text text-anchor="middle" x="685" y="-99.8" font-family="Times,serif" font-size="14.00">TokenAddressMapper</text>
</g>
<!-- TokenAddressMapper&#45;&gt;VoltageDexModule -->
<g id="edge2" class="edge">
<title>TokenAddressMapper&#45;&gt;VoltageDexModule</title>
<path fill="none" stroke="black" d="M685,-122.11C685,-141.34 685,-169 685,-169 685,-169 465.94,-169 465.94,-169"/>
<polygon fill="black" stroke="black" points="465.94,-165.5 455.94,-169 465.94,-172.5 465.94,-165.5"/>
</g>
<!-- TokenPriceService -->
<g id="node4" class="node">
<title>TokenPriceService</title>
<ellipse fill="#fdb462" stroke="black" cx="485" cy="-104" rx="84.51" ry="18"/>
<text text-anchor="middle" x="485" y="-99.8" font-family="Times,serif" font-size="14.00">TokenPriceService</text>
</g>
<!-- TokenPriceService&#45;&gt;VoltageDexModule -->
<g id="edge3" class="edge">
<title>TokenPriceService&#45;&gt;VoltageDexModule</title>
<path fill="none" stroke="black" d="M428.05,-117.47C428.05,-117.47 428.05,-140.86 428.05,-140.86"/>
<polygon fill="black" stroke="black" points="424.55,-140.86 428.05,-150.86 431.55,-140.86 424.55,-140.86"/>
</g>
<!-- TokenStatsService -->
<g id="node5" class="node">
<title>TokenStatsService</title>
<ellipse fill="#fdb462" stroke="black" cx="299" cy="-104" rx="83.38" ry="18"/>
<text text-anchor="middle" x="299" y="-99.8" font-family="Times,serif" font-size="14.00">TokenStatsService</text>
</g>
<!-- TokenStatsService&#45;&gt;VoltageDexModule -->
<g id="edge4" class="edge">
<title>TokenStatsService&#45;&gt;VoltageDexModule</title>
<path fill="none" stroke="black" d="M355.42,-117.47C355.42,-117.47 355.42,-140.86 355.42,-140.86"/>
<polygon fill="black" stroke="black" points="351.92,-140.86 355.42,-150.86 358.92,-140.86 351.92,-140.86"/>
</g>
<!-- VoltageDexService -->
<g id="node6" class="node">
<title>VoltageDexService</title>
<ellipse fill="#fdb462" stroke="black" cx="111" cy="-104" rx="86.8" ry="18"/>
<text text-anchor="middle" x="111" y="-99.8" font-family="Times,serif" font-size="14.00">VoltageDexService</text>
</g>
<!-- VoltageDexService&#45;&gt;VoltageDexModule -->
<g id="edge5" class="edge">
<title>VoltageDexService&#45;&gt;VoltageDexModule</title>
<path fill="none" stroke="black" d="M111,-122.11C111,-141.34 111,-169 111,-169 111,-169 318.24,-169 318.24,-169"/>
<polygon fill="black" stroke="black" points="318.24,-172.5 328.24,-169 318.24,-165.5 318.24,-172.5"/>
</g>
</g>
</svg>
