<?xml version="1.0" encoding="UTF-8" standalone="no"?>
<!DOCTYPE svg PUBLIC "-//W3C//DTD SVG 1.1//EN"
 "http://www.w3.org/Graphics/SVG/1.1/DTD/svg11.dtd">
<!-- Generated by graphviz version 2.47.0 (20210316.0004)
 -->
<!-- Title: dependencies Pages: 1 -->
<svg width="852pt" height="211pt"
 viewBox="0.00 0.00 852.00 211.00" xmlns="http://www.w3.org/2000/svg" xmlns:xlink="http://www.w3.org/1999/xlink">
<g id="graph0" class="graph" transform="scale(1 1) rotate(0) translate(4 207)">
<title>dependencies</title>
<polygon fill="white" stroke="transparent" points="-4,4 -4,-207 848,-207 848,4 -4,4"/>
<text text-anchor="start" x="401.01" y="-42.4" font-family="Times-12" font-weight="bold" font-size="14.00">Legend</text>
<polygon fill="#ffffb3" stroke="transparent" points="188,-10 188,-30 208,-30 208,-10 188,-10"/>
<text text-anchor="start" x="211.63" y="-15.4" font-family="Times-12" font-size="14.00"> &#160;Declarations</text>
<polygon fill="#8dd3c7" stroke="transparent" points="301,-10 301,-30 321,-30 321,-10 301,-10"/>
<text text-anchor="start" x="324.73" y="-15.4" font-family="Times-12" font-size="14.00"> &#160;Module</text>
<polygon fill="#80b1d3" stroke="transparent" points="387,-10 387,-30 407,-30 407,-10 387,-10"/>
<text text-anchor="start" x="410.78" y="-15.4" font-family="Times-12" font-size="14.00"> &#160;Bootstrap</text>
<polygon fill="#fdb462" stroke="transparent" points="484,-10 484,-30 504,-30 504,-10 484,-10"/>
<text text-anchor="start" x="507.67" y="-15.4" font-family="Times-12" font-size="14.00"> &#160;Providers</text>
<polygon fill="#fb8072" stroke="transparent" points="580,-10 580,-30 600,-30 600,-10 580,-10"/>
<text text-anchor="start" x="603.73" y="-15.4" font-family="Times-12" font-size="14.00"> &#160;Exports</text>
<g id="clust1" class="cluster">
<title>cluster_ChargeNotificationsServiceModule</title>
<polygon fill="none" stroke="black" stroke-dasharray="1,5" points="8,-70 8,-195 836,-195 836,-70 8,-70"/>
</g>
<g id="clust3" class="cluster">
<title>cluster_ChargeNotificationsServiceModule_imports</title>
<polygon fill="none" stroke="black" points="16,-78 16,-130 828,-130 828,-78 16,-78"/>
</g>
<!-- BroadcasterModule -->
<g id="node1" class="node">
<title>BroadcasterModule</title>
<polygon fill="#8dd3c7" stroke="black" points="820.4,-122 817.4,-126 796.4,-126 793.4,-122 693.6,-122 693.6,-86 820.4,-86 820.4,-122"/>
<text text-anchor="middle" x="757" y="-99.8" font-family="Times,serif" font-size="14.00">BroadcasterModule</text>
</g>
<!-- ChargeNotificationsServiceModule -->
<g id="node6" class="node">
<title>ChargeNotificationsServiceModule</title>
<polygon fill="#8dd3c7" stroke="black" points="542.55,-187 539.55,-191 518.55,-191 515.55,-187 327.45,-187 327.45,-151 542.55,-151 542.55,-187"/>
<text text-anchor="middle" x="435" y="-164.8" font-family="Times,serif" font-size="14.00">ChargeNotificationsServiceModule</text>
</g>
<!-- BroadcasterModule&#45;&gt;ChargeNotificationsServiceModule -->
<g id="edge1" class="edge">
<title>BroadcasterModule&#45;&gt;ChargeNotificationsServiceModule</title>
<path fill="none" stroke="black" d="M757,-122.11C757,-141.34 757,-169 757,-169 757,-169 552.67,-169 552.67,-169"/>
<polygon fill="black" stroke="black" points="552.67,-165.5 542.67,-169 552.67,-172.5 552.67,-165.5"/>
</g>
<!-- EventsScannerModule -->
<g id="node2" class="node">
<title>EventsScannerModule</title>
<polygon fill="#8dd3c7" stroke="black" points="675.24,-122 672.24,-126 651.24,-126 648.24,-122 532.76,-122 532.76,-86 675.24,-86 675.24,-122"/>
<text text-anchor="middle" x="604" y="-99.8" font-family="Times,serif" font-size="14.00">EventsScannerModule</text>
</g>
<!-- EventsScannerModule&#45;&gt;ChargeNotificationsServiceModule -->
<g id="edge2" class="edge">
<title>EventsScannerModule&#45;&gt;ChargeNotificationsServiceModule</title>
<path fill="none" stroke="black" d="M537.58,-122.11C537.58,-122.11 537.58,-140.99 537.58,-140.99"/>
<polygon fill="black" stroke="black" points="534.08,-140.99 537.58,-150.99 541.08,-140.99 534.08,-140.99"/>
</g>
<!-- SmartWalletsAPIModule -->
<g id="node3" class="node">
<title>SmartWalletsAPIModule</title>
<polygon fill="#8dd3c7" stroke="black" points="514.3,-122 511.3,-126 490.3,-126 487.3,-122 355.7,-122 355.7,-86 514.3,-86 514.3,-122"/>
<text text-anchor="middle" x="435" y="-99.8" font-family="Times,serif" font-size="14.00">SmartWalletsAPIModule</text>
</g>
<!-- SmartWalletsAPIModule&#45;&gt;ChargeNotificationsServiceModule -->
<g id="edge3" class="edge">
<title>SmartWalletsAPIModule&#45;&gt;ChargeNotificationsServiceModule</title>
<path fill="none" stroke="black" d="M435,-122.11C435,-122.11 435,-140.99 435,-140.99"/>
<polygon fill="black" stroke="black" points="431.5,-140.99 435,-150.99 438.5,-140.99 431.5,-140.99"/>
</g>
<!-- TransactionsScannerModule -->
<g id="node4" class="node">
<title>TransactionsScannerModule</title>
<polygon fill="#8dd3c7" stroke="black" points="338.16,-122 335.16,-126 314.16,-126 311.16,-122 161.84,-122 161.84,-86 338.16,-86 338.16,-122"/>
<text text-anchor="middle" x="250" y="-99.8" font-family="Times,serif" font-size="14.00">TransactionsScannerModule</text>
</g>
<!-- TransactionsScannerModule&#45;&gt;ChargeNotificationsServiceModule -->
<g id="edge4" class="edge">
<title>TransactionsScannerModule&#45;&gt;ChargeNotificationsServiceModule</title>
<path fill="none" stroke="black" d="M332.78,-122.11C332.78,-122.11 332.78,-140.99 332.78,-140.99"/>
<polygon fill="black" stroke="black" points="329.28,-140.99 332.78,-150.99 336.28,-140.99 329.28,-140.99"/>
</g>
<!-- WebhooksModule -->
<g id="node5" class="node">
<title>WebhooksModule</title>
<polygon fill="#8dd3c7" stroke="black" points="143.92,-122 140.92,-126 119.92,-126 116.92,-122 24.08,-122 24.08,-86 143.92,-86 143.92,-122"/>
<text text-anchor="middle" x="84" y="-99.8" font-family="Times,serif" font-size="14.00">WebhooksModule</text>
</g>
<!-- WebhooksModule&#45;&gt;ChargeNotificationsServiceModule -->
<g id="edge5" class="edge">
<title>WebhooksModule&#45;&gt;ChargeNotificationsServiceModule</title>
<path fill="none" stroke="black" d="M84,-122.11C84,-141.34 84,-169 84,-169 84,-169 317.3,-169 317.3,-169"/>
<polygon fill="black" stroke="black" points="317.3,-172.5 327.3,-169 317.3,-165.5 317.3,-172.5"/>
</g>
</g>
</svg>
