<?xml version="1.0" encoding="UTF-8" standalone="no"?>
<!DOCTYPE svg PUBLIC "-//W3C//DTD SVG 1.1//EN"
 "http://www.w3.org/Graphics/SVG/1.1/DTD/svg11.dtd">
<!-- Generated by graphviz version 2.47.0 (20210316.0004)
 -->
<!-- Title: dependencies Pages: 1 -->
<svg width="841pt" height="211pt"
 viewBox="0.00 0.00 841.00 211.00" xmlns="http://www.w3.org/2000/svg" xmlns:xlink="http://www.w3.org/1999/xlink">
<g id="graph0" class="graph" transform="scale(1 1) rotate(0) translate(4 207)">
<title>dependencies</title>
<polygon fill="white" stroke="transparent" points="-4,4 -4,-207 837,-207 837,4 -4,4"/>
<text text-anchor="start" x="395.51" y="-42.4" font-family="Times-12" font-weight="bold" font-size="14.00">Legend</text>
<polygon fill="#ffffb3" stroke="transparent" points="182.5,-10 182.5,-30 202.5,-30 202.5,-10 182.5,-10"/>
<text text-anchor="start" x="206.13" y="-15.4" font-family="Times-12" font-size="14.00"> &#160;Declarations</text>
<polygon fill="#8dd3c7" stroke="transparent" points="295.5,-10 295.5,-30 315.5,-30 315.5,-10 295.5,-10"/>
<text text-anchor="start" x="319.23" y="-15.4" font-family="Times-12" font-size="14.00"> &#160;Module</text>
<polygon fill="#80b1d3" stroke="transparent" points="381.5,-10 381.5,-30 401.5,-30 401.5,-10 381.5,-10"/>
<text text-anchor="start" x="405.28" y="-15.4" font-family="Times-12" font-size="14.00"> &#160;Bootstrap</text>
<polygon fill="#fdb462" stroke="transparent" points="478.5,-10 478.5,-30 498.5,-30 498.5,-10 478.5,-10"/>
<text text-anchor="start" x="502.17" y="-15.4" font-family="Times-12" font-size="14.00"> &#160;Providers</text>
<polygon fill="#fb8072" stroke="transparent" points="574.5,-10 574.5,-30 594.5,-30 594.5,-10 574.5,-10"/>
<text text-anchor="start" x="598.23" y="-15.4" font-family="Times-12" font-size="14.00"> &#160;Exports</text>
<g id="clust1" class="cluster">
<title>cluster_TransactionsScannerModule</title>
<polygon fill="none" stroke="black" stroke-dasharray="1,5" points="8,-70 8,-195 825,-195 825,-70 8,-70"/>
</g>
<g id="clust3" class="cluster">
<title>cluster_TransactionsScannerModule_imports</title>
<polygon fill="none" stroke="black" points="408,-78 408,-130 817,-130 817,-78 408,-78"/>
</g>
<g id="clust6" class="cluster">
<title>cluster_TransactionsScannerModule_providers</title>
<polygon fill="none" stroke="black" points="16,-78 16,-130 400,-130 400,-78 16,-78"/>
</g>
<!-- BroadcasterModule -->
<g id="node1" class="node">
<title>BroadcasterModule</title>
<polygon fill="#8dd3c7" stroke="black" points="809.4,-122 806.4,-126 785.4,-126 782.4,-122 682.6,-122 682.6,-86 809.4,-86 809.4,-122"/>
<text text-anchor="middle" x="746" y="-99.8" font-family="Times,serif" font-size="14.00">BroadcasterModule</text>
</g>
<!-- TransactionsScannerModule -->
<g id="node4" class="node">
<title>TransactionsScannerModule</title>
<polygon fill="#8dd3c7" stroke="black" points="564.16,-187 561.16,-191 540.16,-191 537.16,-187 387.84,-187 387.84,-151 564.16,-151 564.16,-187"/>
<text text-anchor="middle" x="476" y="-164.8" font-family="Times,serif" font-size="14.00">TransactionsScannerModule</text>
</g>
<!-- BroadcasterModule&#45;&gt;TransactionsScannerModule -->
<g id="edge1" class="edge">
<title>BroadcasterModule&#45;&gt;TransactionsScannerModule</title>
<path fill="none" stroke="black" d="M746,-122.11C746,-141.34 746,-169 746,-169 746,-169 574.41,-169 574.41,-169"/>
<polygon fill="black" stroke="black" points="574.41,-165.5 564.41,-169 574.41,-172.5 574.41,-165.5"/>
</g>
<!-- DatabaseModule -->
<g id="node2" class="node">
<title>DatabaseModule</title>
<polygon fill="#8dd3c7" stroke="black" points="664.35,-122 661.35,-126 640.35,-126 637.35,-122 553.65,-122 553.65,-86 664.35,-86 664.35,-122"/>
<text text-anchor="middle" x="609" y="-99.8" font-family="Times,serif" font-size="14.00">DatabaseModule</text>
</g>
<!-- DatabaseModule&#45;&gt;TransactionsScannerModule -->
<g id="edge2" class="edge">
<title>DatabaseModule&#45;&gt;TransactionsScannerModule</title>
<path fill="none" stroke="black" d="M558.83,-122.11C558.83,-122.11 558.83,-140.99 558.83,-140.99"/>
<polygon fill="black" stroke="black" points="555.33,-140.99 558.83,-150.99 562.33,-140.99 555.33,-140.99"/>
</g>
<!-- WebhooksModule -->
<g id="node3" class="node">
<title>WebhooksModule</title>
<polygon fill="#8dd3c7" stroke="black" points="535.92,-122 532.92,-126 511.92,-126 508.92,-122 416.08,-122 416.08,-86 535.92,-86 535.92,-122"/>
<text text-anchor="middle" x="476" y="-99.8" font-family="Times,serif" font-size="14.00">WebhooksModule</text>
</g>
<!-- WebhooksModule&#45;&gt;TransactionsScannerModule -->
<g id="edge3" class="edge">
<title>WebhooksModule&#45;&gt;TransactionsScannerModule</title>
<path fill="none" stroke="black" d="M476,-122.11C476,-122.11 476,-140.99 476,-140.99"/>
<polygon fill="black" stroke="black" points="472.5,-140.99 476,-150.99 479.5,-140.99 472.5,-140.99"/>
</g>
<!-- GasService -->
<g id="node5" class="node">
<title>GasService</title>
<ellipse fill="#fdb462" stroke="black" cx="337" cy="-104" rx="55.01" ry="18"/>
<text text-anchor="middle" x="337" y="-99.8" font-family="Times,serif" font-size="14.00">GasService</text>
</g>
<!-- GasService&#45;&gt;TransactionsScannerModule -->
<g id="edge4" class="edge">
<title>GasService&#45;&gt;TransactionsScannerModule</title>
<path fill="none" stroke="black" d="M392.14,-104C399.27,-104 404.15,-104 404.15,-104 404.15,-104 404.15,-140.89 404.15,-140.89"/>
<polygon fill="black" stroke="black" points="400.65,-140.89 404.15,-150.89 407.65,-140.89 400.65,-140.89"/>
</g>
<!-- TransactionsScannerService -->
<g id="node6" class="node">
<title>TransactionsScannerService</title>
<ellipse fill="#fdb462" stroke="black" cx="144" cy="-104" rx="120.36" ry="18"/>
<text text-anchor="middle" x="144" y="-99.8" font-family="Times,serif" font-size="14.00">TransactionsScannerService</text>
</g>
<!-- TransactionsScannerService&#45;&gt;TransactionsScannerModule -->
<g id="edge5" class="edge">
<title>TransactionsScannerService&#45;&gt;TransactionsScannerModule</title>
<path fill="none" stroke="black" d="M144,-122.11C144,-141.34 144,-169 144,-169 144,-169 377.9,-169 377.9,-169"/>
<polygon fill="black" stroke="black" points="377.9,-172.5 387.9,-169 377.9,-165.5 377.9,-172.5"/>
</g>
</g>
</svg>
