<?xml version="1.0" encoding="UTF-8" standalone="no"?>
<!DOCTYPE svg PUBLIC "-//W3C//DTD SVG 1.1//EN"
 "http://www.w3.org/Graphics/SVG/1.1/DTD/svg11.dtd">
<!-- Generated by graphviz version 2.47.0 (20210316.0004)
 -->
<!-- Title: dependencies Pages: 1 -->
<svg width="841pt" height="211pt"
 viewBox="0.00 0.00 841.00 211.00" xmlns="http://www.w3.org/2000/svg" xmlns:xlink="http://www.w3.org/1999/xlink">
<g id="graph0" class="graph" transform="scale(1 1) rotate(0) translate(4 207)">
<title>dependencies</title>
<polygon fill="white" stroke="transparent" points="-4,4 -4,-207 837,-207 837,4 -4,4"/>
<text text-anchor="start" x="395.51" y="-42.4" font-family="Times-12" font-weight="bold" font-size="14.00">Legend</text>
<polygon fill="#ffffb3" stroke="transparent" points="182.5,-10 182.5,-30 202.5,-30 202.5,-10 182.5,-10"/>
<text text-anchor="start" x="206.13" y="-15.4" font-family="Times-12" font-size="14.00"> &#160;Declarations</text>
<polygon fill="#8dd3c7" stroke="transparent" points="295.5,-10 295.5,-30 315.5,-30 315.5,-10 295.5,-10"/>
<text text-anchor="start" x="319.23" y="-15.4" font-family="Times-12" font-size="14.00"> &#160;Module</text>
<polygon fill="#80b1d3" stroke="transparent" points="381.5,-10 381.5,-30 401.5,-30 401.5,-10 381.5,-10"/>
<text text-anchor="start" x="405.28" y="-15.4" font-family="Times-12" font-size="14.00"> &#160;Bootstrap</text>
<polygon fill="#fdb462" stroke="transparent" points="478.5,-10 478.5,-30 498.5,-30 498.5,-10 478.5,-10"/>
<text text-anchor="start" x="502.17" y="-15.4" font-family="Times-12" font-size="14.00"> &#160;Providers</text>
<polygon fill="#fb8072" stroke="transparent" points="574.5,-10 574.5,-30 594.5,-30 594.5,-10 574.5,-10"/>
<text text-anchor="start" x="598.23" y="-15.4" font-family="Times-12" font-size="14.00"> &#160;Exports</text>
<g id="clust1" class="cluster">
<title>cluster_TransactionsScannerModule</title>
<polygon fill="none" stroke="black" stroke-dasharray="1,5" points="8,-70 8,-195 825,-195 825,-70 8,-70"/>
</g>
<g id="clust6" class="cluster">
<title>cluster_TransactionsScannerModule_providers</title>
<polygon fill="none" stroke="black" points="433,-78 433,-130 817,-130 817,-78 433,-78"/>
</g>
<g id="clust3" class="cluster">
<title>cluster_TransactionsScannerModule_imports</title>
<polygon fill="none" stroke="black" points="16,-78 16,-130 425,-130 425,-78 16,-78"/>
</g>
<!-- BroadcasterModule -->
<g id="node1" class="node">
<title>BroadcasterModule</title>
<polygon fill="#8dd3c7" stroke="black" points="417.4,-122 414.4,-126 393.4,-126 390.4,-122 290.6,-122 290.6,-86 417.4,-86 417.4,-122"/>
<text text-anchor="middle" x="354" y="-99.8" font-family="Times,serif" font-size="14.00">BroadcasterModule</text>
</g>
<!-- TransactionsScannerModule -->
<g id="node4" class="node">
<title>TransactionsScannerModule</title>
<polygon fill="#8dd3c7" stroke="black" points="442.16,-187 439.16,-191 418.16,-191 415.16,-187 265.84,-187 265.84,-151 442.16,-151 442.16,-187"/>
<text text-anchor="middle" x="354" y="-164.8" font-family="Times,serif" font-size="14.00">TransactionsScannerModule</text>
</g>
<!-- BroadcasterModule&#45;&gt;TransactionsScannerModule -->
<g id="edge1" class="edge">
<title>BroadcasterModule&#45;&gt;TransactionsScannerModule</title>
<path fill="none" stroke="black" d="M354,-122.11C354,-122.11 354,-140.99 354,-140.99"/>
<polygon fill="black" stroke="black" points="350.5,-140.99 354,-150.99 357.5,-140.99 350.5,-140.99"/>
</g>
<!-- DatabaseModule -->
<g id="node2" class="node">
<title>DatabaseModule</title>
<polygon fill="#8dd3c7" stroke="black" points="272.35,-122 269.35,-126 248.35,-126 245.35,-122 161.65,-122 161.65,-86 272.35,-86 272.35,-122"/>
<text text-anchor="middle" x="217" y="-99.8" font-family="Times,serif" font-size="14.00">DatabaseModule</text>
</g>
<!-- DatabaseModule&#45;&gt;TransactionsScannerModule -->
<g id="edge2" class="edge">
<title>DatabaseModule&#45;&gt;TransactionsScannerModule</title>
<path fill="none" stroke="black" d="M272.35,-104C277.94,-104 281.61,-104 281.61,-104 281.61,-104 281.61,-140.89 281.61,-140.89"/>
<polygon fill="black" stroke="black" points="278.11,-140.89 281.61,-150.89 285.11,-140.89 278.11,-140.89"/>
</g>
<!-- WebhooksModule -->
<g id="node3" class="node">
<title>WebhooksModule</title>
<polygon fill="#8dd3c7" stroke="black" points="143.92,-122 140.92,-126 119.92,-126 116.92,-122 24.08,-122 24.08,-86 143.92,-86 143.92,-122"/>
<text text-anchor="middle" x="84" y="-99.8" font-family="Times,serif" font-size="14.00">WebhooksModule</text>
</g>
<!-- WebhooksModule&#45;&gt;TransactionsScannerModule -->
<g id="edge3" class="edge">
<title>WebhooksModule&#45;&gt;TransactionsScannerModule</title>
<path fill="none" stroke="black" d="M84,-122.11C84,-141.34 84,-169 84,-169 84,-169 255.59,-169 255.59,-169"/>
<polygon fill="black" stroke="black" points="255.59,-172.5 265.59,-169 255.59,-165.5 255.59,-172.5"/>
</g>
<!-- GasService -->
<g id="node5" class="node">
<title>GasService</title>
<ellipse fill="#fdb462" stroke="black" cx="754" cy="-104" rx="55.01" ry="18"/>
<text text-anchor="middle" x="754" y="-99.8" font-family="Times,serif" font-size="14.00">GasService</text>
</g>
<!-- GasService&#45;&gt;TransactionsScannerModule -->
<g id="edge4" class="edge">
<title>GasService&#45;&gt;TransactionsScannerModule</title>
<path fill="none" stroke="black" d="M754,-122.11C754,-141.34 754,-169 754,-169 754,-169 452.28,-169 452.28,-169"/>
<polygon fill="black" stroke="black" points="452.28,-165.5 442.28,-169 452.28,-172.5 452.28,-165.5"/>
</g>
<!-- TransactionsScannerService -->
<g id="node6" class="node">
<title>TransactionsScannerService</title>
<ellipse fill="#fdb462" stroke="black" cx="561" cy="-104" rx="120.36" ry="18"/>
<text text-anchor="middle" x="561" y="-99.8" font-family="Times,serif" font-size="14.00">TransactionsScannerService</text>
</g>
<!-- TransactionsScannerService&#45;&gt;TransactionsScannerModule -->
<g id="edge5" class="edge">
<title>TransactionsScannerService&#45;&gt;TransactionsScannerModule</title>
<path fill="none" stroke="black" d="M440.15,-104C433.15,-104 428.89,-104 428.89,-104 428.89,-104 428.89,-140.89 428.89,-140.89"/>
<polygon fill="black" stroke="black" points="425.39,-140.89 428.89,-150.89 432.39,-140.89 425.39,-140.89"/>
</g>
</g>
</svg>
