<?xml version="1.0" encoding="UTF-8" standalone="no"?>
<!DOCTYPE svg PUBLIC "-//W3C//DTD SVG 1.1//EN"
 "http://www.w3.org/Graphics/SVG/1.1/DTD/svg11.dtd">
<!-- Generated by graphviz version 2.47.0 (20210316.0004)
 -->
<!-- Title: dependencies Pages: 1 -->
<svg width="504pt" height="211pt"
 viewBox="0.00 0.00 504.00 211.00" xmlns="http://www.w3.org/2000/svg" xmlns:xlink="http://www.w3.org/1999/xlink">
<g id="graph0" class="graph" transform="scale(1 1) rotate(0) translate(4 207)">
<title>dependencies</title>
<polygon fill="white" stroke="transparent" points="-4,4 -4,-207 500,-207 500,4 -4,4"/>
<text text-anchor="start" x="227.01" y="-42.4" font-family="Times-12" font-weight="bold" font-size="14.00">Legend</text>
<polygon fill="#ffffb3" stroke="transparent" points="14,-10 14,-30 34,-30 34,-10 14,-10"/>
<text text-anchor="start" x="37.63" y="-15.4" font-family="Times-12" font-size="14.00"> &#160;Declarations</text>
<polygon fill="#8dd3c7" stroke="transparent" points="127,-10 127,-30 147,-30 147,-10 127,-10"/>
<text text-anchor="start" x="150.73" y="-15.4" font-family="Times-12" font-size="14.00"> &#160;Module</text>
<polygon fill="#80b1d3" stroke="transparent" points="213,-10 213,-30 233,-30 233,-10 213,-10"/>
<text text-anchor="start" x="236.78" y="-15.4" font-family="Times-12" font-size="14.00"> &#160;Bootstrap</text>
<polygon fill="#fdb462" stroke="transparent" points="310,-10 310,-30 330,-30 330,-10 310,-10"/>
<text text-anchor="start" x="333.67" y="-15.4" font-family="Times-12" font-size="14.00"> &#160;Providers</text>
<polygon fill="#fb8072" stroke="transparent" points="406,-10 406,-30 426,-30 426,-10 406,-10"/>
<text text-anchor="start" x="429.73" y="-15.4" font-family="Times-12" font-size="14.00"> &#160;Exports</text>
<g id="clust1" class="cluster">
<title>cluster_StakingAPIModule</title>
<polygon fill="none" stroke="black" stroke-dasharray="1,5" points="83,-70 83,-195 413,-195 413,-70 83,-70"/>
</g>
<g id="clust3" class="cluster">
<title>cluster_StakingAPIModule_imports</title>
<polygon fill="none" stroke="black" points="285,-78 285,-130 405,-130 405,-78 285,-78"/>
</g>
<g id="clust6" class="cluster">
<title>cluster_StakingAPIModule_providers</title>
<polygon fill="none" stroke="black" points="91,-78 91,-130 277,-130 277,-78 91,-78"/>
</g>
<!-- ApiKeyModule -->
<g id="node1" class="node">
<title>ApiKeyModule</title>
<polygon fill="#8dd3c7" stroke="black" points="396.87,-122 393.87,-126 372.87,-126 369.87,-122 293.13,-122 293.13,-86 396.87,-86 396.87,-122"/>
<text text-anchor="middle" x="345" y="-99.8" font-family="Times,serif" font-size="14.00">ApiKeyModule</text>
</g>
<!-- StakingAPIModule -->
<g id="node2" class="node">
<title>StakingAPIModule</title>
<polygon fill="#8dd3c7" stroke="black" points="325.38,-187 322.38,-191 301.38,-191 298.38,-187 200.62,-187 200.62,-151 325.38,-151 325.38,-187"/>
<text text-anchor="middle" x="263" y="-164.8" font-family="Times,serif" font-size="14.00">StakingAPIModule</text>
</g>
<!-- ApiKeyModule&#45;&gt;StakingAPIModule -->
<g id="edge1" class="edge">
<title>ApiKeyModule&#45;&gt;StakingAPIModule</title>
<path fill="none" stroke="black" d="M309.25,-122.11C309.25,-122.11 309.25,-140.99 309.25,-140.99"/>
<polygon fill="black" stroke="black" points="305.75,-140.99 309.25,-150.99 312.75,-140.99 305.75,-140.99"/>
</g>
<!-- StakingAPIService -->
<g id="node3" class="node">
<title>StakingAPIService</title>
<ellipse fill="#fdb462" stroke="black" cx="184" cy="-104" rx="85.11" ry="18"/>
<text text-anchor="middle" x="184" y="-99.8" font-family="Times,serif" font-size="14.00">StakingAPIService</text>
</g>
<!-- StakingAPIService&#45;&gt;StakingAPIModule -->
<g id="edge2" class="edge">
<title>StakingAPIService&#45;&gt;StakingAPIModule</title>
<path fill="none" stroke="black" d="M234.81,-118.75C234.81,-118.75 234.81,-140.59 234.81,-140.59"/>
<polygon fill="black" stroke="black" points="231.31,-140.59 234.81,-150.59 238.31,-140.59 231.31,-140.59"/>
</g>
</g>
</svg>
