<?xml version="1.0" encoding="UTF-8" standalone="no"?>
<!DOCTYPE svg PUBLIC "-//W3C//DTD SVG 1.1//EN"
 "http://www.w3.org/Graphics/SVG/1.1/DTD/svg11.dtd">
<!-- Generated by graphviz version 2.47.0 (20210316.0004)
 -->
<!-- Title: dependencies Pages: 1 -->
<svg width="1125pt" height="284pt"
 viewBox="0.00 0.00 1125.00 284.00" xmlns="http://www.w3.org/2000/svg" xmlns:xlink="http://www.w3.org/1999/xlink">
<g id="graph0" class="graph" transform="scale(1 1) rotate(0) translate(4 280)">
<title>dependencies</title>
<polygon fill="white" stroke="transparent" points="-4,4 -4,-280 1121,-280 1121,4 -4,4"/>
<text text-anchor="start" x="537.51" y="-42.4" font-family="Times-12" font-weight="bold" font-size="14.00">Legend</text>
<polygon fill="#ffffb3" stroke="transparent" points="324.5,-10 324.5,-30 344.5,-30 344.5,-10 324.5,-10"/>
<text text-anchor="start" x="348.13" y="-15.4" font-family="Times-12" font-size="14.00"> &#160;Declarations</text>
<polygon fill="#8dd3c7" stroke="transparent" points="437.5,-10 437.5,-30 457.5,-30 457.5,-10 437.5,-10"/>
<text text-anchor="start" x="461.23" y="-15.4" font-family="Times-12" font-size="14.00"> &#160;Module</text>
<polygon fill="#80b1d3" stroke="transparent" points="523.5,-10 523.5,-30 543.5,-30 543.5,-10 523.5,-10"/>
<text text-anchor="start" x="547.28" y="-15.4" font-family="Times-12" font-size="14.00"> &#160;Bootstrap</text>
<polygon fill="#fdb462" stroke="transparent" points="620.5,-10 620.5,-30 640.5,-30 640.5,-10 620.5,-10"/>
<text text-anchor="start" x="644.17" y="-15.4" font-family="Times-12" font-size="14.00"> &#160;Providers</text>
<polygon fill="#fb8072" stroke="transparent" points="716.5,-10 716.5,-30 736.5,-30 736.5,-10 716.5,-10"/>
<text text-anchor="start" x="740.23" y="-15.4" font-family="Times-12" font-size="14.00"> &#160;Exports</text>
<g id="clust1" class="cluster">
<title>cluster_EventsScannerModule</title>
<polygon fill="none" stroke="black" stroke-dasharray="1,5" points="8,-70 8,-268 1109,-268 1109,-70 8,-70"/>
</g>
<g id="clust6" class="cluster">
<title>cluster_EventsScannerModule_providers</title>
<polygon fill="none" stroke="black" points="433,-78 433,-130 1101,-130 1101,-78 433,-78"/>
</g>
<g id="clust4" class="cluster">
<title>cluster_EventsScannerModule_exports</title>
<polygon fill="none" stroke="black" points="381,-208 381,-260 541,-260 541,-208 381,-208"/>
</g>
<g id="clust3" class="cluster">
<title>cluster_EventsScannerModule_imports</title>
<polygon fill="none" stroke="black" points="16,-78 16,-130 425,-130 425,-78 16,-78"/>
</g>
<!-- BroadcasterModule -->
<g id="node1" class="node">
<title>BroadcasterModule</title>
<polygon fill="#8dd3c7" stroke="black" points="417.4,-122 414.4,-126 393.4,-126 390.4,-122 290.6,-122 290.6,-86 417.4,-86 417.4,-122"/>
<text text-anchor="middle" x="354" y="-99.8" font-family="Times,serif" font-size="14.00">BroadcasterModule</text>
</g>
<!-- EventsScannerModule -->
<g id="node4" class="node">
<title>EventsScannerModule</title>
<polygon fill="#8dd3c7" stroke="black" points="532.24,-187 529.24,-191 508.24,-191 505.24,-187 389.76,-187 389.76,-151 532.24,-151 532.24,-187"/>
<text text-anchor="middle" x="461" y="-164.8" font-family="Times,serif" font-size="14.00">EventsScannerModule</text>
</g>
<!-- BroadcasterModule&#45;&gt;EventsScannerModule -->
<g id="edge1" class="edge">
<title>BroadcasterModule&#45;&gt;EventsScannerModule</title>
<path fill="none" stroke="black" d="M403.42,-122.11C403.42,-122.11 403.42,-140.99 403.42,-140.99"/>
<polygon fill="black" stroke="black" points="399.92,-140.99 403.42,-150.99 406.92,-140.99 399.92,-140.99"/>
</g>
<!-- DatabaseModule -->
<g id="node2" class="node">
<title>DatabaseModule</title>
<polygon fill="#8dd3c7" stroke="black" points="272.35,-122 269.35,-126 248.35,-126 245.35,-122 161.65,-122 161.65,-86 272.35,-86 272.35,-122"/>
<text text-anchor="middle" x="217" y="-99.8" font-family="Times,serif" font-size="14.00">DatabaseModule</text>
</g>
<!-- DatabaseModule&#45;&gt;EventsScannerModule -->
<g id="edge2" class="edge">
<title>DatabaseModule&#45;&gt;EventsScannerModule</title>
<path fill="none" stroke="black" d="M217,-122.02C217,-139.37 217,-163 217,-163 217,-163 379.44,-163 379.44,-163"/>
<polygon fill="black" stroke="black" points="379.44,-166.5 389.44,-163 379.44,-159.5 379.44,-166.5"/>
</g>
<!-- WebhooksModule -->
<g id="node3" class="node">
<title>WebhooksModule</title>
<polygon fill="#8dd3c7" stroke="black" points="143.92,-122 140.92,-126 119.92,-126 116.92,-122 24.08,-122 24.08,-86 143.92,-86 143.92,-122"/>
<text text-anchor="middle" x="84" y="-99.8" font-family="Times,serif" font-size="14.00">WebhooksModule</text>
</g>
<!-- WebhooksModule&#45;&gt;EventsScannerModule -->
<g id="edge3" class="edge">
<title>WebhooksModule&#45;&gt;EventsScannerModule</title>
<path fill="none" stroke="black" d="M84,-122.28C84,-143.32 84,-175 84,-175 84,-175 379.65,-175 379.65,-175"/>
<polygon fill="black" stroke="black" points="379.65,-178.5 389.65,-175 379.65,-171.5 379.65,-178.5"/>
</g>
<!-- EventsScannerService  -->
<g id="node5" class="node">
<title>EventsScannerService </title>
<polygon fill="#fb8072" stroke="black" points="533.17,-252 388.83,-252 388.83,-216 533.17,-216 533.17,-252"/>
<text text-anchor="middle" x="461" y="-229.8" font-family="Times,serif" font-size="14.00">EventsScannerService </text>
</g>
<!-- EventsScannerModule&#45;&gt;EventsScannerService  -->
<g id="edge4" class="edge">
<title>EventsScannerModule&#45;&gt;EventsScannerService </title>
<path fill="none" stroke="black" stroke-dasharray="5,2" d="M461,-187.11C461,-187.11 461,-205.99 461,-205.99"/>
<polygon fill="black" stroke="black" points="457.5,-205.99 461,-215.99 464.5,-205.99 457.5,-205.99"/>
</g>
<!-- ERC20EventsScannerService -->
<g id="node6" class="node">
<title>ERC20EventsScannerService</title>
<ellipse fill="#fdb462" stroke="black" cx="967" cy="-104" rx="125.62" ry="18"/>
<text text-anchor="middle" x="967" y="-99.8" font-family="Times,serif" font-size="14.00">ERC20EventsScannerService</text>
</g>
<!-- ERC20EventsScannerService&#45;&gt;EventsScannerModule -->
<g id="edge5" class="edge">
<title>ERC20EventsScannerService&#45;&gt;EventsScannerModule</title>
<path fill="none" stroke="black" d="M967,-122.28C967,-143.32 967,-175 967,-175 967,-175 542.42,-175 542.42,-175"/>
<polygon fill="black" stroke="black" points="542.42,-171.5 532.42,-175 542.42,-178.5 542.42,-171.5"/>
</g>
<!-- GasService -->
<g id="node7" class="node">
<title>GasService</title>
<ellipse fill="#fdb462" stroke="black" cx="768" cy="-104" rx="55.01" ry="18"/>
<text text-anchor="middle" x="768" y="-99.8" font-family="Times,serif" font-size="14.00">GasService</text>
</g>
<!-- GasService&#45;&gt;EventsScannerModule -->
<g id="edge6" class="edge">
<title>GasService&#45;&gt;EventsScannerModule</title>
<path fill="none" stroke="black" d="M768,-122.02C768,-139.37 768,-163 768,-163 768,-163 542.59,-163 542.59,-163"/>
<polygon fill="black" stroke="black" points="542.59,-159.5 532.59,-163 542.59,-166.5 542.59,-159.5"/>
</g>
<!-- UserOpEventsScannerService -->
<g id="node8" class="node">
<title>UserOpEventsScannerService</title>
<ellipse fill="#fdb462" stroke="black" cx="568" cy="-104" rx="127.31" ry="18"/>
<text text-anchor="middle" x="568" y="-99.8" font-family="Times,serif" font-size="14.00">UserOpEventsScannerService</text>
</g>
<!-- UserOpEventsScannerService&#45;&gt;EventsScannerModule -->
<g id="edge7" class="edge">
<title>UserOpEventsScannerService&#45;&gt;EventsScannerModule</title>
<path fill="none" stroke="black" d="M486.48,-118.1C486.48,-118.1 486.48,-140.72 486.48,-140.72"/>
<polygon fill="black" stroke="black" points="482.98,-140.72 486.48,-150.72 489.98,-140.72 482.98,-140.72"/>
</g>
</g>
</svg>
