<?xml version="1.0" encoding="UTF-8" standalone="no"?>
<!DOCTYPE svg PUBLIC "-//W3C//DTD SVG 1.1//EN"
 "http://www.w3.org/Graphics/SVG/1.1/DTD/svg11.dtd">
<!-- Generated by graphviz version 2.47.0 (20210316.0004)
 -->
<!-- Title: dependencies Pages: 1 -->
<svg width="583pt" height="284pt"
 viewBox="0.00 0.00 583.00 284.00" xmlns="http://www.w3.org/2000/svg" xmlns:xlink="http://www.w3.org/1999/xlink">
<g id="graph0" class="graph" transform="scale(1 1) rotate(0) translate(4 280)">
<title>dependencies</title>
<polygon fill="white" stroke="transparent" points="-4,4 -4,-280 579,-280 579,4 -4,4"/>
<text text-anchor="start" x="266.51" y="-42.4" font-family="Times-12" font-weight="bold" font-size="14.00">Legend</text>
<polygon fill="#ffffb3" stroke="transparent" points="53.5,-10 53.5,-30 73.5,-30 73.5,-10 53.5,-10"/>
<text text-anchor="start" x="77.13" y="-15.4" font-family="Times-12" font-size="14.00"> &#160;Declarations</text>
<polygon fill="#8dd3c7" stroke="transparent" points="166.5,-10 166.5,-30 186.5,-30 186.5,-10 166.5,-10"/>
<text text-anchor="start" x="190.23" y="-15.4" font-family="Times-12" font-size="14.00"> &#160;Module</text>
<polygon fill="#80b1d3" stroke="transparent" points="252.5,-10 252.5,-30 272.5,-30 272.5,-10 252.5,-10"/>
<text text-anchor="start" x="276.28" y="-15.4" font-family="Times-12" font-size="14.00"> &#160;Bootstrap</text>
<polygon fill="#fdb462" stroke="transparent" points="349.5,-10 349.5,-30 369.5,-30 369.5,-10 349.5,-10"/>
<text text-anchor="start" x="373.17" y="-15.4" font-family="Times-12" font-size="14.00"> &#160;Providers</text>
<polygon fill="#fb8072" stroke="transparent" points="445.5,-10 445.5,-30 465.5,-30 465.5,-10 445.5,-10"/>
<text text-anchor="start" x="469.23" y="-15.4" font-family="Times-12" font-size="14.00"> &#160;Exports</text>
<g id="clust1" class="cluster">
<title>cluster_PaymasterModule</title>
<polygon fill="none" stroke="black" stroke-dasharray="1,5" points="8,-70 8,-268 567,-268 567,-70 8,-70"/>
</g>
<g id="clust3" class="cluster">
<title>cluster_PaymasterModule_imports</title>
<polygon fill="none" stroke="black" points="200,-78 200,-130 559,-130 559,-78 200,-78"/>
</g>
<g id="clust4" class="cluster">
<title>cluster_PaymasterModule_exports</title>
<polygon fill="none" stroke="black" points="244,-208 244,-260 380,-260 380,-208 244,-208"/>
</g>
<g id="clust6" class="cluster">
<title>cluster_PaymasterModule_providers</title>
<polygon fill="none" stroke="black" points="16,-78 16,-130 192,-130 192,-78 16,-78"/>
</g>
<!-- DatabaseModule -->
<g id="node1" class="node">
<title>DatabaseModule</title>
<polygon fill="#8dd3c7" stroke="black" points="551.35,-122 548.35,-126 527.35,-126 524.35,-122 440.65,-122 440.65,-86 551.35,-86 551.35,-122"/>
<text text-anchor="middle" x="496" y="-99.8" font-family="Times,serif" font-size="14.00">DatabaseModule</text>
</g>
<!-- PaymasterModule -->
<g id="node4" class="node">
<title>PaymasterModule</title>
<polygon fill="#8dd3c7" stroke="black" points="370.86,-187 367.86,-191 346.86,-191 343.86,-187 253.14,-187 253.14,-151 370.86,-151 370.86,-187"/>
<text text-anchor="middle" x="312" y="-164.8" font-family="Times,serif" font-size="14.00">PaymasterModule</text>
</g>
<!-- DatabaseModule&#45;&gt;PaymasterModule -->
<g id="edge1" class="edge">
<title>DatabaseModule&#45;&gt;PaymasterModule</title>
<path fill="none" stroke="black" d="M496,-122.11C496,-141.34 496,-169 496,-169 496,-169 380.98,-169 380.98,-169"/>
<polygon fill="black" stroke="black" points="380.98,-165.5 370.98,-169 380.98,-172.5 380.98,-165.5"/>
</g>
<!-- ProjectsModule -->
<g id="node2" class="node">
<title>ProjectsModule</title>
<polygon fill="#8dd3c7" stroke="black" points="422.15,-122 419.15,-126 398.15,-126 395.15,-122 317.85,-122 317.85,-86 422.15,-86 422.15,-122"/>
<text text-anchor="middle" x="370" y="-99.8" font-family="Times,serif" font-size="14.00">ProjectsModule</text>
</g>
<!-- ProjectsModule&#45;&gt;PaymasterModule -->
<g id="edge2" class="edge">
<title>ProjectsModule&#45;&gt;PaymasterModule</title>
<path fill="none" stroke="black" d="M344.3,-122.11C344.3,-122.11 344.3,-140.99 344.3,-140.99"/>
<polygon fill="black" stroke="black" points="340.8,-140.99 344.3,-150.99 347.8,-140.99 340.8,-140.99"/>
</g>
<!-- UsersModule -->
<g id="node3" class="node">
<title>UsersModule</title>
<polygon fill="#8dd3c7" stroke="black" points="299.92,-122 296.92,-126 275.92,-126 272.92,-122 208.08,-122 208.08,-86 299.92,-86 299.92,-122"/>
<text text-anchor="middle" x="254" y="-99.8" font-family="Times,serif" font-size="14.00">UsersModule</text>
</g>
<!-- UsersModule&#45;&gt;PaymasterModule -->
<g id="edge3" class="edge">
<title>UsersModule&#45;&gt;PaymasterModule</title>
<path fill="none" stroke="black" d="M276.39,-122.11C276.39,-122.11 276.39,-140.99 276.39,-140.99"/>
<polygon fill="black" stroke="black" points="272.89,-140.99 276.39,-150.99 279.89,-140.99 272.89,-140.99"/>
</g>
<!-- PaymasterService  -->
<g id="node5" class="node">
<title>PaymasterService </title>
<polygon fill="#fb8072" stroke="black" points="371.79,-252 252.21,-252 252.21,-216 371.79,-216 371.79,-252"/>
<text text-anchor="middle" x="312" y="-229.8" font-family="Times,serif" font-size="14.00">PaymasterService </text>
</g>
<!-- PaymasterModule&#45;&gt;PaymasterService  -->
<g id="edge4" class="edge">
<title>PaymasterModule&#45;&gt;PaymasterService </title>
<path fill="none" stroke="black" stroke-dasharray="5,2" d="M312,-187.11C312,-187.11 312,-205.99 312,-205.99"/>
<polygon fill="black" stroke="black" points="308.5,-205.99 312,-215.99 315.5,-205.99 308.5,-205.99"/>
</g>
<!-- PaymasterService -->
<g id="node6" class="node">
<title>PaymasterService</title>
<ellipse fill="#fdb462" stroke="black" cx="104" cy="-104" rx="80.43" ry="18"/>
<text text-anchor="middle" x="104" y="-99.8" font-family="Times,serif" font-size="14.00">PaymasterService</text>
</g>
<!-- PaymasterService&#45;&gt;PaymasterModule -->
<g id="edge5" class="edge">
<title>PaymasterService&#45;&gt;PaymasterModule</title>
<path fill="none" stroke="black" d="M104,-122.11C104,-141.34 104,-169 104,-169 104,-169 242.95,-169 242.95,-169"/>
<polygon fill="black" stroke="black" points="242.95,-172.5 252.95,-169 242.95,-165.5 242.95,-172.5"/>
</g>
</g>
</svg>
