<?xml version="1.0" encoding="UTF-8" standalone="no"?>
<!DOCTYPE svg PUBLIC "-//W3C//DTD SVG 1.1//EN"
 "http://www.w3.org/Graphics/SVG/1.1/DTD/svg11.dtd">
<!-- Generated by graphviz version 2.47.0 (20210316.0004)
 -->
<!-- Title: dependencies Pages: 1 -->
<svg width="583pt" height="284pt"
 viewBox="0.00 0.00 583.00 284.00" xmlns="http://www.w3.org/2000/svg" xmlns:xlink="http://www.w3.org/1999/xlink">
<g id="graph0" class="graph" transform="scale(1 1) rotate(0) translate(4 280)">
<title>dependencies</title>
<polygon fill="white" stroke="transparent" points="-4,4 -4,-280 579,-280 579,4 -4,4"/>
<text text-anchor="start" x="266.51" y="-42.4" font-family="Times-12" font-weight="bold" font-size="14.00">Legend</text>
<polygon fill="#ffffb3" stroke="transparent" points="53.5,-10 53.5,-30 73.5,-30 73.5,-10 53.5,-10"/>
<text text-anchor="start" x="77.13" y="-15.4" font-family="Times-12" font-size="14.00"> &#160;Declarations</text>
<polygon fill="#8dd3c7" stroke="transparent" points="166.5,-10 166.5,-30 186.5,-30 186.5,-10 166.5,-10"/>
<text text-anchor="start" x="190.23" y="-15.4" font-family="Times-12" font-size="14.00"> &#160;Module</text>
<polygon fill="#80b1d3" stroke="transparent" points="252.5,-10 252.5,-30 272.5,-30 272.5,-10 252.5,-10"/>
<text text-anchor="start" x="276.28" y="-15.4" font-family="Times-12" font-size="14.00"> &#160;Bootstrap</text>
<polygon fill="#fdb462" stroke="transparent" points="349.5,-10 349.5,-30 369.5,-30 369.5,-10 349.5,-10"/>
<text text-anchor="start" x="373.17" y="-15.4" font-family="Times-12" font-size="14.00"> &#160;Providers</text>
<polygon fill="#fb8072" stroke="transparent" points="445.5,-10 445.5,-30 465.5,-30 465.5,-10 445.5,-10"/>
<text text-anchor="start" x="469.23" y="-15.4" font-family="Times-12" font-size="14.00"> &#160;Exports</text>
<g id="clust1" class="cluster">
<title>cluster_PaymasterModule</title>
<polygon fill="none" stroke="black" stroke-dasharray="1,5" points="8,-70 8,-268 567,-268 567,-70 8,-70"/>
</g>
<g id="clust6" class="cluster">
<title>cluster_PaymasterModule_providers</title>
<polygon fill="none" stroke="black" points="383,-78 383,-130 559,-130 559,-78 383,-78"/>
</g>
<g id="clust4" class="cluster">
<title>cluster_PaymasterModule_exports</title>
<polygon fill="none" stroke="black" points="181,-208 181,-260 317,-260 317,-208 181,-208"/>
</g>
<g id="clust3" class="cluster">
<title>cluster_PaymasterModule_imports</title>
<polygon fill="none" stroke="black" points="16,-78 16,-130 375,-130 375,-78 16,-78"/>
</g>
<!-- DatabaseModule -->
<g id="node1" class="node">
<title>DatabaseModule</title>
<polygon fill="#8dd3c7" stroke="black" points="367.35,-122 364.35,-126 343.35,-126 340.35,-122 256.65,-122 256.65,-86 367.35,-86 367.35,-122"/>
<text text-anchor="middle" x="312" y="-99.8" font-family="Times,serif" font-size="14.00">DatabaseModule</text>
</g>
<!-- PaymasterModule -->
<g id="node4" class="node">
<title>PaymasterModule</title>
<polygon fill="#8dd3c7" stroke="black" points="307.86,-187 304.86,-191 283.86,-191 280.86,-187 190.14,-187 190.14,-151 307.86,-151 307.86,-187"/>
<text text-anchor="middle" x="249" y="-164.8" font-family="Times,serif" font-size="14.00">PaymasterModule</text>
</g>
<!-- DatabaseModule&#45;&gt;PaymasterModule -->
<g id="edge1" class="edge">
<title>DatabaseModule&#45;&gt;PaymasterModule</title>
<path fill="none" stroke="black" d="M282.25,-122.11C282.25,-122.11 282.25,-140.99 282.25,-140.99"/>
<polygon fill="black" stroke="black" points="278.75,-140.99 282.25,-150.99 285.75,-140.99 278.75,-140.99"/>
</g>
<!-- ProjectsModule -->
<g id="node2" class="node">
<title>ProjectsModule</title>
<polygon fill="#8dd3c7" stroke="black" points="238.15,-122 235.15,-126 214.15,-126 211.15,-122 133.85,-122 133.85,-86 238.15,-86 238.15,-122"/>
<text text-anchor="middle" x="186" y="-99.8" font-family="Times,serif" font-size="14.00">ProjectsModule</text>
</g>
<!-- ProjectsModule&#45;&gt;PaymasterModule -->
<g id="edge2" class="edge">
<title>ProjectsModule&#45;&gt;PaymasterModule</title>
<path fill="none" stroke="black" d="M214.2,-122.11C214.2,-122.11 214.2,-140.99 214.2,-140.99"/>
<polygon fill="black" stroke="black" points="210.7,-140.99 214.2,-150.99 217.7,-140.99 210.7,-140.99"/>
</g>
<!-- UsersModule -->
<g id="node3" class="node">
<title>UsersModule</title>
<polygon fill="#8dd3c7" stroke="black" points="115.92,-122 112.92,-126 91.92,-126 88.92,-122 24.08,-122 24.08,-86 115.92,-86 115.92,-122"/>
<text text-anchor="middle" x="70" y="-99.8" font-family="Times,serif" font-size="14.00">UsersModule</text>
</g>
<!-- UsersModule&#45;&gt;PaymasterModule -->
<g id="edge3" class="edge">
<title>UsersModule&#45;&gt;PaymasterModule</title>
<path fill="none" stroke="black" d="M70,-122.11C70,-141.34 70,-169 70,-169 70,-169 179.89,-169 179.89,-169"/>
<polygon fill="black" stroke="black" points="179.89,-172.5 189.89,-169 179.89,-165.5 179.89,-172.5"/>
</g>
<!-- PaymasterService  -->
<g id="node5" class="node">
<title>PaymasterService </title>
<polygon fill="#fb8072" stroke="black" points="308.79,-252 189.21,-252 189.21,-216 308.79,-216 308.79,-252"/>
<text text-anchor="middle" x="249" y="-229.8" font-family="Times,serif" font-size="14.00">PaymasterService </text>
</g>
<!-- PaymasterModule&#45;&gt;PaymasterService  -->
<g id="edge4" class="edge">
<title>PaymasterModule&#45;&gt;PaymasterService </title>
<path fill="none" stroke="black" stroke-dasharray="5,2" d="M249,-187.11C249,-187.11 249,-205.99 249,-205.99"/>
<polygon fill="black" stroke="black" points="245.5,-205.99 249,-215.99 252.5,-205.99 245.5,-205.99"/>
</g>
<!-- PaymasterService -->
<g id="node6" class="node">
<title>PaymasterService</title>
<ellipse fill="#fdb462" stroke="black" cx="471" cy="-104" rx="80.43" ry="18"/>
<text text-anchor="middle" x="471" y="-99.8" font-family="Times,serif" font-size="14.00">PaymasterService</text>
</g>
<!-- PaymasterService&#45;&gt;PaymasterModule -->
<g id="edge5" class="edge">
<title>PaymasterService&#45;&gt;PaymasterModule</title>
<path fill="none" stroke="black" d="M471,-122.11C471,-141.34 471,-169 471,-169 471,-169 317.91,-169 317.91,-169"/>
<polygon fill="black" stroke="black" points="317.91,-165.5 307.91,-169 317.91,-172.5 317.91,-165.5"/>
</g>
</g>
</svg>
