<?xml version="1.0" encoding="UTF-8" standalone="no"?>
<!DOCTYPE svg PUBLIC "-//W3C//DTD SVG 1.1//EN"
 "http://www.w3.org/Graphics/SVG/1.1/DTD/svg11.dtd">
<!-- Generated by graphviz version 2.47.0 (20210316.0004)
 -->
<!-- Title: dependencies Pages: 1 -->
<svg width="504pt" height="211pt"
 viewBox="0.00 0.00 504.00 211.00" xmlns="http://www.w3.org/2000/svg" xmlns:xlink="http://www.w3.org/1999/xlink">
<g id="graph0" class="graph" transform="scale(1 1) rotate(0) translate(4 207)">
<title>dependencies</title>
<polygon fill="white" stroke="transparent" points="-4,4 -4,-207 500,-207 500,4 -4,4"/>
<text text-anchor="start" x="227.01" y="-42.4" font-family="Times-12" font-weight="bold" font-size="14.00">Legend</text>
<polygon fill="#ffffb3" stroke="transparent" points="14,-10 14,-30 34,-30 34,-10 14,-10"/>
<text text-anchor="start" x="37.63" y="-15.4" font-family="Times-12" font-size="14.00"> &#160;Declarations</text>
<polygon fill="#8dd3c7" stroke="transparent" points="127,-10 127,-30 147,-30 147,-10 127,-10"/>
<text text-anchor="start" x="150.73" y="-15.4" font-family="Times-12" font-size="14.00"> &#160;Module</text>
<polygon fill="#80b1d3" stroke="transparent" points="213,-10 213,-30 233,-30 233,-10 213,-10"/>
<text text-anchor="start" x="236.78" y="-15.4" font-family="Times-12" font-size="14.00"> &#160;Bootstrap</text>
<polygon fill="#fdb462" stroke="transparent" points="310,-10 310,-30 330,-30 330,-10 310,-10"/>
<text text-anchor="start" x="333.67" y="-15.4" font-family="Times-12" font-size="14.00"> &#160;Providers</text>
<polygon fill="#fb8072" stroke="transparent" points="406,-10 406,-30 426,-30 426,-10 406,-10"/>
<text text-anchor="start" x="429.73" y="-15.4" font-family="Times-12" font-size="14.00"> &#160;Exports</text>
<g id="clust1" class="cluster">
<title>cluster_TradeApiModule</title>
<polygon fill="none" stroke="black" stroke-dasharray="1,5" points="91,-70 91,-195 405,-195 405,-70 91,-70"/>
</g>
<g id="clust6" class="cluster">
<title>cluster_TradeApiModule_providers</title>
<polygon fill="none" stroke="black" points="227,-78 227,-130 397,-130 397,-78 227,-78"/>
</g>
<g id="clust3" class="cluster">
<title>cluster_TradeApiModule_imports</title>
<polygon fill="none" stroke="black" points="99,-78 99,-130 219,-130 219,-78 99,-78"/>
</g>
<!-- ApiKeyModule -->
<g id="node1" class="node">
<title>ApiKeyModule</title>
<polygon fill="#8dd3c7" stroke="black" points="210.87,-122 207.87,-126 186.87,-126 183.87,-122 107.13,-122 107.13,-86 210.87,-86 210.87,-122"/>
<text text-anchor="middle" x="159" y="-99.8" font-family="Times,serif" font-size="14.00">ApiKeyModule</text>
</g>
<!-- TradeApiModule -->
<g id="node2" class="node">
<title>TradeApiModule</title>
<polygon fill="#8dd3c7" stroke="black" points="291.69,-187 288.69,-191 267.69,-191 264.69,-187 178.31,-187 178.31,-151 291.69,-151 291.69,-187"/>
<text text-anchor="middle" x="235" y="-164.8" font-family="Times,serif" font-size="14.00">TradeApiModule</text>
</g>
<!-- ApiKeyModule&#45;&gt;TradeApiModule -->
<g id="edge1" class="edge">
<title>ApiKeyModule&#45;&gt;TradeApiModule</title>
<path fill="none" stroke="black" d="M194.67,-122.11C194.67,-122.11 194.67,-140.99 194.67,-140.99"/>
<polygon fill="black" stroke="black" points="191.17,-140.99 194.67,-150.99 198.17,-140.99 191.17,-140.99"/>
</g>
<!-- TradeApiService -->
<g id="node3" class="node">
<title>TradeApiService</title>
<ellipse fill="#fdb462" stroke="black" cx="312" cy="-104" rx="76.98" ry="18"/>
<text text-anchor="middle" x="312" y="-99.8" font-family="Times,serif" font-size="14.00">TradeApiService</text>
</g>
<!-- TradeApiService&#45;&gt;TradeApiModule -->
<g id="edge2" class="edge">
<title>TradeApiService&#45;&gt;TradeApiModule</title>
<path fill="none" stroke="black" d="M263.3,-118.1C263.3,-118.1 263.3,-140.72 263.3,-140.72"/>
<polygon fill="black" stroke="black" points="259.8,-140.72 263.3,-150.72 266.8,-140.72 259.8,-140.72"/>
</g>
</g>
</svg>
