<?xml version="1.0" encoding="UTF-8" standalone="no"?>
<!DOCTYPE svg PUBLIC "-//W3C//DTD SVG 1.1//EN"
 "http://www.w3.org/Graphics/SVG/1.1/DTD/svg11.dtd">
<!-- Generated by graphviz version 2.47.0 (20210316.0004)
 -->
<!-- Title: dependencies Pages: 1 -->
<svg width="824pt" height="211pt"
 viewBox="0.00 0.00 824.00 211.00" xmlns="http://www.w3.org/2000/svg" xmlns:xlink="http://www.w3.org/1999/xlink">
<g id="graph0" class="graph" transform="scale(1 1) rotate(0) translate(4 207)">
<title>dependencies</title>
<polygon fill="white" stroke="transparent" points="-4,4 -4,-207 820,-207 820,4 -4,4"/>
<text text-anchor="start" x="387.01" y="-42.4" font-family="Times-12" font-weight="bold" font-size="14.00">Legend</text>
<polygon fill="#ffffb3" stroke="transparent" points="174,-10 174,-30 194,-30 194,-10 174,-10"/>
<text text-anchor="start" x="197.63" y="-15.4" font-family="Times-12" font-size="14.00"> &#160;Declarations</text>
<polygon fill="#8dd3c7" stroke="transparent" points="287,-10 287,-30 307,-30 307,-10 287,-10"/>
<text text-anchor="start" x="310.73" y="-15.4" font-family="Times-12" font-size="14.00"> &#160;Module</text>
<polygon fill="#80b1d3" stroke="transparent" points="373,-10 373,-30 393,-30 393,-10 373,-10"/>
<text text-anchor="start" x="396.78" y="-15.4" font-family="Times-12" font-size="14.00"> &#160;Bootstrap</text>
<polygon fill="#fdb462" stroke="transparent" points="470,-10 470,-30 490,-30 490,-10 470,-10"/>
<text text-anchor="start" x="493.67" y="-15.4" font-family="Times-12" font-size="14.00"> &#160;Providers</text>
<polygon fill="#fb8072" stroke="transparent" points="566,-10 566,-30 586,-30 586,-10 566,-10"/>
<text text-anchor="start" x="589.73" y="-15.4" font-family="Times-12" font-size="14.00"> &#160;Exports</text>
<g id="clust1" class="cluster">
<title>cluster_PaymentsModule</title>
<polygon fill="none" stroke="black" stroke-dasharray="1,5" points="8,-70 8,-195 808,-195 808,-70 8,-70"/>
</g>
<g id="clust3" class="cluster">
<title>cluster_PaymentsModule_imports</title>
<polygon fill="none" stroke="black" points="407,-78 407,-130 800,-130 800,-78 407,-78"/>
</g>
<g id="clust6" class="cluster">
<title>cluster_PaymentsModule_providers</title>
<polygon fill="none" stroke="black" points="16,-78 16,-130 399,-130 399,-78 16,-78"/>
</g>
<!-- ApiKeysModule -->
<g id="node1" class="node">
<title>ApiKeysModule</title>
<polygon fill="#8dd3c7" stroke="black" points="791.81,-122 788.81,-126 767.81,-126 764.81,-122 682.19,-122 682.19,-86 791.81,-86 791.81,-122"/>
<text text-anchor="middle" x="737" y="-99.8" font-family="Times,serif" font-size="14.00">ApiKeysModule</text>
</g>
<!-- PaymentsModule -->
<g id="node4" class="node">
<title>PaymentsModule</title>
<polygon fill="#8dd3c7" stroke="black" points="526.99,-187 523.99,-191 502.99,-191 499.99,-187 413.01,-187 413.01,-151 526.99,-151 526.99,-187"/>
<text text-anchor="middle" x="470" y="-164.8" font-family="Times,serif" font-size="14.00">PaymentsModule</text>
</g>
<!-- ApiKeysModule&#45;&gt;PaymentsModule -->
<g id="edge1" class="edge">
<title>ApiKeysModule&#45;&gt;PaymentsModule</title>
<path fill="none" stroke="black" d="M737,-122.28C737,-143.32 737,-175 737,-175 737,-175 537.28,-175 537.28,-175"/>
<polygon fill="black" stroke="black" points="537.28,-171.5 527.28,-175 537.28,-178.5 537.28,-171.5"/>
</g>
<!-- ChargeApiModule -->
<g id="node2" class="node">
<title>ChargeApiModule</title>
<polygon fill="#8dd3c7" stroke="black" points="664.47,-122 661.47,-126 640.47,-126 637.47,-122 543.53,-122 543.53,-86 664.47,-86 664.47,-122"/>
<text text-anchor="middle" x="604" y="-99.8" font-family="Times,serif" font-size="14.00">ChargeApiModule</text>
</g>
<!-- ChargeApiModule&#45;&gt;PaymentsModule -->
<g id="edge2" class="edge">
<title>ChargeApiModule&#45;&gt;PaymentsModule</title>
<path fill="none" stroke="black" d="M604,-122.02C604,-139.37 604,-163 604,-163 604,-163 537.22,-163 537.22,-163"/>
<polygon fill="black" stroke="black" points="537.22,-159.5 527.22,-163 537.22,-166.5 537.22,-159.5"/>
</g>
<!-- DatabaseModule -->
<g id="node3" class="node">
<title>DatabaseModule</title>
<polygon fill="#8dd3c7" stroke="black" points="525.35,-122 522.35,-126 501.35,-126 498.35,-122 414.65,-122 414.65,-86 525.35,-86 525.35,-122"/>
<text text-anchor="middle" x="470" y="-99.8" font-family="Times,serif" font-size="14.00">DatabaseModule</text>
</g>
<!-- DatabaseModule&#45;&gt;PaymentsModule -->
<g id="edge3" class="edge">
<title>DatabaseModule&#45;&gt;PaymentsModule</title>
<path fill="none" stroke="black" d="M470,-122.11C470,-122.11 470,-140.99 470,-140.99"/>
<polygon fill="black" stroke="black" points="466.5,-140.99 470,-150.99 473.5,-140.99 466.5,-140.99"/>
</g>
<!-- PaymentsService -->
<g id="node5" class="node">
<title>PaymentsService</title>
<ellipse fill="#fdb462" stroke="black" cx="313" cy="-104" rx="77.58" ry="18"/>
<text text-anchor="middle" x="313" y="-99.8" font-family="Times,serif" font-size="14.00">PaymentsService</text>
</g>
<!-- PaymentsService&#45;&gt;PaymentsModule -->
<g id="edge4" class="edge">
<title>PaymentsService&#45;&gt;PaymentsModule</title>
<path fill="none" stroke="black" d="M313,-122.02C313,-139.37 313,-163 313,-163 313,-163 402.88,-163 402.88,-163"/>
<polygon fill="black" stroke="black" points="402.88,-166.5 412.88,-163 402.88,-159.5 402.88,-166.5"/>
</g>
<!-- WebhookSendService -->
<g id="node6" class="node">
<title>WebhookSendService</title>
<ellipse fill="#fdb462" stroke="black" cx="121" cy="-104" rx="96.7" ry="18"/>
<text text-anchor="middle" x="121" y="-99.8" font-family="Times,serif" font-size="14.00">WebhookSendService</text>
</g>
<!-- WebhookSendService&#45;&gt;PaymentsModule -->
<g id="edge5" class="edge">
<title>WebhookSendService&#45;&gt;PaymentsModule</title>
<path fill="none" stroke="black" d="M121,-122.28C121,-143.32 121,-175 121,-175 121,-175 402.76,-175 402.76,-175"/>
<polygon fill="black" stroke="black" points="402.76,-178.5 412.76,-175 402.76,-171.5 402.76,-178.5"/>
</g>
</g>
</svg>
