<?xml version="1.0" encoding="UTF-8" standalone="no"?>
<!DOCTYPE svg PUBLIC "-//W3C//DTD SVG 1.1//EN"
 "http://www.w3.org/Graphics/SVG/1.1/DTD/svg11.dtd">
<!-- Generated by graphviz version 2.47.0 (20210316.0004)
 -->
<!-- Title: dependencies Pages: 1 -->
<svg width="824pt" height="211pt"
 viewBox="0.00 0.00 824.00 211.00" xmlns="http://www.w3.org/2000/svg" xmlns:xlink="http://www.w3.org/1999/xlink">
<g id="graph0" class="graph" transform="scale(1 1) rotate(0) translate(4 207)">
<title>dependencies</title>
<polygon fill="white" stroke="transparent" points="-4,4 -4,-207 820,-207 820,4 -4,4"/>
<text text-anchor="start" x="387.01" y="-42.4" font-family="Times-12" font-weight="bold" font-size="14.00">Legend</text>
<polygon fill="#ffffb3" stroke="transparent" points="174,-10 174,-30 194,-30 194,-10 174,-10"/>
<text text-anchor="start" x="197.63" y="-15.4" font-family="Times-12" font-size="14.00"> &#160;Declarations</text>
<polygon fill="#8dd3c7" stroke="transparent" points="287,-10 287,-30 307,-30 307,-10 287,-10"/>
<text text-anchor="start" x="310.73" y="-15.4" font-family="Times-12" font-size="14.00"> &#160;Module</text>
<polygon fill="#80b1d3" stroke="transparent" points="373,-10 373,-30 393,-30 393,-10 373,-10"/>
<text text-anchor="start" x="396.78" y="-15.4" font-family="Times-12" font-size="14.00"> &#160;Bootstrap</text>
<polygon fill="#fdb462" stroke="transparent" points="470,-10 470,-30 490,-30 490,-10 470,-10"/>
<text text-anchor="start" x="493.67" y="-15.4" font-family="Times-12" font-size="14.00"> &#160;Providers</text>
<polygon fill="#fb8072" stroke="transparent" points="566,-10 566,-30 586,-30 586,-10 566,-10"/>
<text text-anchor="start" x="589.73" y="-15.4" font-family="Times-12" font-size="14.00"> &#160;Exports</text>
<g id="clust1" class="cluster">
<title>cluster_PaymentsModule</title>
<polygon fill="none" stroke="black" stroke-dasharray="1,5" points="8,-70 8,-195 808,-195 808,-70 8,-70"/>
</g>
<g id="clust6" class="cluster">
<title>cluster_PaymentsModule_providers</title>
<polygon fill="none" stroke="black" points="417,-78 417,-130 800,-130 800,-78 417,-78"/>
</g>
<g id="clust3" class="cluster">
<title>cluster_PaymentsModule_imports</title>
<polygon fill="none" stroke="black" points="16,-78 16,-130 409,-130 409,-78 16,-78"/>
</g>
<!-- ApiKeysModule -->
<g id="node1" class="node">
<title>ApiKeysModule</title>
<polygon fill="#8dd3c7" stroke="black" points="400.81,-122 397.81,-126 376.81,-126 373.81,-122 291.19,-122 291.19,-86 400.81,-86 400.81,-122"/>
<text text-anchor="middle" x="346" y="-99.8" font-family="Times,serif" font-size="14.00">ApiKeysModule</text>
</g>
<!-- PaymentsModule -->
<g id="node4" class="node">
<title>PaymentsModule</title>
<polygon fill="#8dd3c7" stroke="black" points="402.99,-187 399.99,-191 378.99,-191 375.99,-187 289.01,-187 289.01,-151 402.99,-151 402.99,-187"/>
<text text-anchor="middle" x="346" y="-164.8" font-family="Times,serif" font-size="14.00">PaymentsModule</text>
</g>
<!-- ApiKeysModule&#45;&gt;PaymentsModule -->
<g id="edge1" class="edge">
<title>ApiKeysModule&#45;&gt;PaymentsModule</title>
<path fill="none" stroke="black" d="M346,-122.11C346,-122.11 346,-140.99 346,-140.99"/>
<polygon fill="black" stroke="black" points="342.5,-140.99 346,-150.99 349.5,-140.99 342.5,-140.99"/>
</g>
<!-- ChargeApiModule -->
<g id="node2" class="node">
<title>ChargeApiModule</title>
<polygon fill="#8dd3c7" stroke="black" points="273.47,-122 270.47,-126 249.47,-126 246.47,-122 152.53,-122 152.53,-86 273.47,-86 273.47,-122"/>
<text text-anchor="middle" x="213" y="-99.8" font-family="Times,serif" font-size="14.00">ChargeApiModule</text>
</g>
<!-- ChargeApiModule&#45;&gt;PaymentsModule -->
<g id="edge2" class="edge">
<title>ChargeApiModule&#45;&gt;PaymentsModule</title>
<path fill="none" stroke="black" d="M213,-122.02C213,-139.37 213,-163 213,-163 213,-163 278.82,-163 278.82,-163"/>
<polygon fill="black" stroke="black" points="278.82,-166.5 288.82,-163 278.82,-159.5 278.82,-166.5"/>
</g>
<!-- DatabaseModule -->
<g id="node3" class="node">
<title>DatabaseModule</title>
<polygon fill="#8dd3c7" stroke="black" points="134.35,-122 131.35,-126 110.35,-126 107.35,-122 23.65,-122 23.65,-86 134.35,-86 134.35,-122"/>
<text text-anchor="middle" x="79" y="-99.8" font-family="Times,serif" font-size="14.00">DatabaseModule</text>
</g>
<!-- DatabaseModule&#45;&gt;PaymentsModule -->
<g id="edge3" class="edge">
<title>DatabaseModule&#45;&gt;PaymentsModule</title>
<path fill="none" stroke="black" d="M79,-122.28C79,-143.32 79,-175 79,-175 79,-175 278.72,-175 278.72,-175"/>
<polygon fill="black" stroke="black" points="278.72,-178.5 288.72,-175 278.72,-171.5 278.72,-178.5"/>
</g>
<!-- PaymentsService -->
<g id="node5" class="node">
<title>PaymentsService</title>
<ellipse fill="#fdb462" stroke="black" cx="714" cy="-104" rx="77.58" ry="18"/>
<text text-anchor="middle" x="714" y="-99.8" font-family="Times,serif" font-size="14.00">PaymentsService</text>
</g>
<!-- PaymentsService&#45;&gt;PaymentsModule -->
<g id="edge4" class="edge">
<title>PaymentsService&#45;&gt;PaymentsModule</title>
<path fill="none" stroke="black" d="M714,-122.28C714,-143.32 714,-175 714,-175 714,-175 413.1,-175 413.1,-175"/>
<polygon fill="black" stroke="black" points="413.1,-171.5 403.1,-175 413.1,-178.5 413.1,-171.5"/>
</g>
<!-- WebhookSendService -->
<g id="node6" class="node">
<title>WebhookSendService</title>
<ellipse fill="#fdb462" stroke="black" cx="522" cy="-104" rx="96.7" ry="18"/>
<text text-anchor="middle" x="522" y="-99.8" font-family="Times,serif" font-size="14.00">WebhookSendService</text>
</g>
<!-- WebhookSendService&#45;&gt;PaymentsModule -->
<g id="edge5" class="edge">
<title>WebhookSendService&#45;&gt;PaymentsModule</title>
<path fill="none" stroke="black" d="M522,-122.02C522,-139.37 522,-163 522,-163 522,-163 413.14,-163 413.14,-163"/>
<polygon fill="black" stroke="black" points="413.14,-159.5 403.14,-163 413.14,-166.5 413.14,-159.5"/>
</g>
</g>
</svg>
