<?xml version="1.0" encoding="UTF-8" standalone="no"?>
<!DOCTYPE svg PUBLIC "-//W3C//DTD SVG 1.1//EN"
 "http://www.w3.org/Graphics/SVG/1.1/DTD/svg11.dtd">
<!-- Generated by graphviz version 2.47.0 (20210316.0004)
 -->
<!-- Title: dependencies Pages: 1 -->
<svg width="504pt" height="211pt"
 viewBox="0.00 0.00 504.00 211.00" xmlns="http://www.w3.org/2000/svg" xmlns:xlink="http://www.w3.org/1999/xlink">
<g id="graph0" class="graph" transform="scale(1 1) rotate(0) translate(4 207)">
<title>dependencies</title>
<polygon fill="white" stroke="transparent" points="-4,4 -4,-207 500,-207 500,4 -4,4"/>
<text text-anchor="start" x="227.01" y="-42.4" font-family="Times-12" font-weight="bold" font-size="14.00">Legend</text>
<polygon fill="#ffffb3" stroke="transparent" points="14,-10 14,-30 34,-30 34,-10 14,-10"/>
<text text-anchor="start" x="37.63" y="-15.4" font-family="Times-12" font-size="14.00"> &#160;Declarations</text>
<polygon fill="#8dd3c7" stroke="transparent" points="127,-10 127,-30 147,-30 147,-10 127,-10"/>
<text text-anchor="start" x="150.73" y="-15.4" font-family="Times-12" font-size="14.00"> &#160;Module</text>
<polygon fill="#80b1d3" stroke="transparent" points="213,-10 213,-30 233,-30 233,-10 213,-10"/>
<text text-anchor="start" x="236.78" y="-15.4" font-family="Times-12" font-size="14.00"> &#160;Bootstrap</text>
<polygon fill="#fdb462" stroke="transparent" points="310,-10 310,-30 330,-30 330,-10 310,-10"/>
<text text-anchor="start" x="333.67" y="-15.4" font-family="Times-12" font-size="14.00"> &#160;Providers</text>
<polygon fill="#fb8072" stroke="transparent" points="406,-10 406,-30 426,-30 426,-10 406,-10"/>
<text text-anchor="start" x="429.73" y="-15.4" font-family="Times-12" font-size="14.00"> &#160;Exports</text>
<g id="clust1" class="cluster">
<title>cluster_BundlerApiModule</title>
<polygon fill="none" stroke="black" stroke-dasharray="1,5" points="114,-70 114,-195 382,-195 382,-70 114,-70"/>
</g>
<g id="clust3" class="cluster">
<title>cluster_BundlerApiModule_imports</title>
<polygon fill="none" stroke="black" points="122,-78 122,-130 374,-130 374,-78 122,-78"/>
</g>
<!-- ApiKeyModule -->
<g id="node1" class="node">
<title>ApiKeyModule</title>
<polygon fill="#8dd3c7" stroke="black" points="365.87,-122 362.87,-126 341.87,-126 338.87,-122 262.13,-122 262.13,-86 365.87,-86 365.87,-122"/>
<text text-anchor="middle" x="314" y="-99.8" font-family="Times,serif" font-size="14.00">ApiKeyModule</text>
</g>
<!-- BundlerApiModule -->
<g id="node3" class="node">
<title>BundlerApiModule</title>
<polygon fill="#8dd3c7" stroke="black" points="311.65,-187 308.65,-191 287.65,-191 284.65,-187 186.35,-187 186.35,-151 311.65,-151 311.65,-187"/>
<text text-anchor="middle" x="249" y="-164.8" font-family="Times,serif" font-size="14.00">BundlerApiModule</text>
</g>
<!-- ApiKeyModule&#45;&gt;BundlerApiModule -->
<g id="edge1" class="edge">
<title>ApiKeyModule&#45;&gt;BundlerApiModule</title>
<path fill="none" stroke="black" d="M286.95,-122.11C286.95,-122.11 286.95,-140.99 286.95,-140.99"/>
<polygon fill="black" stroke="black" points="283.45,-140.99 286.95,-150.99 290.45,-140.99 283.45,-140.99"/>
</g>
<!-- OperatorsModule -->
<g id="node2" class="node">
<title>OperatorsModule</title>
<polygon fill="#8dd3c7" stroke="black" points="244.24,-122 241.24,-126 220.24,-126 217.24,-122 129.76,-122 129.76,-86 244.24,-86 244.24,-122"/>
<text text-anchor="middle" x="187" y="-99.8" font-family="Times,serif" font-size="14.00">OperatorsModule</text>
</g>
<!-- OperatorsModule&#45;&gt;BundlerApiModule -->
<g id="edge2" class="edge">
<title>OperatorsModule&#45;&gt;BundlerApiModule</title>
<path fill="none" stroke="black" d="M215.27,-122.11C215.27,-122.11 215.27,-140.99 215.27,-140.99"/>
<polygon fill="black" stroke="black" points="211.77,-140.99 215.27,-150.99 218.77,-140.99 211.77,-140.99"/>
</g>
</g>
</svg>
