<?xml version="1.0" encoding="UTF-8" standalone="no"?>
<!DOCTYPE svg PUBLIC "-//W3C//DTD SVG 1.1//EN"
 "http://www.w3.org/Graphics/SVG/1.1/DTD/svg11.dtd">
<!-- Generated by graphviz version 2.47.0 (20210316.0004)
 -->
<!-- Title: dependencies Pages: 1 -->
<svg width="712pt" height="284pt"
 viewBox="0.00 0.00 712.00 284.00" xmlns="http://www.w3.org/2000/svg" xmlns:xlink="http://www.w3.org/1999/xlink">
<g id="graph0" class="graph" transform="scale(1 1) rotate(0) translate(4 280)">
<title>dependencies</title>
<polygon fill="white" stroke="transparent" points="-4,4 -4,-280 708,-280 708,4 -4,4"/>
<text text-anchor="start" x="331.01" y="-42.4" font-family="Times-12" font-weight="bold" font-size="14.00">Legend</text>
<polygon fill="#ffffb3" stroke="transparent" points="118,-10 118,-30 138,-30 138,-10 118,-10"/>
<text text-anchor="start" x="141.63" y="-15.4" font-family="Times-12" font-size="14.00"> &#160;Declarations</text>
<polygon fill="#8dd3c7" stroke="transparent" points="231,-10 231,-30 251,-30 251,-10 231,-10"/>
<text text-anchor="start" x="254.73" y="-15.4" font-family="Times-12" font-size="14.00"> &#160;Module</text>
<polygon fill="#80b1d3" stroke="transparent" points="317,-10 317,-30 337,-30 337,-10 317,-10"/>
<text text-anchor="start" x="340.78" y="-15.4" font-family="Times-12" font-size="14.00"> &#160;Bootstrap</text>
<polygon fill="#fdb462" stroke="transparent" points="414,-10 414,-30 434,-30 434,-10 414,-10"/>
<text text-anchor="start" x="437.67" y="-15.4" font-family="Times-12" font-size="14.00"> &#160;Providers</text>
<polygon fill="#fb8072" stroke="transparent" points="510,-10 510,-30 530,-30 530,-10 510,-10"/>
<text text-anchor="start" x="533.73" y="-15.4" font-family="Times-12" font-size="14.00"> &#160;Exports</text>
<g id="clust1" class="cluster">
<title>cluster_BroadcasterModule</title>
<polygon fill="none" stroke="black" stroke-dasharray="1,5" points="8,-70 8,-268 696,-268 696,-70 8,-70"/>
</g>
<g id="clust3" class="cluster">
<title>cluster_BroadcasterModule_imports</title>
<polygon fill="none" stroke="black" points="424,-78 424,-130 688,-130 688,-78 424,-78"/>
</g>
<g id="clust4" class="cluster">
<title>cluster_BroadcasterModule_exports</title>
<polygon fill="none" stroke="black" points="335,-208 335,-260 479,-260 479,-208 335,-208"/>
</g>
<g id="clust6" class="cluster">
<title>cluster_BroadcasterModule_providers</title>
<polygon fill="none" stroke="black" points="16,-78 16,-130 416,-130 416,-78 16,-78"/>
</g>
<!-- DatabaseModule -->
<g id="node1" class="node">
<title>DatabaseModule</title>
<polygon fill="#8dd3c7" stroke="black" points="680.35,-122 677.35,-126 656.35,-126 653.35,-122 569.65,-122 569.65,-86 680.35,-86 680.35,-122"/>
<text text-anchor="middle" x="625" y="-99.8" font-family="Times,serif" font-size="14.00">DatabaseModule</text>
</g>
<!-- BroadcasterModule -->
<g id="node3" class="node">
<title>BroadcasterModule</title>
<polygon fill="#8dd3c7" stroke="black" points="470.4,-187 467.4,-191 446.4,-191 443.4,-187 343.6,-187 343.6,-151 470.4,-151 470.4,-187"/>
<text text-anchor="middle" x="407" y="-164.8" font-family="Times,serif" font-size="14.00">BroadcasterModule</text>
</g>
<!-- DatabaseModule&#45;&gt;BroadcasterModule -->
<g id="edge1" class="edge">
<title>DatabaseModule&#45;&gt;BroadcasterModule</title>
<path fill="none" stroke="black" d="M625,-122.11C625,-141.34 625,-169 625,-169 625,-169 480.35,-169 480.35,-169"/>
<polygon fill="black" stroke="black" points="480.35,-165.5 470.35,-169 480.35,-172.5 480.35,-165.5"/>
</g>
<!-- WebhooksModule -->
<g id="node2" class="node">
<title>WebhooksModule</title>
<polygon fill="#8dd3c7" stroke="black" points="551.92,-122 548.92,-126 527.92,-126 524.92,-122 432.08,-122 432.08,-86 551.92,-86 551.92,-122"/>
<text text-anchor="middle" x="492" y="-99.8" font-family="Times,serif" font-size="14.00">WebhooksModule</text>
</g>
<!-- WebhooksModule&#45;&gt;BroadcasterModule -->
<g id="edge2" class="edge">
<title>WebhooksModule&#45;&gt;BroadcasterModule</title>
<path fill="none" stroke="black" d="M451.24,-122.11C451.24,-122.11 451.24,-140.99 451.24,-140.99"/>
<polygon fill="black" stroke="black" points="447.74,-140.99 451.24,-150.99 454.74,-140.99 447.74,-140.99"/>
</g>
<!-- BroadcasterService  -->
<g id="node4" class="node">
<title>BroadcasterService </title>
<polygon fill="#fb8072" stroke="black" points="471.33,-252 342.67,-252 342.67,-216 471.33,-216 471.33,-252"/>
<text text-anchor="middle" x="407" y="-229.8" font-family="Times,serif" font-size="14.00">BroadcasterService </text>
</g>
<!-- BroadcasterModule&#45;&gt;BroadcasterService  -->
<g id="edge3" class="edge">
<title>BroadcasterModule&#45;&gt;BroadcasterService </title>
<path fill="none" stroke="black" stroke-dasharray="5,2" d="M407,-187.11C407,-187.11 407,-205.99 407,-205.99"/>
<polygon fill="black" stroke="black" points="403.5,-205.99 407,-215.99 410.5,-205.99 403.5,-205.99"/>
</g>
<!-- BroadcasterService -->
<g id="node5" class="node">
<title>BroadcasterService</title>
<ellipse fill="#fdb462" stroke="black" cx="322" cy="-104" rx="86.21" ry="18"/>
<text text-anchor="middle" x="322" y="-99.8" font-family="Times,serif" font-size="14.00">BroadcasterService</text>
</g>
<!-- BroadcasterService&#45;&gt;BroadcasterModule -->
<g id="edge4" class="edge">
<title>BroadcasterService&#45;&gt;BroadcasterModule</title>
<path fill="none" stroke="black" d="M375.95,-118.1C375.95,-118.1 375.95,-140.72 375.95,-140.72"/>
<polygon fill="black" stroke="black" points="372.45,-140.72 375.95,-150.72 379.45,-140.72 372.45,-140.72"/>
</g>
<!-- WebhookSendService -->
<g id="node6" class="node">
<title>WebhookSendService</title>
<ellipse fill="#fdb462" stroke="black" cx="121" cy="-104" rx="96.7" ry="18"/>
<text text-anchor="middle" x="121" y="-99.8" font-family="Times,serif" font-size="14.00">WebhookSendService</text>
</g>
<!-- WebhookSendService&#45;&gt;BroadcasterModule -->
<g id="edge5" class="edge">
<title>WebhookSendService&#45;&gt;BroadcasterModule</title>
<path fill="none" stroke="black" d="M121,-122.11C121,-141.34 121,-169 121,-169 121,-169 333.53,-169 333.53,-169"/>
<polygon fill="black" stroke="black" points="333.53,-172.5 343.53,-169 333.53,-165.5 333.53,-172.5"/>
</g>
</g>
</svg>
