<?xml version="1.0" encoding="UTF-8" standalone="no"?>
<!DOCTYPE svg PUBLIC "-//W3C//DTD SVG 1.1//EN"
 "http://www.w3.org/Graphics/SVG/1.1/DTD/svg11.dtd">
<!-- Generated by graphviz version 2.47.0 (20210316.0004)
 -->
<!-- Title: dependencies Pages: 1 -->
<svg width="712pt" height="284pt"
 viewBox="0.00 0.00 712.00 284.00" xmlns="http://www.w3.org/2000/svg" xmlns:xlink="http://www.w3.org/1999/xlink">
<g id="graph0" class="graph" transform="scale(1 1) rotate(0) translate(4 280)">
<title>dependencies</title>
<polygon fill="white" stroke="transparent" points="-4,4 -4,-280 708,-280 708,4 -4,4"/>
<text text-anchor="start" x="331.01" y="-42.4" font-family="Times-12" font-weight="bold" font-size="14.00">Legend</text>
<polygon fill="#ffffb3" stroke="transparent" points="118,-10 118,-30 138,-30 138,-10 118,-10"/>
<text text-anchor="start" x="141.63" y="-15.4" font-family="Times-12" font-size="14.00"> &#160;Declarations</text>
<polygon fill="#8dd3c7" stroke="transparent" points="231,-10 231,-30 251,-30 251,-10 231,-10"/>
<text text-anchor="start" x="254.73" y="-15.4" font-family="Times-12" font-size="14.00"> &#160;Module</text>
<polygon fill="#80b1d3" stroke="transparent" points="317,-10 317,-30 337,-30 337,-10 317,-10"/>
<text text-anchor="start" x="340.78" y="-15.4" font-family="Times-12" font-size="14.00"> &#160;Bootstrap</text>
<polygon fill="#fdb462" stroke="transparent" points="414,-10 414,-30 434,-30 434,-10 414,-10"/>
<text text-anchor="start" x="437.67" y="-15.4" font-family="Times-12" font-size="14.00"> &#160;Providers</text>
<polygon fill="#fb8072" stroke="transparent" points="510,-10 510,-30 530,-30 530,-10 510,-10"/>
<text text-anchor="start" x="533.73" y="-15.4" font-family="Times-12" font-size="14.00"> &#160;Exports</text>
<g id="clust1" class="cluster">
<title>cluster_BroadcasterModule</title>
<polygon fill="none" stroke="black" stroke-dasharray="1,5" points="8,-70 8,-268 696,-268 696,-70 8,-70"/>
</g>
<g id="clust6" class="cluster">
<title>cluster_BroadcasterModule_providers</title>
<polygon fill="none" stroke="black" points="288,-78 288,-130 688,-130 688,-78 288,-78"/>
</g>
<g id="clust3" class="cluster">
<title>cluster_BroadcasterModule_imports</title>
<polygon fill="none" stroke="black" points="16,-78 16,-130 280,-130 280,-78 16,-78"/>
</g>
<g id="clust4" class="cluster">
<title>cluster_BroadcasterModule_exports</title>
<polygon fill="none" stroke="black" points="233,-208 233,-260 377,-260 377,-208 233,-208"/>
</g>
<!-- DatabaseModule -->
<g id="node1" class="node">
<title>DatabaseModule</title>
<polygon fill="#8dd3c7" stroke="black" points="272.35,-122 269.35,-126 248.35,-126 245.35,-122 161.65,-122 161.65,-86 272.35,-86 272.35,-122"/>
<text text-anchor="middle" x="217" y="-99.8" font-family="Times,serif" font-size="14.00">DatabaseModule</text>
</g>
<!-- BroadcasterModule -->
<g id="node3" class="node">
<title>BroadcasterModule</title>
<polygon fill="#8dd3c7" stroke="black" points="368.4,-187 365.4,-191 344.4,-191 341.4,-187 241.6,-187 241.6,-151 368.4,-151 368.4,-187"/>
<text text-anchor="middle" x="305" y="-164.8" font-family="Times,serif" font-size="14.00">BroadcasterModule</text>
</g>
<!-- DatabaseModule&#45;&gt;BroadcasterModule -->
<g id="edge1" class="edge">
<title>DatabaseModule&#45;&gt;BroadcasterModule</title>
<path fill="none" stroke="black" d="M257.11,-122.11C257.11,-122.11 257.11,-140.99 257.11,-140.99"/>
<polygon fill="black" stroke="black" points="253.61,-140.99 257.11,-150.99 260.61,-140.99 253.61,-140.99"/>
</g>
<!-- WebhooksModule -->
<g id="node2" class="node">
<title>WebhooksModule</title>
<polygon fill="#8dd3c7" stroke="black" points="143.92,-122 140.92,-126 119.92,-126 116.92,-122 24.08,-122 24.08,-86 143.92,-86 143.92,-122"/>
<text text-anchor="middle" x="84" y="-99.8" font-family="Times,serif" font-size="14.00">WebhooksModule</text>
</g>
<!-- WebhooksModule&#45;&gt;BroadcasterModule -->
<g id="edge2" class="edge">
<title>WebhooksModule&#45;&gt;BroadcasterModule</title>
<path fill="none" stroke="black" d="M84,-122.11C84,-141.34 84,-169 84,-169 84,-169 231.67,-169 231.67,-169"/>
<polygon fill="black" stroke="black" points="231.67,-172.5 241.67,-169 231.67,-165.5 231.67,-172.5"/>
</g>
<!-- BroadcasterService  -->
<g id="node4" class="node">
<title>BroadcasterService </title>
<polygon fill="#fb8072" stroke="black" points="369.33,-252 240.67,-252 240.67,-216 369.33,-216 369.33,-252"/>
<text text-anchor="middle" x="305" y="-229.8" font-family="Times,serif" font-size="14.00">BroadcasterService </text>
</g>
<!-- BroadcasterModule&#45;&gt;BroadcasterService  -->
<g id="edge3" class="edge">
<title>BroadcasterModule&#45;&gt;BroadcasterService </title>
<path fill="none" stroke="black" stroke-dasharray="5,2" d="M305,-187.11C305,-187.11 305,-205.99 305,-205.99"/>
<polygon fill="black" stroke="black" points="301.5,-205.99 305,-215.99 308.5,-205.99 301.5,-205.99"/>
</g>
<!-- BroadcasterService -->
<g id="node5" class="node">
<title>BroadcasterService</title>
<ellipse fill="#fdb462" stroke="black" cx="594" cy="-104" rx="86.21" ry="18"/>
<text text-anchor="middle" x="594" y="-99.8" font-family="Times,serif" font-size="14.00">BroadcasterService</text>
</g>
<!-- BroadcasterService&#45;&gt;BroadcasterModule -->
<g id="edge4" class="edge">
<title>BroadcasterService&#45;&gt;BroadcasterModule</title>
<path fill="none" stroke="black" d="M594,-122.11C594,-141.34 594,-169 594,-169 594,-169 378.42,-169 378.42,-169"/>
<polygon fill="black" stroke="black" points="378.42,-165.5 368.42,-169 378.42,-172.5 378.42,-165.5"/>
</g>
<!-- WebhookSendService -->
<g id="node6" class="node">
<title>WebhookSendService</title>
<ellipse fill="#fdb462" stroke="black" cx="393" cy="-104" rx="96.7" ry="18"/>
<text text-anchor="middle" x="393" y="-99.8" font-family="Times,serif" font-size="14.00">WebhookSendService</text>
</g>
<!-- WebhookSendService&#45;&gt;BroadcasterModule -->
<g id="edge5" class="edge">
<title>WebhookSendService&#45;&gt;BroadcasterModule</title>
<path fill="none" stroke="black" d="M332.18,-118.1C332.18,-118.1 332.18,-140.72 332.18,-140.72"/>
<polygon fill="black" stroke="black" points="328.68,-140.72 332.18,-150.72 335.68,-140.72 328.68,-140.72"/>
</g>
</g>
</svg>
