<?xml version="1.0" encoding="UTF-8" standalone="no"?>
<!DOCTYPE svg PUBLIC "-//W3C//DTD SVG 1.1//EN"
 "http://www.w3.org/Graphics/SVG/1.1/DTD/svg11.dtd">
<!-- Generated by graphviz version 2.47.0 (20210316.0004)
 -->
<!-- Title: dependencies Pages: 1 -->
<svg width="874pt" height="211pt"
 viewBox="0.00 0.00 874.00 211.00" xmlns="http://www.w3.org/2000/svg" xmlns:xlink="http://www.w3.org/1999/xlink">
<g id="graph0" class="graph" transform="scale(1 1) rotate(0) translate(4 207)">
<title>dependencies</title>
<polygon fill="white" stroke="transparent" points="-4,4 -4,-207 870,-207 870,4 -4,4"/>
<text text-anchor="start" x="412.01" y="-42.4" font-family="Times-12" font-weight="bold" font-size="14.00">Legend</text>
<polygon fill="#ffffb3" stroke="transparent" points="199,-10 199,-30 219,-30 219,-10 199,-10"/>
<text text-anchor="start" x="222.63" y="-15.4" font-family="Times-12" font-size="14.00"> &#160;Declarations</text>
<polygon fill="#8dd3c7" stroke="transparent" points="312,-10 312,-30 332,-30 332,-10 312,-10"/>
<text text-anchor="start" x="335.73" y="-15.4" font-family="Times-12" font-size="14.00"> &#160;Module</text>
<polygon fill="#80b1d3" stroke="transparent" points="398,-10 398,-30 418,-30 418,-10 398,-10"/>
<text text-anchor="start" x="421.78" y="-15.4" font-family="Times-12" font-size="14.00"> &#160;Bootstrap</text>
<polygon fill="#fdb462" stroke="transparent" points="495,-10 495,-30 515,-30 515,-10 495,-10"/>
<text text-anchor="start" x="518.67" y="-15.4" font-family="Times-12" font-size="14.00"> &#160;Providers</text>
<polygon fill="#fb8072" stroke="transparent" points="591,-10 591,-30 611,-30 611,-10 591,-10"/>
<text text-anchor="start" x="614.73" y="-15.4" font-family="Times-12" font-size="14.00"> &#160;Exports</text>
<g id="clust1" class="cluster">
<title>cluster_BalancesModule</title>
<polygon fill="none" stroke="black" stroke-dasharray="1,5" points="8,-70 8,-195 858,-195 858,-70 8,-70"/>
</g>
<g id="clust6" class="cluster">
<title>cluster_BalancesModule_providers</title>
<polygon fill="none" stroke="black" points="16,-78 16,-130 850,-130 850,-78 16,-78"/>
</g>
<!-- BalancesService -->
<g id="node1" class="node">
<title>BalancesService</title>
<ellipse fill="#fdb462" stroke="black" cx="767" cy="-104" rx="74.69" ry="18"/>
<text text-anchor="middle" x="767" y="-99.8" font-family="Times,serif" font-size="14.00">BalancesService</text>
</g>
<!-- BalancesModule -->
<g id="node6" class="node">
<title>BalancesModule</title>
<polygon fill="#8dd3c7" stroke="black" points="486.08,-187 483.08,-191 462.08,-191 459.08,-187 375.92,-187 375.92,-151 486.08,-151 486.08,-187"/>
<text text-anchor="middle" x="431" y="-164.8" font-family="Times,serif" font-size="14.00">BalancesModule</text>
</g>
<!-- BalancesService&#45;&gt;BalancesModule -->
<g id="edge1" class="edge">
<title>BalancesService&#45;&gt;BalancesModule</title>
<path fill="none" stroke="black" d="M767,-122.28C767,-143.32 767,-175 767,-175 767,-175 496.11,-175 496.11,-175"/>
<polygon fill="black" stroke="black" points="496.11,-171.5 486.11,-175 496.11,-178.5 496.11,-171.5"/>
</g>
<!-- ExplorerService -->
<g id="node2" class="node">
<title>ExplorerService</title>
<ellipse fill="#fdb462" stroke="black" cx="600" cy="-104" rx="73.55" ry="18"/>
<text text-anchor="middle" x="600" y="-99.8" font-family="Times,serif" font-size="14.00">ExplorerService</text>
</g>
<!-- ExplorerService&#45;&gt;BalancesModule -->
<g id="edge2" class="edge">
<title>ExplorerService&#45;&gt;BalancesModule</title>
<path fill="none" stroke="black" d="M600,-122.02C600,-139.37 600,-163 600,-163 600,-163 496.34,-163 496.34,-163"/>
<polygon fill="black" stroke="black" points="496.34,-159.5 486.34,-163 496.34,-166.5 496.34,-159.5"/>
</g>
<!-- GraphQLService -->
<g id="node3" class="node">
<title>GraphQLService</title>
<ellipse fill="#fdb462" stroke="black" cx="431" cy="-104" rx="76.98" ry="18"/>
<text text-anchor="middle" x="431" y="-99.8" font-family="Times,serif" font-size="14.00">GraphQLService</text>
</g>
<!-- GraphQLService&#45;&gt;BalancesModule -->
<g id="edge3" class="edge">
<title>GraphQLService&#45;&gt;BalancesModule</title>
<path fill="none" stroke="black" d="M431,-122.11C431,-122.11 431,-140.99 431,-140.99"/>
<polygon fill="black" stroke="black" points="427.5,-140.99 431,-150.99 434.5,-140.99 427.5,-140.99"/>
</g>
<!-- TokenService -->
<g id="node4" class="node">
<title>TokenService</title>
<ellipse fill="#fdb462" stroke="black" cx="271" cy="-104" rx="64.83" ry="18"/>
<text text-anchor="middle" x="271" y="-99.8" font-family="Times,serif" font-size="14.00">TokenService</text>
</g>
<!-- TokenService&#45;&gt;BalancesModule -->
<g id="edge4" class="edge">
<title>TokenService&#45;&gt;BalancesModule</title>
<path fill="none" stroke="black" d="M271,-122.02C271,-139.37 271,-163 271,-163 271,-163 365.94,-163 365.94,-163"/>
<polygon fill="black" stroke="black" points="365.94,-166.5 375.94,-163 365.94,-159.5 365.94,-166.5"/>
</g>
<!-- UnmarshalService -->
<g id="node5" class="node">
<title>UnmarshalService</title>
<ellipse fill="#fdb462" stroke="black" cx="106" cy="-104" rx="82.22" ry="18"/>
<text text-anchor="middle" x="106" y="-99.8" font-family="Times,serif" font-size="14.00">UnmarshalService</text>
</g>
<!-- UnmarshalService&#45;&gt;BalancesModule -->
<g id="edge5" class="edge">
<title>UnmarshalService&#45;&gt;BalancesModule</title>
<path fill="none" stroke="black" d="M106,-122.28C106,-143.32 106,-175 106,-175 106,-175 365.87,-175 365.87,-175"/>
<polygon fill="black" stroke="black" points="365.87,-178.5 375.87,-175 365.87,-171.5 365.87,-178.5"/>
</g>
</g>
</svg>
