<?xml version="1.0" encoding="UTF-8" standalone="no"?>
<!DOCTYPE svg PUBLIC "-//W3C//DTD SVG 1.1//EN"
 "http://www.w3.org/Graphics/SVG/1.1/DTD/svg11.dtd">
<!-- Generated by graphviz version 2.47.0 (20210316.0004)
 -->
<!-- Title: dependencies Pages: 1 -->
<svg width="1078pt" height="284pt"
 viewBox="0.00 0.00 1078.00 284.00" xmlns="http://www.w3.org/2000/svg" xmlns:xlink="http://www.w3.org/1999/xlink">
<g id="graph0" class="graph" transform="scale(1 1) rotate(0) translate(4 280)">
<title>dependencies</title>
<polygon fill="white" stroke="transparent" points="-4,4 -4,-280 1074,-280 1074,4 -4,4"/>
<text text-anchor="start" x="514.01" y="-42.4" font-family="Times-12" font-weight="bold" font-size="14.00">Legend</text>
<polygon fill="#ffffb3" stroke="transparent" points="301,-10 301,-30 321,-30 321,-10 301,-10"/>
<text text-anchor="start" x="324.63" y="-15.4" font-family="Times-12" font-size="14.00"> &#160;Declarations</text>
<polygon fill="#8dd3c7" stroke="transparent" points="414,-10 414,-30 434,-30 434,-10 414,-10"/>
<text text-anchor="start" x="437.73" y="-15.4" font-family="Times-12" font-size="14.00"> &#160;Module</text>
<polygon fill="#80b1d3" stroke="transparent" points="500,-10 500,-30 520,-30 520,-10 500,-10"/>
<text text-anchor="start" x="523.78" y="-15.4" font-family="Times-12" font-size="14.00"> &#160;Bootstrap</text>
<polygon fill="#fdb462" stroke="transparent" points="597,-10 597,-30 617,-30 617,-10 597,-10"/>
<text text-anchor="start" x="620.67" y="-15.4" font-family="Times-12" font-size="14.00"> &#160;Providers</text>
<polygon fill="#fb8072" stroke="transparent" points="693,-10 693,-30 713,-30 713,-10 693,-10"/>
<text text-anchor="start" x="716.73" y="-15.4" font-family="Times-12" font-size="14.00"> &#160;Exports</text>
<g id="clust1" class="cluster">
<title>cluster_StakingModule</title>
<polygon fill="none" stroke="black" stroke-dasharray="1,5" points="8,-70 8,-268 1062,-268 1062,-70 8,-70"/>
</g>
<g id="clust3" class="cluster">
<title>cluster_StakingModule_imports</title>
<polygon fill="none" stroke="black" points="942,-78 942,-130 1054,-130 1054,-78 942,-78"/>
</g>
<g id="clust6" class="cluster">
<title>cluster_StakingModule_providers</title>
<polygon fill="none" stroke="black" points="16,-78 16,-130 934,-130 934,-78 16,-78"/>
</g>
<g id="clust4" class="cluster">
<title>cluster_StakingModule_exports</title>
<polygon fill="none" stroke="black" points="467,-208 467,-260 587,-260 587,-208 467,-208"/>
</g>
<!-- TokenModule -->
<g id="node1" class="node">
<title>TokenModule</title>
<polygon fill="#8dd3c7" stroke="black" points="1045.82,-122 1042.82,-126 1021.82,-126 1018.82,-122 950.18,-122 950.18,-86 1045.82,-86 1045.82,-122"/>
<text text-anchor="middle" x="998" y="-99.8" font-family="Times,serif" font-size="14.00">TokenModule</text>
</g>
<!-- StakingModule -->
<g id="node2" class="node">
<title>StakingModule</title>
<polygon fill="#8dd3c7" stroke="black" points="578.33,-187 575.33,-191 554.33,-191 551.33,-187 475.67,-187 475.67,-151 578.33,-151 578.33,-187"/>
<text text-anchor="middle" x="527" y="-164.8" font-family="Times,serif" font-size="14.00">StakingModule</text>
</g>
<!-- TokenModule&#45;&gt;StakingModule -->
<g id="edge1" class="edge">
<title>TokenModule&#45;&gt;StakingModule</title>
<path fill="none" stroke="black" d="M998,-122.28C998,-143.32 998,-175 998,-175 998,-175 588.3,-175 588.3,-175"/>
<polygon fill="black" stroke="black" points="588.3,-171.5 578.3,-175 588.3,-178.5 588.3,-171.5"/>
</g>
<!-- StakingService  -->
<g id="node3" class="node">
<title>StakingService </title>
<polygon fill="#fb8072" stroke="black" points="579.26,-252 474.74,-252 474.74,-216 579.26,-216 579.26,-252"/>
<text text-anchor="middle" x="527" y="-229.8" font-family="Times,serif" font-size="14.00">StakingService </text>
</g>
<!-- StakingModule&#45;&gt;StakingService  -->
<g id="edge2" class="edge">
<title>StakingModule&#45;&gt;StakingService </title>
<path fill="none" stroke="black" stroke-dasharray="5,2" d="M527,-187.11C527,-187.11 527,-205.99 527,-205.99"/>
<polygon fill="black" stroke="black" points="523.5,-205.99 527,-215.99 530.5,-205.99 523.5,-205.99"/>
</g>
<!-- FuseLiquidStakingService -->
<g id="node4" class="node">
<title>FuseLiquidStakingService</title>
<ellipse fill="#fdb462" stroke="black" cx="813" cy="-104" rx="113.48" ry="18"/>
<text text-anchor="middle" x="813" y="-99.8" font-family="Times,serif" font-size="14.00">FuseLiquidStakingService</text>
</g>
<!-- FuseLiquidStakingService&#45;&gt;StakingModule -->
<g id="edge3" class="edge">
<title>FuseLiquidStakingService&#45;&gt;StakingModule</title>
<path fill="none" stroke="black" d="M813,-122.02C813,-139.37 813,-163 813,-163 813,-163 588.46,-163 588.46,-163"/>
<polygon fill="black" stroke="black" points="588.46,-159.5 578.46,-163 588.46,-166.5 588.46,-159.5"/>
</g>
<!-- GraphService -->
<g id="node5" class="node">
<title>GraphService</title>
<ellipse fill="#fdb462" stroke="black" cx="617" cy="-104" rx="64.24" ry="18"/>
<text text-anchor="middle" x="617" y="-99.8" font-family="Times,serif" font-size="14.00">GraphService</text>
</g>
<!-- GraphService&#45;&gt;StakingModule -->
<g id="edge4" class="edge">
<title>GraphService&#45;&gt;StakingModule</title>
<path fill="none" stroke="black" d="M565.52,-114.73C565.52,-114.73 565.52,-140.87 565.52,-140.87"/>
<polygon fill="black" stroke="black" points="562.02,-140.87 565.52,-150.87 569.02,-140.87 562.02,-140.87"/>
</g>
<!-- SimpleStakingService -->
<g id="node6" class="node">
<title>SimpleStakingService</title>
<ellipse fill="#fdb462" stroke="black" cx="438" cy="-104" rx="96.73" ry="18"/>
<text text-anchor="middle" x="438" y="-99.8" font-family="Times,serif" font-size="14.00">SimpleStakingService</text>
</g>
<!-- SimpleStakingService&#45;&gt;StakingModule -->
<g id="edge5" class="edge">
<title>SimpleStakingService&#45;&gt;StakingModule</title>
<path fill="none" stroke="black" d="M505.35,-117.15C505.35,-117.15 505.35,-140.69 505.35,-140.69"/>
<polygon fill="black" stroke="black" points="501.85,-140.69 505.35,-150.69 508.85,-140.69 501.85,-140.69"/>
</g>
<!-- StakingService -->
<g id="node7" class="node">
<title>StakingService</title>
<ellipse fill="#fdb462" stroke="black" cx="254" cy="-104" rx="69.5" ry="18"/>
<text text-anchor="middle" x="254" y="-99.8" font-family="Times,serif" font-size="14.00">StakingService</text>
</g>
<!-- StakingService&#45;&gt;StakingModule -->
<g id="edge6" class="edge">
<title>StakingService&#45;&gt;StakingModule</title>
<path fill="none" stroke="black" d="M254,-122.02C254,-139.37 254,-163 254,-163 254,-163 465.65,-163 465.65,-163"/>
<polygon fill="black" stroke="black" points="465.65,-166.5 475.65,-163 465.65,-159.5 465.65,-166.5"/>
</g>
<!-- VoltBarService -->
<g id="node8" class="node">
<title>VoltBarService</title>
<ellipse fill="#fdb462" stroke="black" cx="95" cy="-104" rx="71.2" ry="18"/>
<text text-anchor="middle" x="95" y="-99.8" font-family="Times,serif" font-size="14.00">VoltBarService</text>
</g>
<!-- VoltBarService&#45;&gt;StakingModule -->
<g id="edge7" class="edge">
<title>VoltBarService&#45;&gt;StakingModule</title>
<path fill="none" stroke="black" d="M95,-122.28C95,-143.32 95,-175 95,-175 95,-175 465.75,-175 465.75,-175"/>
<polygon fill="black" stroke="black" points="465.75,-178.5 475.75,-175 465.75,-171.5 465.75,-178.5"/>
</g>
</g>
</svg>
