<?xml version="1.0" encoding="UTF-8" standalone="no"?>
<!DOCTYPE svg PUBLIC "-//W3C//DTD SVG 1.1//EN"
 "http://www.w3.org/Graphics/SVG/1.1/DTD/svg11.dtd">
<!-- Generated by graphviz version 2.47.0 (20210316.0004)
 -->
<!-- Title: dependencies Pages: 1 -->
<svg width="867pt" height="284pt"
 viewBox="0.00 0.00 867.00 284.00" xmlns="http://www.w3.org/2000/svg" xmlns:xlink="http://www.w3.org/1999/xlink">
<g id="graph0" class="graph" transform="scale(1 1) rotate(0) translate(4 280)">
<title>dependencies</title>
<polygon fill="white" stroke="transparent" points="-4,4 -4,-280 863,-280 863,4 -4,4"/>
<text text-anchor="start" x="408.51" y="-42.4" font-family="Times-12" font-weight="bold" font-size="14.00">Legend</text>
<polygon fill="#ffffb3" stroke="transparent" points="195.5,-10 195.5,-30 215.5,-30 215.5,-10 195.5,-10"/>
<text text-anchor="start" x="219.13" y="-15.4" font-family="Times-12" font-size="14.00"> &#160;Declarations</text>
<polygon fill="#8dd3c7" stroke="transparent" points="308.5,-10 308.5,-30 328.5,-30 328.5,-10 308.5,-10"/>
<text text-anchor="start" x="332.23" y="-15.4" font-family="Times-12" font-size="14.00"> &#160;Module</text>
<polygon fill="#80b1d3" stroke="transparent" points="394.5,-10 394.5,-30 414.5,-30 414.5,-10 394.5,-10"/>
<text text-anchor="start" x="418.28" y="-15.4" font-family="Times-12" font-size="14.00"> &#160;Bootstrap</text>
<polygon fill="#fdb462" stroke="transparent" points="491.5,-10 491.5,-30 511.5,-30 511.5,-10 491.5,-10"/>
<text text-anchor="start" x="515.17" y="-15.4" font-family="Times-12" font-size="14.00"> &#160;Providers</text>
<polygon fill="#fb8072" stroke="transparent" points="587.5,-10 587.5,-30 607.5,-30 607.5,-10 587.5,-10"/>
<text text-anchor="start" x="611.23" y="-15.4" font-family="Times-12" font-size="14.00"> &#160;Exports</text>
<g id="clust1" class="cluster">
<title>cluster_StakingModule</title>
<polygon fill="none" stroke="black" stroke-dasharray="1,5" points="8,-70 8,-268 851,-268 851,-70 8,-70"/>
</g>
<g id="clust3" class="cluster">
<title>cluster_StakingModule_imports</title>
<polygon fill="none" stroke="black" points="731,-78 731,-130 843,-130 843,-78 731,-78"/>
</g>
<g id="clust4" class="cluster">
<title>cluster_StakingModule_exports</title>
<polygon fill="none" stroke="black" points="346,-208 346,-260 466,-260 466,-208 346,-208"/>
</g>
<g id="clust6" class="cluster">
<title>cluster_StakingModule_providers</title>
<polygon fill="none" stroke="black" points="16,-78 16,-130 723,-130 723,-78 16,-78"/>
</g>
<!-- TokenModule -->
<g id="node1" class="node">
<title>TokenModule</title>
<polygon fill="#8dd3c7" stroke="black" points="834.82,-122 831.82,-126 810.82,-126 807.82,-122 739.18,-122 739.18,-86 834.82,-86 834.82,-122"/>
<text text-anchor="middle" x="787" y="-99.8" font-family="Times,serif" font-size="14.00">TokenModule</text>
</g>
<!-- StakingModule -->
<g id="node2" class="node">
<title>StakingModule</title>
<polygon fill="#8dd3c7" stroke="black" points="457.33,-187 454.33,-191 433.33,-191 430.33,-187 354.67,-187 354.67,-151 457.33,-151 457.33,-187"/>
<text text-anchor="middle" x="406" y="-164.8" font-family="Times,serif" font-size="14.00">StakingModule</text>
</g>
<!-- TokenModule&#45;&gt;StakingModule -->
<g id="edge1" class="edge">
<title>TokenModule&#45;&gt;StakingModule</title>
<path fill="none" stroke="black" d="M787,-122.28C787,-143.32 787,-175 787,-175 787,-175 467.38,-175 467.38,-175"/>
<polygon fill="black" stroke="black" points="467.38,-171.5 457.38,-175 467.38,-178.5 467.38,-171.5"/>
</g>
<!-- StakingService  -->
<g id="node3" class="node">
<title>StakingService </title>
<polygon fill="#fb8072" stroke="black" points="458.26,-252 353.74,-252 353.74,-216 458.26,-216 458.26,-252"/>
<text text-anchor="middle" x="406" y="-229.8" font-family="Times,serif" font-size="14.00">StakingService </text>
</g>
<!-- StakingModule&#45;&gt;StakingService  -->
<g id="edge2" class="edge">
<title>StakingModule&#45;&gt;StakingService </title>
<path fill="none" stroke="black" stroke-dasharray="5,2" d="M406,-187.11C406,-187.11 406,-205.99 406,-205.99"/>
<polygon fill="black" stroke="black" points="402.5,-205.99 406,-215.99 409.5,-205.99 402.5,-205.99"/>
</g>
<!-- FuseLiquidStakingService -->
<g id="node4" class="node">
<title>FuseLiquidStakingService</title>
<ellipse fill="#fdb462" stroke="black" cx="602" cy="-104" rx="113.48" ry="18"/>
<text text-anchor="middle" x="602" y="-99.8" font-family="Times,serif" font-size="14.00">FuseLiquidStakingService</text>
</g>
<!-- FuseLiquidStakingService&#45;&gt;StakingModule -->
<g id="edge3" class="edge">
<title>FuseLiquidStakingService&#45;&gt;StakingModule</title>
<path fill="none" stroke="black" d="M602,-122.02C602,-139.37 602,-163 602,-163 602,-163 467.24,-163 467.24,-163"/>
<polygon fill="black" stroke="black" points="467.24,-159.5 457.24,-163 467.24,-166.5 467.24,-159.5"/>
</g>
<!-- GraphService -->
<g id="node5" class="node">
<title>GraphService</title>
<ellipse fill="#fdb462" stroke="black" cx="406" cy="-104" rx="64.24" ry="18"/>
<text text-anchor="middle" x="406" y="-99.8" font-family="Times,serif" font-size="14.00">GraphService</text>
</g>
<!-- GraphService&#45;&gt;StakingModule -->
<g id="edge4" class="edge">
<title>GraphService&#45;&gt;StakingModule</title>
<path fill="none" stroke="black" d="M406,-122.11C406,-122.11 406,-140.99 406,-140.99"/>
<polygon fill="black" stroke="black" points="402.5,-140.99 406,-150.99 409.5,-140.99 402.5,-140.99"/>
</g>
<!-- StakingService -->
<g id="node6" class="node">
<title>StakingService</title>
<ellipse fill="#fdb462" stroke="black" cx="254" cy="-104" rx="69.5" ry="18"/>
<text text-anchor="middle" x="254" y="-99.8" font-family="Times,serif" font-size="14.00">StakingService</text>
</g>
<!-- StakingService&#45;&gt;StakingModule -->
<g id="edge5" class="edge">
<title>StakingService&#45;&gt;StakingModule</title>
<path fill="none" stroke="black" d="M254,-122.02C254,-139.37 254,-163 254,-163 254,-163 344.54,-163 344.54,-163"/>
<polygon fill="black" stroke="black" points="344.54,-166.5 354.54,-163 344.54,-159.5 344.54,-166.5"/>
</g>
<!-- VoltBarService -->
<g id="node7" class="node">
<title>VoltBarService</title>
<ellipse fill="#fdb462" stroke="black" cx="95" cy="-104" rx="71.2" ry="18"/>
<text text-anchor="middle" x="95" y="-99.8" font-family="Times,serif" font-size="14.00">VoltBarService</text>
</g>
<!-- VoltBarService&#45;&gt;StakingModule -->
<g id="edge6" class="edge">
<title>VoltBarService&#45;&gt;StakingModule</title>
<path fill="none" stroke="black" d="M95,-122.28C95,-143.32 95,-175 95,-175 95,-175 344.64,-175 344.64,-175"/>
<polygon fill="black" stroke="black" points="344.64,-178.5 354.64,-175 344.64,-171.5 344.64,-178.5"/>
</g>
</g>
</svg>
