<?xml version="1.0" encoding="UTF-8" standalone="no"?>
<!DOCTYPE svg PUBLIC "-//W3C//DTD SVG 1.1//EN"
 "http://www.w3.org/Graphics/SVG/1.1/DTD/svg11.dtd">
<!-- Generated by graphviz version 2.47.0 (20210316.0004)
 -->
<!-- Title: dependencies Pages: 1 -->
<svg width="890pt" height="284pt"
 viewBox="0.00 0.00 890.00 284.00" xmlns="http://www.w3.org/2000/svg" xmlns:xlink="http://www.w3.org/1999/xlink">
<g id="graph0" class="graph" transform="scale(1 1) rotate(0) translate(4 280)">
<title>dependencies</title>
<polygon fill="white" stroke="transparent" points="-4,4 -4,-280 886,-280 886,4 -4,4"/>
<text text-anchor="start" x="420.01" y="-42.4" font-family="Times-12" font-weight="bold" font-size="14.00">Legend</text>
<polygon fill="#ffffb3" stroke="transparent" points="207,-10 207,-30 227,-30 227,-10 207,-10"/>
<text text-anchor="start" x="230.63" y="-15.4" font-family="Times-12" font-size="14.00"> &#160;Declarations</text>
<polygon fill="#8dd3c7" stroke="transparent" points="320,-10 320,-30 340,-30 340,-10 320,-10"/>
<text text-anchor="start" x="343.73" y="-15.4" font-family="Times-12" font-size="14.00"> &#160;Module</text>
<polygon fill="#80b1d3" stroke="transparent" points="406,-10 406,-30 426,-30 426,-10 406,-10"/>
<text text-anchor="start" x="429.78" y="-15.4" font-family="Times-12" font-size="14.00"> &#160;Bootstrap</text>
<polygon fill="#fdb462" stroke="transparent" points="503,-10 503,-30 523,-30 523,-10 503,-10"/>
<text text-anchor="start" x="526.67" y="-15.4" font-family="Times-12" font-size="14.00"> &#160;Providers</text>
<polygon fill="#fb8072" stroke="transparent" points="599,-10 599,-30 619,-30 619,-10 599,-10"/>
<text text-anchor="start" x="622.73" y="-15.4" font-family="Times-12" font-size="14.00"> &#160;Exports</text>
<g id="clust1" class="cluster">
<title>cluster_StakingModule</title>
<polygon fill="none" stroke="black" stroke-dasharray="1,5" points="8,-70 8,-268 874,-268 874,-70 8,-70"/>
</g>
<g id="clust4" class="cluster">
<title>cluster_StakingModule_exports</title>
<polygon fill="none" stroke="black" points="337,-208 337,-260 457,-260 457,-208 337,-208"/>
</g>
<g id="clust6" class="cluster">
<title>cluster_StakingModule_providers</title>
<polygon fill="none" stroke="black" points="16,-78 16,-130 866,-130 866,-78 16,-78"/>
</g>
<!-- StakingService  -->
<g id="node1" class="node">
<title>StakingService </title>
<polygon fill="#fb8072" stroke="black" points="449.26,-252 344.74,-252 344.74,-216 449.26,-216 449.26,-252"/>
<text text-anchor="middle" x="397" y="-229.8" font-family="Times,serif" font-size="14.00">StakingService </text>
</g>
<!-- StakingModule -->
<g id="node2" class="node">
<title>StakingModule</title>
<polygon fill="#8dd3c7" stroke="black" points="448.33,-187 445.33,-191 424.33,-191 421.33,-187 345.67,-187 345.67,-151 448.33,-151 448.33,-187"/>
<text text-anchor="middle" x="397" y="-164.8" font-family="Times,serif" font-size="14.00">StakingModule</text>
</g>
<!-- StakingModule&#45;&gt;StakingService  -->
<g id="edge1" class="edge">
<title>StakingModule&#45;&gt;StakingService </title>
<path fill="none" stroke="black" stroke-dasharray="5,2" d="M397,-187.11C397,-187.11 397,-205.99 397,-205.99"/>
<polygon fill="black" stroke="black" points="393.5,-205.99 397,-215.99 400.5,-205.99 393.5,-205.99"/>
</g>
<!-- FuseLiquidStakingService -->
<g id="node3" class="node">
<title>FuseLiquidStakingService</title>
<ellipse fill="#fdb462" stroke="black" cx="745" cy="-104" rx="113.48" ry="18"/>
<text text-anchor="middle" x="745" y="-99.8" font-family="Times,serif" font-size="14.00">FuseLiquidStakingService</text>
</g>
<!-- FuseLiquidStakingService&#45;&gt;StakingModule -->
<g id="edge2" class="edge">
<title>FuseLiquidStakingService&#45;&gt;StakingModule</title>
<path fill="none" stroke="black" d="M745,-122.28C745,-143.32 745,-175 745,-175 745,-175 458.35,-175 458.35,-175"/>
<polygon fill="black" stroke="black" points="458.35,-171.5 448.35,-175 458.35,-178.5 458.35,-171.5"/>
</g>
<!-- GraphService -->
<g id="node4" class="node">
<title>GraphService</title>
<ellipse fill="#fdb462" stroke="black" cx="549" cy="-104" rx="64.24" ry="18"/>
<text text-anchor="middle" x="549" y="-99.8" font-family="Times,serif" font-size="14.00">GraphService</text>
</g>
<!-- GraphService&#45;&gt;StakingModule -->
<g id="edge3" class="edge">
<title>GraphService&#45;&gt;StakingModule</title>
<path fill="none" stroke="black" d="M549,-122.02C549,-139.37 549,-163 549,-163 549,-163 458.46,-163 458.46,-163"/>
<polygon fill="black" stroke="black" points="458.46,-159.5 448.46,-163 458.46,-166.5 458.46,-159.5"/>
</g>
<!-- StakingService -->
<g id="node5" class="node">
<title>StakingService</title>
<ellipse fill="#fdb462" stroke="black" cx="397" cy="-104" rx="69.5" ry="18"/>
<text text-anchor="middle" x="397" y="-99.8" font-family="Times,serif" font-size="14.00">StakingService</text>
</g>
<!-- StakingService&#45;&gt;StakingModule -->
<g id="edge4" class="edge">
<title>StakingService&#45;&gt;StakingModule</title>
<path fill="none" stroke="black" d="M397,-122.11C397,-122.11 397,-140.99 397,-140.99"/>
<polygon fill="black" stroke="black" points="393.5,-140.99 397,-150.99 400.5,-140.99 393.5,-140.99"/>
</g>
<!-- TradeService -->
<g id="node6" class="node">
<title>TradeService</title>
<ellipse fill="#fdb462" stroke="black" cx="247" cy="-104" rx="62.52" ry="18"/>
<text text-anchor="middle" x="247" y="-99.8" font-family="Times,serif" font-size="14.00">TradeService</text>
</g>
<!-- TradeService&#45;&gt;StakingModule -->
<g id="edge5" class="edge">
<title>TradeService&#45;&gt;StakingModule</title>
<path fill="none" stroke="black" d="M247,-122.02C247,-139.37 247,-163 247,-163 247,-163 335.8,-163 335.8,-163"/>
<polygon fill="black" stroke="black" points="335.8,-166.5 345.8,-163 335.8,-159.5 335.8,-166.5"/>
</g>
<!-- VoltBarService -->
<g id="node7" class="node">
<title>VoltBarService</title>
<ellipse fill="#fdb462" stroke="black" cx="95" cy="-104" rx="71.2" ry="18"/>
<text text-anchor="middle" x="95" y="-99.8" font-family="Times,serif" font-size="14.00">VoltBarService</text>
</g>
<!-- VoltBarService&#45;&gt;StakingModule -->
<g id="edge6" class="edge">
<title>VoltBarService&#45;&gt;StakingModule</title>
<path fill="none" stroke="black" d="M95,-122.28C95,-143.32 95,-175 95,-175 95,-175 335.77,-175 335.77,-175"/>
<polygon fill="black" stroke="black" points="335.77,-178.5 345.77,-175 335.77,-171.5 335.77,-178.5"/>
</g>
</g>
</svg>
