<?xml version="1.0" encoding="UTF-8" standalone="no"?>
<!DOCTYPE svg PUBLIC "-//W3C//DTD SVG 1.1//EN"
 "http://www.w3.org/Graphics/SVG/1.1/DTD/svg11.dtd">
<!-- Generated by graphviz version 2.47.0 (20210316.0004)
 -->
<!-- Title: dependencies Pages: 1 -->
<svg width="504pt" height="211pt"
 viewBox="0.00 0.00 504.00 211.00" xmlns="http://www.w3.org/2000/svg" xmlns:xlink="http://www.w3.org/1999/xlink">
<g id="graph0" class="graph" transform="scale(1 1) rotate(0) translate(4 207)">
<title>dependencies</title>
<polygon fill="white" stroke="transparent" points="-4,4 -4,-207 500,-207 500,4 -4,4"/>
<text text-anchor="start" x="227.01" y="-42.4" font-family="Times-12" font-weight="bold" font-size="14.00">Legend</text>
<polygon fill="#ffffb3" stroke="transparent" points="14,-10 14,-30 34,-30 34,-10 14,-10"/>
<text text-anchor="start" x="37.63" y="-15.4" font-family="Times-12" font-size="14.00"> &#160;Declarations</text>
<polygon fill="#8dd3c7" stroke="transparent" points="127,-10 127,-30 147,-30 147,-10 127,-10"/>
<text text-anchor="start" x="150.73" y="-15.4" font-family="Times-12" font-size="14.00"> &#160;Module</text>
<polygon fill="#80b1d3" stroke="transparent" points="213,-10 213,-30 233,-30 233,-10 213,-10"/>
<text text-anchor="start" x="236.78" y="-15.4" font-family="Times-12" font-size="14.00"> &#160;Bootstrap</text>
<polygon fill="#fdb462" stroke="transparent" points="310,-10 310,-30 330,-30 330,-10 310,-10"/>
<text text-anchor="start" x="333.67" y="-15.4" font-family="Times-12" font-size="14.00"> &#160;Providers</text>
<polygon fill="#fb8072" stroke="transparent" points="406,-10 406,-30 426,-30 426,-10 406,-10"/>
<text text-anchor="start" x="429.73" y="-15.4" font-family="Times-12" font-size="14.00"> &#160;Exports</text>
<g id="clust1" class="cluster">
<title>cluster_GraphqlAPIModule</title>
<polygon fill="none" stroke="black" stroke-dasharray="1,5" points="81,-70 81,-195 415,-195 415,-70 81,-70"/>
</g>
<g id="clust6" class="cluster">
<title>cluster_GraphqlAPIModule_providers</title>
<polygon fill="none" stroke="black" points="217,-78 217,-130 407,-130 407,-78 217,-78"/>
</g>
<g id="clust3" class="cluster">
<title>cluster_GraphqlAPIModule_imports</title>
<polygon fill="none" stroke="black" points="89,-78 89,-130 209,-130 209,-78 89,-78"/>
</g>
<!-- ApiKeyModule -->
<g id="node1" class="node">
<title>ApiKeyModule</title>
<polygon fill="#8dd3c7" stroke="black" points="200.87,-122 197.87,-126 176.87,-126 173.87,-122 97.13,-122 97.13,-86 200.87,-86 200.87,-122"/>
<text text-anchor="middle" x="149" y="-99.8" font-family="Times,serif" font-size="14.00">ApiKeyModule</text>
</g>
<!-- GraphqlAPIModule -->
<g id="node2" class="node">
<title>GraphqlAPIModule</title>
<polygon fill="#8dd3c7" stroke="black" points="295.97,-187 292.97,-191 271.97,-191 268.97,-187 168.03,-187 168.03,-151 295.97,-151 295.97,-187"/>
<text text-anchor="middle" x="232" y="-164.8" font-family="Times,serif" font-size="14.00">GraphqlAPIModule</text>
</g>
<!-- ApiKeyModule&#45;&gt;GraphqlAPIModule -->
<g id="edge1" class="edge">
<title>ApiKeyModule&#45;&gt;GraphqlAPIModule</title>
<path fill="none" stroke="black" d="M184.47,-122.11C184.47,-122.11 184.47,-140.99 184.47,-140.99"/>
<polygon fill="black" stroke="black" points="180.97,-140.99 184.47,-150.99 187.97,-140.99 180.97,-140.99"/>
</g>
<!-- GraphqlAPIService -->
<g id="node3" class="node">
<title>GraphqlAPIService</title>
<ellipse fill="#fdb462" stroke="black" cx="312" cy="-104" rx="87.38" ry="18"/>
<text text-anchor="middle" x="312" y="-99.8" font-family="Times,serif" font-size="14.00">GraphqlAPIService</text>
</g>
<!-- GraphqlAPIService&#45;&gt;GraphqlAPIModule -->
<g id="edge2" class="edge">
<title>GraphqlAPIService&#45;&gt;GraphqlAPIModule</title>
<path fill="none" stroke="black" d="M260.4,-118.75C260.4,-118.75 260.4,-140.59 260.4,-140.59"/>
<polygon fill="black" stroke="black" points="256.9,-140.59 260.4,-150.59 263.9,-140.59 256.9,-140.59"/>
</g>
</g>
</svg>
