<?xml version="1.0" encoding="UTF-8" standalone="no"?>
<!DOCTYPE svg PUBLIC "-//W3C//DTD SVG 1.1//EN"
 "http://www.w3.org/Graphics/SVG/1.1/DTD/svg11.dtd">
<!-- Generated by graphviz version 2.47.0 (20210316.0004)
 -->
<!-- Title: dependencies Pages: 1 -->
<svg width="504pt" height="284pt"
 viewBox="0.00 0.00 504.00 284.00" xmlns="http://www.w3.org/2000/svg" xmlns:xlink="http://www.w3.org/1999/xlink">
<g id="graph0" class="graph" transform="scale(1 1) rotate(0) translate(4 280)">
<title>dependencies</title>
<polygon fill="white" stroke="transparent" points="-4,4 -4,-280 500,-280 500,4 -4,4"/>
<text text-anchor="start" x="227.01" y="-42.4" font-family="Times-12" font-weight="bold" font-size="14.00">Legend</text>
<polygon fill="#ffffb3" stroke="transparent" points="14,-10 14,-30 34,-30 34,-10 14,-10"/>
<text text-anchor="start" x="37.63" y="-15.4" font-family="Times-12" font-size="14.00"> &#160;Declarations</text>
<polygon fill="#8dd3c7" stroke="transparent" points="127,-10 127,-30 147,-30 147,-10 127,-10"/>
<text text-anchor="start" x="150.73" y="-15.4" font-family="Times-12" font-size="14.00"> &#160;Module</text>
<polygon fill="#80b1d3" stroke="transparent" points="213,-10 213,-30 233,-30 233,-10 213,-10"/>
<text text-anchor="start" x="236.78" y="-15.4" font-family="Times-12" font-size="14.00"> &#160;Bootstrap</text>
<polygon fill="#fdb462" stroke="transparent" points="310,-10 310,-30 330,-30 330,-10 310,-10"/>
<text text-anchor="start" x="333.67" y="-15.4" font-family="Times-12" font-size="14.00"> &#160;Providers</text>
<polygon fill="#fb8072" stroke="transparent" points="406,-10 406,-30 426,-30 426,-10 406,-10"/>
<text text-anchor="start" x="429.73" y="-15.4" font-family="Times-12" font-size="14.00"> &#160;Exports</text>
<g id="clust1" class="cluster">
<title>cluster_NotificationsModule</title>
<polygon fill="none" stroke="black" stroke-dasharray="1,5" points="78,-70 78,-268 418,-268 418,-70 78,-70"/>
</g>
<g id="clust6" class="cluster">
<title>cluster_NotificationsModule_providers</title>
<polygon fill="none" stroke="black" points="214,-78 214,-130 410,-130 410,-78 214,-78"/>
</g>
<g id="clust3" class="cluster">
<title>cluster_NotificationsModule_imports</title>
<polygon fill="none" stroke="black" points="86,-78 86,-130 206,-130 206,-78 86,-78"/>
</g>
<g id="clust4" class="cluster">
<title>cluster_NotificationsModule_exports</title>
<polygon fill="none" stroke="black" points="161,-208 161,-260 311,-260 311,-208 161,-208"/>
</g>
<!-- ApiKeyModule -->
<g id="node1" class="node">
<title>ApiKeyModule</title>
<polygon fill="#8dd3c7" stroke="black" points="197.87,-122 194.87,-126 173.87,-126 170.87,-122 94.13,-122 94.13,-86 197.87,-86 197.87,-122"/>
<text text-anchor="middle" x="146" y="-99.8" font-family="Times,serif" font-size="14.00">ApiKeyModule</text>
</g>
<!-- NotificationsModule -->
<g id="node2" class="node">
<title>NotificationsModule</title>
<polygon fill="#8dd3c7" stroke="black" points="302.14,-187 299.14,-191 278.14,-191 275.14,-187 169.86,-187 169.86,-151 302.14,-151 302.14,-187"/>
<text text-anchor="middle" x="236" y="-164.8" font-family="Times,serif" font-size="14.00">NotificationsModule</text>
</g>
<!-- ApiKeyModule&#45;&gt;NotificationsModule -->
<g id="edge1" class="edge">
<title>ApiKeyModule&#45;&gt;NotificationsModule</title>
<path fill="none" stroke="black" d="M183.81,-122.11C183.81,-122.11 183.81,-140.99 183.81,-140.99"/>
<polygon fill="black" stroke="black" points="180.31,-140.99 183.81,-150.99 187.31,-140.99 180.31,-140.99"/>
</g>
<!-- NotificationsService  -->
<g id="node3" class="node">
<title>NotificationsService </title>
<polygon fill="#fb8072" stroke="black" points="303.07,-252 168.93,-252 168.93,-216 303.07,-216 303.07,-252"/>
<text text-anchor="middle" x="236" y="-229.8" font-family="Times,serif" font-size="14.00">NotificationsService </text>
</g>
<!-- NotificationsModule&#45;&gt;NotificationsService  -->
<g id="edge2" class="edge">
<title>NotificationsModule&#45;&gt;NotificationsService </title>
<path fill="none" stroke="black" stroke-dasharray="5,2" d="M236,-187.11C236,-187.11 236,-205.99 236,-205.99"/>
<polygon fill="black" stroke="black" points="232.5,-205.99 236,-215.99 239.5,-205.99 232.5,-205.99"/>
</g>
<!-- NotificationsService -->
<g id="node4" class="node">
<title>NotificationsService</title>
<ellipse fill="#fdb462" stroke="black" cx="312" cy="-104" rx="90.32" ry="18"/>
<text text-anchor="middle" x="312" y="-99.8" font-family="Times,serif" font-size="14.00">NotificationsService</text>
</g>
<!-- NotificationsService&#45;&gt;NotificationsModule -->
<g id="edge3" class="edge">
<title>NotificationsService&#45;&gt;NotificationsModule</title>
<path fill="none" stroke="black" d="M261.96,-119.08C261.96,-119.08 261.96,-140.76 261.96,-140.76"/>
<polygon fill="black" stroke="black" points="258.46,-140.76 261.96,-150.76 265.46,-140.76 258.46,-140.76"/>
</g>
</g>
</svg>
