<?xml version="1.0" encoding="UTF-8" standalone="no"?>
<!DOCTYPE svg PUBLIC "-//W3C//DTD SVG 1.1//EN"
 "http://www.w3.org/Graphics/SVG/1.1/DTD/svg11.dtd">
<!-- Generated by graphviz version 2.47.0 (20210316.0004)
 -->
<!-- Title: dependencies Pages: 1 -->
<svg width="504pt" height="284pt"
 viewBox="0.00 0.00 504.00 284.00" xmlns="http://www.w3.org/2000/svg" xmlns:xlink="http://www.w3.org/1999/xlink">
<g id="graph0" class="graph" transform="scale(1 1) rotate(0) translate(4 280)">
<title>dependencies</title>
<polygon fill="white" stroke="transparent" points="-4,4 -4,-280 500,-280 500,4 -4,4"/>
<text text-anchor="start" x="227.01" y="-42.4" font-family="Times-12" font-weight="bold" font-size="14.00">Legend</text>
<polygon fill="#ffffb3" stroke="transparent" points="14,-10 14,-30 34,-30 34,-10 14,-10"/>
<text text-anchor="start" x="37.63" y="-15.4" font-family="Times-12" font-size="14.00"> &#160;Declarations</text>
<polygon fill="#8dd3c7" stroke="transparent" points="127,-10 127,-30 147,-30 147,-10 127,-10"/>
<text text-anchor="start" x="150.73" y="-15.4" font-family="Times-12" font-size="14.00"> &#160;Module</text>
<polygon fill="#80b1d3" stroke="transparent" points="213,-10 213,-30 233,-30 233,-10 213,-10"/>
<text text-anchor="start" x="236.78" y="-15.4" font-family="Times-12" font-size="14.00"> &#160;Bootstrap</text>
<polygon fill="#fdb462" stroke="transparent" points="310,-10 310,-30 330,-30 330,-10 310,-10"/>
<text text-anchor="start" x="333.67" y="-15.4" font-family="Times-12" font-size="14.00"> &#160;Providers</text>
<polygon fill="#fb8072" stroke="transparent" points="406,-10 406,-30 426,-30 426,-10 406,-10"/>
<text text-anchor="start" x="429.73" y="-15.4" font-family="Times-12" font-size="14.00"> &#160;Exports</text>
<g id="clust1" class="cluster">
<title>cluster_ChargeApiModule</title>
<polygon fill="none" stroke="black" stroke-dasharray="1,5" points="83,-70 83,-268 413,-268 413,-70 83,-70"/>
</g>
<g id="clust4" class="cluster">
<title>cluster_ChargeApiModule_exports</title>
<polygon fill="none" stroke="black" points="189,-208 189,-260 327,-260 327,-208 189,-208"/>
</g>
<g id="clust3" class="cluster">
<title>cluster_ChargeApiModule_imports</title>
<polygon fill="none" stroke="black" points="279,-78 279,-130 405,-130 405,-78 279,-78"/>
</g>
<g id="clust6" class="cluster">
<title>cluster_ChargeApiModule_providers</title>
<polygon fill="none" stroke="black" points="91,-78 91,-130 271,-130 271,-78 91,-78"/>
</g>
<!-- DatabaseModule -->
<g id="node1" class="node">
<title>DatabaseModule</title>
<polygon fill="#8dd3c7" stroke="black" points="397.35,-122 394.35,-126 373.35,-126 370.35,-122 286.65,-122 286.65,-86 397.35,-86 397.35,-122"/>
<text text-anchor="middle" x="342" y="-99.8" font-family="Times,serif" font-size="14.00">DatabaseModule</text>
</g>
<!-- ChargeApiModule -->
<g id="node2" class="node">
<title>ChargeApiModule</title>
<polygon fill="#8dd3c7" stroke="black" points="318.47,-187 315.47,-191 294.47,-191 291.47,-187 197.53,-187 197.53,-151 318.47,-151 318.47,-187"/>
<text text-anchor="middle" x="258" y="-164.8" font-family="Times,serif" font-size="14.00">ChargeApiModule</text>
</g>
<!-- DatabaseModule&#45;&gt;ChargeApiModule -->
<g id="edge1" class="edge">
<title>DatabaseModule&#45;&gt;ChargeApiModule</title>
<path fill="none" stroke="black" d="M302.53,-122.11C302.53,-122.11 302.53,-140.99 302.53,-140.99"/>
<polygon fill="black" stroke="black" points="299.03,-140.99 302.53,-150.99 306.03,-140.99 299.03,-140.99"/>
</g>
<!-- ChargeApiService  -->
<g id="node3" class="node">
<title>ChargeApiService </title>
<polygon fill="#fb8072" stroke="black" points="319.4,-252 196.6,-252 196.6,-216 319.4,-216 319.4,-252"/>
<text text-anchor="middle" x="258" y="-229.8" font-family="Times,serif" font-size="14.00">ChargeApiService </text>
</g>
<!-- ChargeApiModule&#45;&gt;ChargeApiService  -->
<g id="edge2" class="edge">
<title>ChargeApiModule&#45;&gt;ChargeApiService </title>
<path fill="none" stroke="black" stroke-dasharray="5,2" d="M258,-187.11C258,-187.11 258,-205.99 258,-205.99"/>
<polygon fill="black" stroke="black" points="254.5,-205.99 258,-215.99 261.5,-205.99 254.5,-205.99"/>
</g>
<!-- ChargeApiService -->
<g id="node4" class="node">
<title>ChargeApiService</title>
<ellipse fill="#fdb462" stroke="black" cx="181" cy="-104" rx="82.22" ry="18"/>
<text text-anchor="middle" x="181" y="-99.8" font-family="Times,serif" font-size="14.00">ChargeApiService</text>
</g>
<!-- ChargeApiService&#45;&gt;ChargeApiModule -->
<g id="edge3" class="edge">
<title>ChargeApiService&#45;&gt;ChargeApiModule</title>
<path fill="none" stroke="black" d="M230.44,-118.43C230.44,-118.43 230.44,-140.89 230.44,-140.89"/>
<polygon fill="black" stroke="black" points="226.94,-140.89 230.44,-150.89 233.94,-140.89 226.94,-140.89"/>
</g>
</g>
</svg>
