<?xml version="1.0" encoding="UTF-8" standalone="no"?>
<!DOCTYPE svg PUBLIC "-//W3C//DTD SVG 1.1//EN"
 "http://www.w3.org/Graphics/SVG/1.1/DTD/svg11.dtd">
<!-- Generated by graphviz version 2.47.0 (20210316.0004)
 -->
<!-- Title: dependencies Pages: 1 -->
<svg width="1769pt" height="211pt"
 viewBox="0.00 0.00 1769.00 211.00" xmlns="http://www.w3.org/2000/svg" xmlns:xlink="http://www.w3.org/1999/xlink">
<g id="graph0" class="graph" transform="scale(1 1) rotate(0) translate(4 207)">
<title>dependencies</title>
<polygon fill="white" stroke="transparent" points="-4,4 -4,-207 1765,-207 1765,4 -4,4"/>
<text text-anchor="start" x="859.51" y="-42.4" font-family="Times-12" font-weight="bold" font-size="14.00">Legend</text>
<polygon fill="#ffffb3" stroke="transparent" points="646.5,-10 646.5,-30 666.5,-30 666.5,-10 646.5,-10"/>
<text text-anchor="start" x="670.13" y="-15.4" font-family="Times-12" font-size="14.00"> &#160;Declarations</text>
<polygon fill="#8dd3c7" stroke="transparent" points="759.5,-10 759.5,-30 779.5,-30 779.5,-10 759.5,-10"/>
<text text-anchor="start" x="783.23" y="-15.4" font-family="Times-12" font-size="14.00"> &#160;Module</text>
<polygon fill="#80b1d3" stroke="transparent" points="845.5,-10 845.5,-30 865.5,-30 865.5,-10 845.5,-10"/>
<text text-anchor="start" x="869.28" y="-15.4" font-family="Times-12" font-size="14.00"> &#160;Bootstrap</text>
<polygon fill="#fdb462" stroke="transparent" points="942.5,-10 942.5,-30 962.5,-30 962.5,-10 942.5,-10"/>
<text text-anchor="start" x="966.17" y="-15.4" font-family="Times-12" font-size="14.00"> &#160;Providers</text>
<polygon fill="#fb8072" stroke="transparent" points="1038.5,-10 1038.5,-30 1058.5,-30 1058.5,-10 1038.5,-10"/>
<text text-anchor="start" x="1062.23" y="-15.4" font-family="Times-12" font-size="14.00"> &#160;Exports</text>
<g id="clust1" class="cluster">
<title>cluster_ChargeApiServiceModule</title>
<polygon fill="none" stroke="black" stroke-dasharray="1,5" points="8,-70 8,-195 1753,-195 1753,-70 8,-70"/>
</g>
<g id="clust6" class="cluster">
<title>cluster_ChargeApiServiceModule_providers</title>
<polygon fill="none" stroke="black" points="1507,-78 1507,-130 1745,-130 1745,-78 1507,-78"/>
</g>
<g id="clust3" class="cluster">
<title>cluster_ChargeApiServiceModule_imports</title>
<polygon fill="none" stroke="black" points="16,-78 16,-130 1499,-130 1499,-78 16,-78"/>
</g>
<!-- ApiKeyModule -->
<g id="node1" class="node">
<title>ApiKeyModule</title>
<polygon fill="#8dd3c7" stroke="black" points="1490.87,-122 1487.87,-126 1466.87,-126 1463.87,-122 1387.13,-122 1387.13,-86 1490.87,-86 1490.87,-122"/>
<text text-anchor="middle" x="1439" y="-99.8" font-family="Times,serif" font-size="14.00">ApiKeyModule</text>
</g>
<!-- ChargeApiServiceModule -->
<g id="node11" class="node">
<title>ChargeApiServiceModule</title>
<polygon fill="#8dd3c7" stroke="black" points="936.45,-187 933.45,-191 912.45,-191 909.45,-187 773.55,-187 773.55,-151 936.45,-151 936.45,-187"/>
<text text-anchor="middle" x="855" y="-164.8" font-family="Times,serif" font-size="14.00">ChargeApiServiceModule</text>
</g>
<!-- ApiKeyModule&#45;&gt;ChargeApiServiceModule -->
<g id="edge1" class="edge">
<title>ApiKeyModule&#45;&gt;ChargeApiServiceModule</title>
<path fill="none" stroke="black" d="M1439,-122.13C1439,-142.57 1439,-173 1439,-173 1439,-173 946.51,-173 946.51,-173"/>
<polygon fill="black" stroke="black" points="946.51,-169.5 936.51,-173 946.51,-176.5 946.51,-169.5"/>
</g>
<!-- BundlerApiModule -->
<g id="node2" class="node">
<title>BundlerApiModule</title>
<polygon fill="#8dd3c7" stroke="black" points="1368.65,-122 1365.65,-126 1344.65,-126 1341.65,-122 1243.35,-122 1243.35,-86 1368.65,-86 1368.65,-122"/>
<text text-anchor="middle" x="1306" y="-99.8" font-family="Times,serif" font-size="14.00">BundlerApiModule</text>
</g>
<!-- BundlerApiModule&#45;&gt;ChargeApiServiceModule -->
<g id="edge2" class="edge">
<title>BundlerApiModule&#45;&gt;ChargeApiServiceModule</title>
<path fill="none" stroke="black" d="M1306,-122.27C1306,-140.56 1306,-166 1306,-166 1306,-166 946.67,-166 946.67,-166"/>
<polygon fill="black" stroke="black" points="946.67,-162.5 936.67,-166 946.67,-169.5 946.67,-162.5"/>
</g>
<!-- ConsensusApiModule -->
<g id="node3" class="node">
<title>ConsensusApiModule</title>
<polygon fill="#8dd3c7" stroke="black" points="1225.43,-122 1222.43,-126 1201.43,-126 1198.43,-122 1084.57,-122 1084.57,-86 1225.43,-86 1225.43,-122"/>
<text text-anchor="middle" x="1155" y="-99.8" font-family="Times,serif" font-size="14.00">ConsensusApiModule</text>
</g>
<!-- ConsensusApiModule&#45;&gt;ChargeApiServiceModule -->
<g id="edge3" class="edge">
<title>ConsensusApiModule&#45;&gt;ChargeApiServiceModule</title>
<path fill="none" stroke="black" d="M1155,-122.01C1155,-138.05 1155,-159 1155,-159 1155,-159 946.58,-159 946.58,-159"/>
<polygon fill="black" stroke="black" points="946.58,-155.5 936.58,-159 946.58,-162.5 946.58,-155.5"/>
</g>
<!-- ExplorerApiModule -->
<g id="node4" class="node">
<title>ExplorerApiModule</title>
<polygon fill="#8dd3c7" stroke="black" points="1066.53,-122 1063.53,-126 1042.53,-126 1039.53,-122 937.47,-122 937.47,-86 1066.53,-86 1066.53,-122"/>
<text text-anchor="middle" x="1002" y="-99.8" font-family="Times,serif" font-size="14.00">ExplorerApiModule</text>
</g>
<!-- ExplorerApiModule&#45;&gt;ChargeApiServiceModule -->
<g id="edge4" class="edge">
<title>ExplorerApiModule&#45;&gt;ChargeApiServiceModule</title>
<path fill="none" stroke="black" d="M937.44,-104C931.54,-104 927.73,-104 927.73,-104 927.73,-104 927.73,-140.89 927.73,-140.89"/>
<polygon fill="black" stroke="black" points="924.23,-140.89 927.73,-150.89 931.23,-140.89 924.23,-140.89"/>
</g>
<!-- GraphqlAPIModule -->
<g id="node5" class="node">
<title>GraphqlAPIModule</title>
<polygon fill="#8dd3c7" stroke="black" points="918.97,-122 915.97,-126 894.97,-126 891.97,-122 791.03,-122 791.03,-86 918.97,-86 918.97,-122"/>
<text text-anchor="middle" x="855" y="-99.8" font-family="Times,serif" font-size="14.00">GraphqlAPIModule</text>
</g>
<!-- GraphqlAPIModule&#45;&gt;ChargeApiServiceModule -->
<g id="edge5" class="edge">
<title>GraphqlAPIModule&#45;&gt;ChargeApiServiceModule</title>
<path fill="none" stroke="black" d="M855,-122.11C855,-122.11 855,-140.99 855,-140.99"/>
<polygon fill="black" stroke="black" points="851.5,-140.99 855,-150.99 858.5,-140.99 851.5,-140.99"/>
</g>
<!-- LegacyApiModule -->
<g id="node6" class="node">
<title>LegacyApiModule</title>
<polygon fill="#8dd3c7" stroke="black" points="772.74,-122 769.74,-126 748.74,-126 745.74,-122 651.26,-122 651.26,-86 772.74,-86 772.74,-122"/>
<text text-anchor="middle" x="712" y="-99.8" font-family="Times,serif" font-size="14.00">LegacyApiModule</text>
</g>
<!-- LegacyApiModule&#45;&gt;ChargeApiServiceModule -->
<g id="edge6" class="edge">
<title>LegacyApiModule&#45;&gt;ChargeApiServiceModule</title>
<path fill="none" stroke="black" d="M772.79,-104C778.54,-104 782.27,-104 782.27,-104 782.27,-104 782.27,-140.89 782.27,-140.89"/>
<polygon fill="black" stroke="black" points="778.77,-140.89 782.27,-150.89 785.77,-140.89 778.77,-140.89"/>
</g>
<!-- NotificationsModule -->
<g id="node7" class="node">
<title>NotificationsModule</title>
<polygon fill="#8dd3c7" stroke="black" points="633.14,-122 630.14,-126 609.14,-126 606.14,-122 500.86,-122 500.86,-86 633.14,-86 633.14,-122"/>
<text text-anchor="middle" x="567" y="-99.8" font-family="Times,serif" font-size="14.00">NotificationsModule</text>
</g>
<!-- NotificationsModule&#45;&gt;ChargeApiServiceModule -->
<g id="edge7" class="edge">
<title>NotificationsModule&#45;&gt;ChargeApiServiceModule</title>
<path fill="none" stroke="black" d="M567,-122.01C567,-138.05 567,-159 567,-159 567,-159 763.24,-159 763.24,-159"/>
<polygon fill="black" stroke="black" points="763.24,-162.5 773.24,-159 763.24,-155.5 763.24,-162.5"/>
</g>
<!-- PaymasterApiModule -->
<g id="node8" class="node">
<title>PaymasterApiModule</title>
<polygon fill="#8dd3c7" stroke="black" points="482.36,-122 479.36,-126 458.36,-126 455.36,-122 343.64,-122 343.64,-86 482.36,-86 482.36,-122"/>
<text text-anchor="middle" x="413" y="-99.8" font-family="Times,serif" font-size="14.00">PaymasterApiModule</text>
</g>
<!-- PaymasterApiModule&#45;&gt;ChargeApiServiceModule -->
<g id="edge8" class="edge">
<title>PaymasterApiModule&#45;&gt;ChargeApiServiceModule</title>
<path fill="none" stroke="black" d="M413,-122.27C413,-140.56 413,-166 413,-166 413,-166 763.42,-166 763.42,-166"/>
<polygon fill="black" stroke="black" points="763.42,-169.5 773.42,-166 763.42,-162.5 763.42,-169.5"/>
</g>
<!-- SmartWalletsAPIModule -->
<g id="node9" class="node">
<title>SmartWalletsAPIModule</title>
<polygon fill="#8dd3c7" stroke="black" points="325.3,-122 322.3,-126 301.3,-126 298.3,-122 166.7,-122 166.7,-86 325.3,-86 325.3,-122"/>
<text text-anchor="middle" x="246" y="-99.8" font-family="Times,serif" font-size="14.00">SmartWalletsAPIModule</text>
</g>
<!-- SmartWalletsAPIModule&#45;&gt;ChargeApiServiceModule -->
<g id="edge9" class="edge">
<title>SmartWalletsAPIModule&#45;&gt;ChargeApiServiceModule</title>
<path fill="none" stroke="black" d="M246,-122.13C246,-142.57 246,-173 246,-173 246,-173 763.5,-173 763.5,-173"/>
<polygon fill="black" stroke="black" points="763.5,-176.5 773.5,-173 763.5,-169.5 763.5,-176.5"/>
</g>
<!-- StakingAPIModule -->
<g id="node10" class="node">
<title>StakingAPIModule</title>
<polygon fill="#8dd3c7" stroke="black" points="148.38,-122 145.38,-126 124.38,-126 121.38,-122 23.62,-122 23.62,-86 148.38,-86 148.38,-122"/>
<text text-anchor="middle" x="86" y="-99.8" font-family="Times,serif" font-size="14.00">StakingAPIModule</text>
</g>
<!-- StakingAPIModule&#45;&gt;ChargeApiServiceModule -->
<g id="edge10" class="edge">
<title>StakingAPIModule&#45;&gt;ChargeApiServiceModule</title>
<path fill="none" stroke="black" d="M86,-122.01C86,-144.49 86,-180 86,-180 86,-180 763.43,-180 763.43,-180"/>
<polygon fill="black" stroke="black" points="763.43,-183.5 773.43,-180 763.43,-176.5 763.43,-183.5"/>
</g>
<!-- ChargeApiServiceService -->
<g id="node12" class="node">
<title>ChargeApiServiceService</title>
<ellipse fill="#fdb462" stroke="black" cx="1626" cy="-104" rx="111.13" ry="18"/>
<text text-anchor="middle" x="1626" y="-99.8" font-family="Times,serif" font-size="14.00">ChargeApiServiceService</text>
</g>
<!-- ChargeApiServiceService&#45;&gt;ChargeApiServiceModule -->
<g id="edge11" class="edge">
<title>ChargeApiServiceService&#45;&gt;ChargeApiServiceModule</title>
<path fill="none" stroke="black" d="M1626,-122.01C1626,-144.49 1626,-180 1626,-180 1626,-180 946.78,-180 946.78,-180"/>
<polygon fill="black" stroke="black" points="946.78,-176.5 936.78,-180 946.78,-183.5 946.78,-176.5"/>
</g>
</g>
</svg>
