<?xml version="1.0" encoding="UTF-8" standalone="no"?>
<!DOCTYPE svg PUBLIC "-//W3C//DTD SVG 1.1//EN"
 "http://www.w3.org/Graphics/SVG/1.1/DTD/svg11.dtd">
<!-- Generated by graphviz version 2.47.0 (20210316.0004)
 -->
<!-- Title: dependencies Pages: 1 -->
<svg width="2051pt" height="211pt"
 viewBox="0.00 0.00 2051.00 211.00" xmlns="http://www.w3.org/2000/svg" xmlns:xlink="http://www.w3.org/1999/xlink">
<g id="graph0" class="graph" transform="scale(1 1) rotate(0) translate(4 207)">
<title>dependencies</title>
<polygon fill="white" stroke="transparent" points="-4,4 -4,-207 2047,-207 2047,4 -4,4"/>
<text text-anchor="start" x="1000.51" y="-42.4" font-family="Times-12" font-weight="bold" font-size="14.00">Legend</text>
<polygon fill="#ffffb3" stroke="transparent" points="787.5,-10 787.5,-30 807.5,-30 807.5,-10 787.5,-10"/>
<text text-anchor="start" x="811.13" y="-15.4" font-family="Times-12" font-size="14.00"> &#160;Declarations</text>
<polygon fill="#8dd3c7" stroke="transparent" points="900.5,-10 900.5,-30 920.5,-30 920.5,-10 900.5,-10"/>
<text text-anchor="start" x="924.23" y="-15.4" font-family="Times-12" font-size="14.00"> &#160;Module</text>
<polygon fill="#80b1d3" stroke="transparent" points="986.5,-10 986.5,-30 1006.5,-30 1006.5,-10 986.5,-10"/>
<text text-anchor="start" x="1010.28" y="-15.4" font-family="Times-12" font-size="14.00"> &#160;Bootstrap</text>
<polygon fill="#fdb462" stroke="transparent" points="1083.5,-10 1083.5,-30 1103.5,-30 1103.5,-10 1083.5,-10"/>
<text text-anchor="start" x="1107.17" y="-15.4" font-family="Times-12" font-size="14.00"> &#160;Providers</text>
<polygon fill="#fb8072" stroke="transparent" points="1179.5,-10 1179.5,-30 1199.5,-30 1199.5,-10 1179.5,-10"/>
<text text-anchor="start" x="1203.23" y="-15.4" font-family="Times-12" font-size="14.00"> &#160;Exports</text>
<g id="clust1" class="cluster">
<title>cluster_ChargeApiServiceModule</title>
<polygon fill="none" stroke="black" stroke-dasharray="1,5" points="8,-70 8,-195 2035,-195 2035,-70 8,-70"/>
</g>
<g id="clust3" class="cluster">
<title>cluster_ChargeApiServiceModule_imports</title>
<polygon fill="none" stroke="black" points="262,-78 262,-130 2027,-130 2027,-78 262,-78"/>
</g>
<g id="clust6" class="cluster">
<title>cluster_ChargeApiServiceModule_providers</title>
<polygon fill="none" stroke="black" points="16,-78 16,-130 254,-130 254,-78 16,-78"/>
</g>
<!-- ApiKeyModule -->
<g id="node1" class="node">
<title>ApiKeyModule</title>
<polygon fill="#8dd3c7" stroke="black" points="2018.87,-122 2015.87,-126 1994.87,-126 1991.87,-122 1915.13,-122 1915.13,-86 2018.87,-86 2018.87,-122"/>
<text text-anchor="middle" x="1967" y="-99.8" font-family="Times,serif" font-size="14.00">ApiKeyModule</text>
</g>
<!-- ChargeApiServiceModule -->
<g id="node13" class="node">
<title>ChargeApiServiceModule</title>
<polygon fill="#8dd3c7" stroke="black" points="1171.45,-187 1168.45,-191 1147.45,-191 1144.45,-187 1008.55,-187 1008.55,-151 1171.45,-151 1171.45,-187"/>
<text text-anchor="middle" x="1090" y="-164.8" font-family="Times,serif" font-size="14.00">ChargeApiServiceModule</text>
</g>
<!-- ApiKeyModule&#45;&gt;ChargeApiServiceModule -->
<g id="edge1" class="edge">
<title>ApiKeyModule&#45;&gt;ChargeApiServiceModule</title>
<path fill="none" stroke="black" d="M1967,-122.09C1967,-145.13 1967,-182 1967,-182 1967,-182 1181.72,-182 1181.72,-182"/>
<polygon fill="black" stroke="black" points="1181.72,-178.5 1171.72,-182 1181.72,-185.5 1181.72,-178.5"/>
</g>
<!-- BalancesAPIModule -->
<g id="node2" class="node">
<title>BalancesAPIModule</title>
<polygon fill="#8dd3c7" stroke="black" points="1897.13,-122 1894.13,-126 1873.13,-126 1870.13,-122 1764.87,-122 1764.87,-86 1897.13,-86 1897.13,-122"/>
<text text-anchor="middle" x="1831" y="-99.8" font-family="Times,serif" font-size="14.00">BalancesAPIModule</text>
</g>
<!-- BalancesAPIModule&#45;&gt;ChargeApiServiceModule -->
<g id="edge2" class="edge">
<title>BalancesAPIModule&#45;&gt;ChargeApiServiceModule</title>
<path fill="none" stroke="black" d="M1831,-122.28C1831,-143.32 1831,-175 1831,-175 1831,-175 1181.78,-175 1181.78,-175"/>
<polygon fill="black" stroke="black" points="1181.78,-171.5 1171.78,-175 1181.78,-178.5 1181.78,-171.5"/>
</g>
<!-- BundlerApiModule -->
<g id="node3" class="node">
<title>BundlerApiModule</title>
<polygon fill="#8dd3c7" stroke="black" points="1746.65,-122 1743.65,-126 1722.65,-126 1719.65,-122 1621.35,-122 1621.35,-86 1746.65,-86 1746.65,-122"/>
<text text-anchor="middle" x="1684" y="-99.8" font-family="Times,serif" font-size="14.00">BundlerApiModule</text>
</g>
<!-- BundlerApiModule&#45;&gt;ChargeApiServiceModule -->
<g id="edge3" class="edge">
<title>BundlerApiModule&#45;&gt;ChargeApiServiceModule</title>
<path fill="none" stroke="black" d="M1684,-122.11C1684,-141.34 1684,-169 1684,-169 1684,-169 1181.66,-169 1181.66,-169"/>
<polygon fill="black" stroke="black" points="1181.66,-165.5 1171.66,-169 1181.66,-172.5 1181.66,-165.5"/>
</g>
<!-- ConsensusApiModule -->
<g id="node4" class="node">
<title>ConsensusApiModule</title>
<polygon fill="#8dd3c7" stroke="black" points="1603.43,-122 1600.43,-126 1579.43,-126 1576.43,-122 1462.57,-122 1462.57,-86 1603.43,-86 1603.43,-122"/>
<text text-anchor="middle" x="1533" y="-99.8" font-family="Times,serif" font-size="14.00">ConsensusApiModule</text>
</g>
<!-- ConsensusApiModule&#45;&gt;ChargeApiServiceModule -->
<g id="edge4" class="edge">
<title>ConsensusApiModule&#45;&gt;ChargeApiServiceModule</title>
<path fill="none" stroke="black" d="M1533,-122.02C1533,-139.37 1533,-163 1533,-163 1533,-163 1181.51,-163 1181.51,-163"/>
<polygon fill="black" stroke="black" points="1181.51,-159.5 1171.51,-163 1181.51,-166.5 1181.51,-159.5"/>
</g>
<!-- ExplorerApiModule -->
<g id="node5" class="node">
<title>ExplorerApiModule</title>
<polygon fill="#8dd3c7" stroke="black" points="1444.53,-122 1441.53,-126 1420.53,-126 1417.53,-122 1315.47,-122 1315.47,-86 1444.53,-86 1444.53,-122"/>
<text text-anchor="middle" x="1380" y="-99.8" font-family="Times,serif" font-size="14.00">ExplorerApiModule</text>
</g>
<!-- ExplorerApiModule&#45;&gt;ChargeApiServiceModule -->
<g id="edge5" class="edge">
<title>ExplorerApiModule&#45;&gt;ChargeApiServiceModule</title>
<path fill="none" stroke="black" d="M1380,-122.24C1380,-137.57 1380,-157 1380,-157 1380,-157 1181.55,-157 1181.55,-157"/>
<polygon fill="black" stroke="black" points="1181.55,-153.5 1171.55,-157 1181.55,-160.5 1181.55,-153.5"/>
</g>
<!-- GraphqlAPIModule -->
<g id="node6" class="node">
<title>GraphqlAPIModule</title>
<polygon fill="#8dd3c7" stroke="black" points="1296.97,-122 1293.97,-126 1272.97,-126 1269.97,-122 1169.03,-122 1169.03,-86 1296.97,-86 1296.97,-122"/>
<text text-anchor="middle" x="1233" y="-99.8" font-family="Times,serif" font-size="14.00">GraphqlAPIModule</text>
</g>
<!-- GraphqlAPIModule&#45;&gt;ChargeApiServiceModule -->
<g id="edge6" class="edge">
<title>GraphqlAPIModule&#45;&gt;ChargeApiServiceModule</title>
<path fill="none" stroke="black" d="M1168.9,-104C1163.44,-104 1159.94,-104 1159.94,-104 1159.94,-104 1159.94,-140.89 1159.94,-140.89"/>
<polygon fill="black" stroke="black" points="1156.44,-140.89 1159.94,-150.89 1163.44,-140.89 1156.44,-140.89"/>
</g>
<!-- LegacyApiModule -->
<g id="node7" class="node">
<title>LegacyApiModule</title>
<polygon fill="#8dd3c7" stroke="black" points="1150.74,-122 1147.74,-126 1126.74,-126 1123.74,-122 1029.26,-122 1029.26,-86 1150.74,-86 1150.74,-122"/>
<text text-anchor="middle" x="1090" y="-99.8" font-family="Times,serif" font-size="14.00">LegacyApiModule</text>
</g>
<!-- LegacyApiModule&#45;&gt;ChargeApiServiceModule -->
<g id="edge7" class="edge">
<title>LegacyApiModule&#45;&gt;ChargeApiServiceModule</title>
<path fill="none" stroke="black" d="M1090,-122.11C1090,-122.11 1090,-140.99 1090,-140.99"/>
<polygon fill="black" stroke="black" points="1086.5,-140.99 1090,-150.99 1093.5,-140.99 1086.5,-140.99"/>
</g>
<!-- NotificationsModule -->
<g id="node8" class="node">
<title>NotificationsModule</title>
<polygon fill="#8dd3c7" stroke="black" points="1011.14,-122 1008.14,-126 987.14,-126 984.14,-122 878.86,-122 878.86,-86 1011.14,-86 1011.14,-122"/>
<text text-anchor="middle" x="945" y="-99.8" font-family="Times,serif" font-size="14.00">NotificationsModule</text>
</g>
<!-- NotificationsModule&#45;&gt;ChargeApiServiceModule -->
<g id="edge8" class="edge">
<title>NotificationsModule&#45;&gt;ChargeApiServiceModule</title>
<path fill="none" stroke="black" d="M1011.3,-104C1016.75,-104 1020.23,-104 1020.23,-104 1020.23,-104 1020.23,-140.89 1020.23,-140.89"/>
<polygon fill="black" stroke="black" points="1016.73,-140.89 1020.23,-150.89 1023.73,-140.89 1016.73,-140.89"/>
</g>
<!-- PaymasterApiModule -->
<g id="node9" class="node">
<title>PaymasterApiModule</title>
<polygon fill="#8dd3c7" stroke="black" points="860.36,-122 857.36,-126 836.36,-126 833.36,-122 721.64,-122 721.64,-86 860.36,-86 860.36,-122"/>
<text text-anchor="middle" x="791" y="-99.8" font-family="Times,serif" font-size="14.00">PaymasterApiModule</text>
</g>
<!-- PaymasterApiModule&#45;&gt;ChargeApiServiceModule -->
<g id="edge9" class="edge">
<title>PaymasterApiModule&#45;&gt;ChargeApiServiceModule</title>
<path fill="none" stroke="black" d="M791,-122.24C791,-137.57 791,-157 791,-157 791,-157 998.3,-157 998.3,-157"/>
<polygon fill="black" stroke="black" points="998.3,-160.5 1008.3,-157 998.3,-153.5 998.3,-160.5"/>
</g>
<!-- SmartWalletsAPIModule -->
<g id="node10" class="node">
<title>SmartWalletsAPIModule</title>
<polygon fill="#8dd3c7" stroke="black" points="703.3,-122 700.3,-126 679.3,-126 676.3,-122 544.7,-122 544.7,-86 703.3,-86 703.3,-122"/>
<text text-anchor="middle" x="624" y="-99.8" font-family="Times,serif" font-size="14.00">SmartWalletsAPIModule</text>
</g>
<!-- SmartWalletsAPIModule&#45;&gt;ChargeApiServiceModule -->
<g id="edge10" class="edge">
<title>SmartWalletsAPIModule&#45;&gt;ChargeApiServiceModule</title>
<path fill="none" stroke="black" d="M624,-122.02C624,-139.37 624,-163 624,-163 624,-163 998.3,-163 998.3,-163"/>
<polygon fill="black" stroke="black" points="998.3,-166.5 1008.3,-163 998.3,-159.5 998.3,-166.5"/>
</g>
<!-- StakingAPIModule -->
<g id="node11" class="node">
<title>StakingAPIModule</title>
<polygon fill="#8dd3c7" stroke="black" points="526.38,-122 523.38,-126 502.38,-126 499.38,-122 401.62,-122 401.62,-86 526.38,-86 526.38,-122"/>
<text text-anchor="middle" x="464" y="-99.8" font-family="Times,serif" font-size="14.00">StakingAPIModule</text>
</g>
<!-- StakingAPIModule&#45;&gt;ChargeApiServiceModule -->
<g id="edge11" class="edge">
<title>StakingAPIModule&#45;&gt;ChargeApiServiceModule</title>
<path fill="none" stroke="black" d="M464,-122.11C464,-141.34 464,-169 464,-169 464,-169 998.48,-169 998.48,-169"/>
<polygon fill="black" stroke="black" points="998.48,-172.5 1008.48,-169 998.48,-165.5 998.48,-172.5"/>
</g>
<!-- TradeApiModule -->
<g id="node12" class="node">
<title>TradeApiModule</title>
<polygon fill="#8dd3c7" stroke="black" points="383.69,-122 380.69,-126 359.69,-126 356.69,-122 270.31,-122 270.31,-86 383.69,-86 383.69,-122"/>
<text text-anchor="middle" x="327" y="-99.8" font-family="Times,serif" font-size="14.00">TradeApiModule</text>
</g>
<!-- TradeApiModule&#45;&gt;ChargeApiServiceModule -->
<g id="edge12" class="edge">
<title>TradeApiModule&#45;&gt;ChargeApiServiceModule</title>
<path fill="none" stroke="black" d="M327,-122.28C327,-143.32 327,-175 327,-175 327,-175 998.35,-175 998.35,-175"/>
<polygon fill="black" stroke="black" points="998.35,-178.5 1008.35,-175 998.35,-171.5 998.35,-178.5"/>
</g>
<!-- ChargeApiServiceService -->
<g id="node14" class="node">
<title>ChargeApiServiceService</title>
<ellipse fill="#fdb462" stroke="black" cx="135" cy="-104" rx="111.13" ry="18"/>
<text text-anchor="middle" x="135" y="-99.8" font-family="Times,serif" font-size="14.00">ChargeApiServiceService</text>
</g>
<!-- ChargeApiServiceService&#45;&gt;ChargeApiServiceModule -->
<g id="edge13" class="edge">
<title>ChargeApiServiceService&#45;&gt;ChargeApiServiceModule</title>
<path fill="none" stroke="black" d="M135,-122.09C135,-145.13 135,-182 135,-182 135,-182 998.16,-182 998.16,-182"/>
<polygon fill="black" stroke="black" points="998.16,-185.5 1008.16,-182 998.16,-178.5 998.16,-185.5"/>
</g>
</g>
</svg>
