<?xml version="1.0" encoding="UTF-8" standalone="no"?>
<!DOCTYPE svg PUBLIC "-//W3C//DTD SVG 1.1//EN"
 "http://www.w3.org/Graphics/SVG/1.1/DTD/svg11.dtd">
<!-- Generated by graphviz version 2.47.0 (20210316.0004)
 -->
<!-- Title: dependencies Pages: 1 -->
<svg width="806pt" height="211pt"
 viewBox="0.00 0.00 806.00 211.00" xmlns="http://www.w3.org/2000/svg" xmlns:xlink="http://www.w3.org/1999/xlink">
<g id="graph0" class="graph" transform="scale(1 1) rotate(0) translate(4 207)">
<title>dependencies</title>
<polygon fill="white" stroke="transparent" points="-4,4 -4,-207 802,-207 802,4 -4,4"/>
<text text-anchor="start" x="378.01" y="-42.4" font-family="Times-12" font-weight="bold" font-size="14.00">Legend</text>
<polygon fill="#ffffb3" stroke="transparent" points="165,-10 165,-30 185,-30 185,-10 165,-10"/>
<text text-anchor="start" x="188.63" y="-15.4" font-family="Times-12" font-size="14.00"> &#160;Declarations</text>
<polygon fill="#8dd3c7" stroke="transparent" points="278,-10 278,-30 298,-30 298,-10 278,-10"/>
<text text-anchor="start" x="301.73" y="-15.4" font-family="Times-12" font-size="14.00"> &#160;Module</text>
<polygon fill="#80b1d3" stroke="transparent" points="364,-10 364,-30 384,-30 384,-10 364,-10"/>
<text text-anchor="start" x="387.78" y="-15.4" font-family="Times-12" font-size="14.00"> &#160;Bootstrap</text>
<polygon fill="#fdb462" stroke="transparent" points="461,-10 461,-30 481,-30 481,-10 461,-10"/>
<text text-anchor="start" x="484.67" y="-15.4" font-family="Times-12" font-size="14.00"> &#160;Providers</text>
<polygon fill="#fb8072" stroke="transparent" points="557,-10 557,-30 577,-30 577,-10 557,-10"/>
<text text-anchor="start" x="580.73" y="-15.4" font-family="Times-12" font-size="14.00"> &#160;Exports</text>
<g id="clust1" class="cluster">
<title>cluster_ChargeNetworkServiceModule</title>
<polygon fill="none" stroke="black" stroke-dasharray="1,5" points="8,-70 8,-195 790,-195 790,-70 8,-70"/>
</g>
<g id="clust3" class="cluster">
<title>cluster_ChargeNetworkServiceModule_imports</title>
<polygon fill="none" stroke="black" points="16,-78 16,-130 782,-130 782,-78 16,-78"/>
</g>
<!-- BalancesModule -->
<g id="node1" class="node">
<title>BalancesModule</title>
<polygon fill="#8dd3c7" stroke="black" points="774.08,-122 771.08,-126 750.08,-126 747.08,-122 663.92,-122 663.92,-86 774.08,-86 774.08,-122"/>
<text text-anchor="middle" x="719" y="-99.8" font-family="Times,serif" font-size="14.00">BalancesModule</text>
</g>
<!-- ChargeNetworkServiceModule -->
<g id="node7" class="node">
<title>ChargeNetworkServiceModule</title>
<polygon fill="#8dd3c7" stroke="black" points="490.43,-187 487.43,-191 466.43,-191 463.43,-187 299.57,-187 299.57,-151 490.43,-151 490.43,-187"/>
<text text-anchor="middle" x="395" y="-164.8" font-family="Times,serif" font-size="14.00">ChargeNetworkServiceModule</text>
</g>
<!-- BalancesModule&#45;&gt;ChargeNetworkServiceModule -->
<g id="edge1" class="edge">
<title>BalancesModule&#45;&gt;ChargeNetworkServiceModule</title>
<path fill="none" stroke="black" d="M719,-122.28C719,-143.32 719,-175 719,-175 719,-175 500.46,-175 500.46,-175"/>
<polygon fill="black" stroke="black" points="500.46,-171.5 490.46,-175 500.46,-178.5 500.46,-171.5"/>
</g>
<!-- ConsensusModule -->
<g id="node2" class="node">
<title>ConsensusModule</title>
<polygon fill="#8dd3c7" stroke="black" points="645.94,-122 642.94,-126 621.94,-126 618.94,-122 526.06,-122 526.06,-86 645.94,-86 645.94,-122"/>
<text text-anchor="middle" x="586" y="-99.8" font-family="Times,serif" font-size="14.00">ConsensusModule</text>
</g>
<!-- ConsensusModule&#45;&gt;ChargeNetworkServiceModule -->
<g id="edge2" class="edge">
<title>ConsensusModule&#45;&gt;ChargeNetworkServiceModule</title>
<path fill="none" stroke="black" d="M586,-122.02C586,-139.37 586,-163 586,-163 586,-163 500.5,-163 500.5,-163"/>
<polygon fill="black" stroke="black" points="500.5,-159.5 490.5,-163 500.5,-166.5 500.5,-159.5"/>
</g>
<!-- GraphqlModule -->
<g id="node3" class="node">
<title>GraphqlModule</title>
<polygon fill="#8dd3c7" stroke="black" points="508.92,-122 505.92,-126 484.92,-126 481.92,-122 403.08,-122 403.08,-86 508.92,-86 508.92,-122"/>
<text text-anchor="middle" x="456" y="-99.8" font-family="Times,serif" font-size="14.00">GraphqlModule</text>
</g>
<!-- GraphqlModule&#45;&gt;ChargeNetworkServiceModule -->
<g id="edge3" class="edge">
<title>GraphqlModule&#45;&gt;ChargeNetworkServiceModule</title>
<path fill="none" stroke="black" d="M446.88,-122.11C446.88,-122.11 446.88,-140.99 446.88,-140.99"/>
<polygon fill="black" stroke="black" points="443.38,-140.99 446.88,-150.99 450.38,-140.99 443.38,-140.99"/>
</g>
<!-- StakingModule -->
<g id="node4" class="node">
<title>StakingModule</title>
<polygon fill="#8dd3c7" stroke="black" points="385.33,-122 382.33,-126 361.33,-126 358.33,-122 282.67,-122 282.67,-86 385.33,-86 385.33,-122"/>
<text text-anchor="middle" x="334" y="-99.8" font-family="Times,serif" font-size="14.00">StakingModule</text>
</g>
<!-- StakingModule&#45;&gt;ChargeNetworkServiceModule -->
<g id="edge4" class="edge">
<title>StakingModule&#45;&gt;ChargeNetworkServiceModule</title>
<path fill="none" stroke="black" d="M342.35,-122.11C342.35,-122.11 342.35,-140.99 342.35,-140.99"/>
<polygon fill="black" stroke="black" points="338.85,-140.99 342.35,-150.99 345.85,-140.99 338.85,-140.99"/>
</g>
<!-- TokenModule -->
<g id="node5" class="node">
<title>TokenModule</title>
<polygon fill="#8dd3c7" stroke="black" points="264.82,-122 261.82,-126 240.82,-126 237.82,-122 169.18,-122 169.18,-86 264.82,-86 264.82,-122"/>
<text text-anchor="middle" x="217" y="-99.8" font-family="Times,serif" font-size="14.00">TokenModule</text>
</g>
<!-- TokenModule&#45;&gt;ChargeNetworkServiceModule -->
<g id="edge5" class="edge">
<title>TokenModule&#45;&gt;ChargeNetworkServiceModule</title>
<path fill="none" stroke="black" d="M217,-122.02C217,-139.37 217,-163 217,-163 217,-163 289.49,-163 289.49,-163"/>
<polygon fill="black" stroke="black" points="289.49,-166.5 299.49,-163 289.49,-159.5 289.49,-166.5"/>
</g>
<!-- VoltageDexModule -->
<g id="node6" class="node">
<title>VoltageDexModule</title>
<polygon fill="#8dd3c7" stroke="black" points="151.69,-122 148.69,-126 127.69,-126 124.69,-122 24.31,-122 24.31,-86 151.69,-86 151.69,-122"/>
<text text-anchor="middle" x="88" y="-99.8" font-family="Times,serif" font-size="14.00">VoltageDexModule</text>
</g>
<!-- VoltageDexModule&#45;&gt;ChargeNetworkServiceModule -->
<g id="edge6" class="edge">
<title>VoltageDexModule&#45;&gt;ChargeNetworkServiceModule</title>
<path fill="none" stroke="black" d="M88,-122.28C88,-143.32 88,-175 88,-175 88,-175 289.55,-175 289.55,-175"/>
<polygon fill="black" stroke="black" points="289.55,-178.5 299.55,-175 289.55,-171.5 289.55,-178.5"/>
</g>
</g>
</svg>
