<?xml version="1.0" encoding="UTF-8" standalone="no"?>
<!DOCTYPE svg PUBLIC "-//W3C//DTD SVG 1.1//EN"
 "http://www.w3.org/Graphics/SVG/1.1/DTD/svg11.dtd">
<!-- Generated by graphviz version 2.47.0 (20210316.0004)
 -->
<!-- Title: dependencies Pages: 1 -->
<svg width="504pt" height="211pt"
 viewBox="0.00 0.00 504.00 211.00" xmlns="http://www.w3.org/2000/svg" xmlns:xlink="http://www.w3.org/1999/xlink">
<g id="graph0" class="graph" transform="scale(1 1) rotate(0) translate(4 207)">
<title>dependencies</title>
<polygon fill="white" stroke="transparent" points="-4,4 -4,-207 500,-207 500,4 -4,4"/>
<text text-anchor="start" x="227.01" y="-42.4" font-family="Times-12" font-weight="bold" font-size="14.00">Legend</text>
<polygon fill="#ffffb3" stroke="transparent" points="14,-10 14,-30 34,-30 34,-10 14,-10"/>
<text text-anchor="start" x="37.63" y="-15.4" font-family="Times-12" font-size="14.00"> &#160;Declarations</text>
<polygon fill="#8dd3c7" stroke="transparent" points="127,-10 127,-30 147,-30 147,-10 127,-10"/>
<text text-anchor="start" x="150.73" y="-15.4" font-family="Times-12" font-size="14.00"> &#160;Module</text>
<polygon fill="#80b1d3" stroke="transparent" points="213,-10 213,-30 233,-30 233,-10 213,-10"/>
<text text-anchor="start" x="236.78" y="-15.4" font-family="Times-12" font-size="14.00"> &#160;Bootstrap</text>
<polygon fill="#fdb462" stroke="transparent" points="310,-10 310,-30 330,-30 330,-10 310,-10"/>
<text text-anchor="start" x="333.67" y="-15.4" font-family="Times-12" font-size="14.00"> &#160;Providers</text>
<polygon fill="#fb8072" stroke="transparent" points="406,-10 406,-30 426,-30 426,-10 406,-10"/>
<text text-anchor="start" x="429.73" y="-15.4" font-family="Times-12" font-size="14.00"> &#160;Exports</text>
<g id="clust1" class="cluster">
<title>cluster_ChargeNetworkServiceModule</title>
<polygon fill="none" stroke="black" stroke-dasharray="1,5" points="50.5,-70 50.5,-195 445.5,-195 445.5,-70 50.5,-70"/>
</g>
<g id="clust3" class="cluster">
<title>cluster_ChargeNetworkServiceModule_imports</title>
<polygon fill="none" stroke="black" points="58.5,-78 58.5,-130 437.5,-130 437.5,-78 58.5,-78"/>
</g>
<!-- ConsensusModule -->
<g id="node1" class="node">
<title>ConsensusModule</title>
<polygon fill="#8dd3c7" stroke="black" points="429.44,-122 426.44,-126 405.44,-126 402.44,-122 309.56,-122 309.56,-86 429.44,-86 429.44,-122"/>
<text text-anchor="middle" x="369.5" y="-99.8" font-family="Times,serif" font-size="14.00">ConsensusModule</text>
</g>
<!-- ChargeNetworkServiceModule -->
<g id="node4" class="node">
<title>ChargeNetworkServiceModule</title>
<polygon fill="#8dd3c7" stroke="black" points="334.93,-187 331.93,-191 310.93,-191 307.93,-187 144.07,-187 144.07,-151 334.93,-151 334.93,-187"/>
<text text-anchor="middle" x="239.5" y="-164.8" font-family="Times,serif" font-size="14.00">ChargeNetworkServiceModule</text>
</g>
<!-- ConsensusModule&#45;&gt;ChargeNetworkServiceModule -->
<g id="edge1" class="edge">
<title>ConsensusModule&#45;&gt;ChargeNetworkServiceModule</title>
<path fill="none" stroke="black" d="M322.37,-122.11C322.37,-122.11 322.37,-140.99 322.37,-140.99"/>
<polygon fill="black" stroke="black" points="318.87,-140.99 322.37,-150.99 325.87,-140.99 318.87,-140.99"/>
</g>
<!-- GraphqlModule -->
<g id="node2" class="node">
<title>GraphqlModule</title>
<polygon fill="#8dd3c7" stroke="black" points="292.42,-122 289.42,-126 268.42,-126 265.42,-122 186.58,-122 186.58,-86 292.42,-86 292.42,-122"/>
<text text-anchor="middle" x="239.5" y="-99.8" font-family="Times,serif" font-size="14.00">GraphqlModule</text>
</g>
<!-- GraphqlModule&#45;&gt;ChargeNetworkServiceModule -->
<g id="edge2" class="edge">
<title>GraphqlModule&#45;&gt;ChargeNetworkServiceModule</title>
<path fill="none" stroke="black" d="M239.5,-122.11C239.5,-122.11 239.5,-140.99 239.5,-140.99"/>
<polygon fill="black" stroke="black" points="236,-140.99 239.5,-150.99 243,-140.99 236,-140.99"/>
</g>
<!-- StakingModule -->
<g id="node3" class="node">
<title>StakingModule</title>
<polygon fill="#8dd3c7" stroke="black" points="168.83,-122 165.83,-126 144.83,-126 141.83,-122 66.17,-122 66.17,-86 168.83,-86 168.83,-122"/>
<text text-anchor="middle" x="117.5" y="-99.8" font-family="Times,serif" font-size="14.00">StakingModule</text>
</g>
<!-- StakingModule&#45;&gt;ChargeNetworkServiceModule -->
<g id="edge3" class="edge">
<title>StakingModule&#45;&gt;ChargeNetworkServiceModule</title>
<path fill="none" stroke="black" d="M156.35,-122.11C156.35,-122.11 156.35,-140.99 156.35,-140.99"/>
<polygon fill="black" stroke="black" points="152.85,-140.99 156.35,-150.99 159.85,-140.99 152.85,-140.99"/>
</g>
</g>
</svg>
