<?xml version="1.0" encoding="UTF-8" standalone="no"?>
<!DOCTYPE svg PUBLIC "-//W3C//DTD SVG 1.1//EN"
 "http://www.w3.org/Graphics/SVG/1.1/DTD/svg11.dtd">
<!-- Generated by graphviz version 2.47.0 (20210316.0004)
 -->
<!-- Title: dependencies Pages: 1 -->
<svg width="532pt" height="211pt"
 viewBox="0.00 0.00 532.00 211.00" xmlns="http://www.w3.org/2000/svg" xmlns:xlink="http://www.w3.org/1999/xlink">
<g id="graph0" class="graph" transform="scale(1 1) rotate(0) translate(4 207)">
<title>dependencies</title>
<polygon fill="white" stroke="transparent" points="-4,4 -4,-207 528,-207 528,4 -4,4"/>
<text text-anchor="start" x="241.01" y="-42.4" font-family="Times-12" font-weight="bold" font-size="14.00">Legend</text>
<polygon fill="#ffffb3" stroke="transparent" points="28,-10 28,-30 48,-30 48,-10 28,-10"/>
<text text-anchor="start" x="51.63" y="-15.4" font-family="Times-12" font-size="14.00"> &#160;Declarations</text>
<polygon fill="#8dd3c7" stroke="transparent" points="141,-10 141,-30 161,-30 161,-10 141,-10"/>
<text text-anchor="start" x="164.73" y="-15.4" font-family="Times-12" font-size="14.00"> &#160;Module</text>
<polygon fill="#80b1d3" stroke="transparent" points="227,-10 227,-30 247,-30 247,-10 227,-10"/>
<text text-anchor="start" x="250.78" y="-15.4" font-family="Times-12" font-size="14.00"> &#160;Bootstrap</text>
<polygon fill="#fdb462" stroke="transparent" points="324,-10 324,-30 344,-30 344,-10 324,-10"/>
<text text-anchor="start" x="347.67" y="-15.4" font-family="Times-12" font-size="14.00"> &#160;Providers</text>
<polygon fill="#fb8072" stroke="transparent" points="420,-10 420,-30 440,-30 440,-10 420,-10"/>
<text text-anchor="start" x="443.73" y="-15.4" font-family="Times-12" font-size="14.00"> &#160;Exports</text>
<g id="clust1" class="cluster">
<title>cluster_SmartWalletsAPIModule</title>
<polygon fill="none" stroke="black" stroke-dasharray="1,5" points="8,-70 8,-195 516,-195 516,-70 8,-70"/>
</g>
<g id="clust3" class="cluster">
<title>cluster_SmartWalletsAPIModule_imports</title>
<polygon fill="none" stroke="black" points="388,-78 388,-130 508,-130 508,-78 388,-78"/>
</g>
<g id="clust6" class="cluster">
<title>cluster_SmartWalletsAPIModule_providers</title>
<polygon fill="none" stroke="black" points="16,-78 16,-130 380,-130 380,-78 16,-78"/>
</g>
<!-- ApiKeyModule -->
<g id="node1" class="node">
<title>ApiKeyModule</title>
<polygon fill="#8dd3c7" stroke="black" points="499.87,-122 496.87,-126 475.87,-126 472.87,-122 396.13,-122 396.13,-86 499.87,-86 499.87,-122"/>
<text text-anchor="middle" x="448" y="-99.8" font-family="Times,serif" font-size="14.00">ApiKeyModule</text>
</g>
<!-- SmartWalletsAPIModule -->
<g id="node2" class="node">
<title>SmartWalletsAPIModule</title>
<polygon fill="#8dd3c7" stroke="black" points="394.3,-187 391.3,-191 370.3,-191 367.3,-187 235.7,-187 235.7,-151 394.3,-151 394.3,-187"/>
<text text-anchor="middle" x="315" y="-164.8" font-family="Times,serif" font-size="14.00">SmartWalletsAPIModule</text>
</g>
<!-- ApiKeyModule&#45;&gt;SmartWalletsAPIModule -->
<g id="edge1" class="edge">
<title>ApiKeyModule&#45;&gt;SmartWalletsAPIModule</title>
<path fill="none" stroke="black" d="M396.06,-104C388.33,-104 382.89,-104 382.89,-104 382.89,-104 382.89,-140.89 382.89,-140.89"/>
<polygon fill="black" stroke="black" points="379.39,-140.89 382.89,-150.89 386.39,-140.89 379.39,-140.89"/>
</g>
<!-- JwtStrategy -->
<g id="node3" class="node">
<title>JwtStrategy</title>
<ellipse fill="#fdb462" stroke="black" cx="315" cy="-104" rx="56.76" ry="18"/>
<text text-anchor="middle" x="315" y="-99.8" font-family="Times,serif" font-size="14.00">JwtStrategy</text>
</g>
<!-- JwtStrategy&#45;&gt;SmartWalletsAPIModule -->
<g id="edge2" class="edge">
<title>JwtStrategy&#45;&gt;SmartWalletsAPIModule</title>
<path fill="none" stroke="black" d="M315,-122.11C315,-122.11 315,-140.99 315,-140.99"/>
<polygon fill="black" stroke="black" points="311.5,-140.99 315,-150.99 318.5,-140.99 311.5,-140.99"/>
</g>
<!-- SmartWalletsAPIService -->
<g id="node4" class="node">
<title>SmartWalletsAPIService</title>
<ellipse fill="#fdb462" stroke="black" cx="132" cy="-104" rx="108.21" ry="18"/>
<text text-anchor="middle" x="132" y="-99.8" font-family="Times,serif" font-size="14.00">SmartWalletsAPIService</text>
</g>
<!-- SmartWalletsAPIService&#45;&gt;SmartWalletsAPIModule -->
<g id="edge3" class="edge">
<title>SmartWalletsAPIService&#45;&gt;SmartWalletsAPIModule</title>
<path fill="none" stroke="black" d="M240.43,-104C245.93,-104 249.24,-104 249.24,-104 249.24,-104 249.24,-140.89 249.24,-140.89"/>
<polygon fill="black" stroke="black" points="245.74,-140.89 249.24,-150.89 252.74,-140.89 245.74,-140.89"/>
</g>
</g>
</svg>
