<?xml version="1.0" encoding="UTF-8" standalone="no"?>
<!DOCTYPE svg PUBLIC "-//W3C//DTD SVG 1.1//EN"
 "http://www.w3.org/Graphics/SVG/1.1/DTD/svg11.dtd">
<!-- Generated by graphviz version 2.47.0 (20210316.0004)
 -->
<!-- Title: dependencies Pages: 1 -->
<svg width="532pt" height="211pt"
 viewBox="0.00 0.00 532.00 211.00" xmlns="http://www.w3.org/2000/svg" xmlns:xlink="http://www.w3.org/1999/xlink">
<g id="graph0" class="graph" transform="scale(1 1) rotate(0) translate(4 207)">
<title>dependencies</title>
<polygon fill="white" stroke="transparent" points="-4,4 -4,-207 528,-207 528,4 -4,4"/>
<text text-anchor="start" x="241.01" y="-42.4" font-family="Times-12" font-weight="bold" font-size="14.00">Legend</text>
<polygon fill="#ffffb3" stroke="transparent" points="28,-10 28,-30 48,-30 48,-10 28,-10"/>
<text text-anchor="start" x="51.63" y="-15.4" font-family="Times-12" font-size="14.00"> &#160;Declarations</text>
<polygon fill="#8dd3c7" stroke="transparent" points="141,-10 141,-30 161,-30 161,-10 141,-10"/>
<text text-anchor="start" x="164.73" y="-15.4" font-family="Times-12" font-size="14.00"> &#160;Module</text>
<polygon fill="#80b1d3" stroke="transparent" points="227,-10 227,-30 247,-30 247,-10 227,-10"/>
<text text-anchor="start" x="250.78" y="-15.4" font-family="Times-12" font-size="14.00"> &#160;Bootstrap</text>
<polygon fill="#fdb462" stroke="transparent" points="324,-10 324,-30 344,-30 344,-10 324,-10"/>
<text text-anchor="start" x="347.67" y="-15.4" font-family="Times-12" font-size="14.00"> &#160;Providers</text>
<polygon fill="#fb8072" stroke="transparent" points="420,-10 420,-30 440,-30 440,-10 420,-10"/>
<text text-anchor="start" x="443.73" y="-15.4" font-family="Times-12" font-size="14.00"> &#160;Exports</text>
<g id="clust1" class="cluster">
<title>cluster_SmartWalletsAPIModule</title>
<polygon fill="none" stroke="black" stroke-dasharray="1,5" points="8,-70 8,-195 516,-195 516,-70 8,-70"/>
</g>
<g id="clust6" class="cluster">
<title>cluster_SmartWalletsAPIModule_providers</title>
<polygon fill="none" stroke="black" points="144,-78 144,-130 508,-130 508,-78 144,-78"/>
</g>
<g id="clust3" class="cluster">
<title>cluster_SmartWalletsAPIModule_imports</title>
<polygon fill="none" stroke="black" points="16,-78 16,-130 136,-130 136,-78 16,-78"/>
</g>
<!-- ApiKeyModule -->
<g id="node1" class="node">
<title>ApiKeyModule</title>
<polygon fill="#8dd3c7" stroke="black" points="127.87,-122 124.87,-126 103.87,-126 100.87,-122 24.13,-122 24.13,-86 127.87,-86 127.87,-122"/>
<text text-anchor="middle" x="76" y="-99.8" font-family="Times,serif" font-size="14.00">ApiKeyModule</text>
</g>
<!-- SmartWalletsAPIModule -->
<g id="node2" class="node">
<title>SmartWalletsAPIModule</title>
<polygon fill="#8dd3c7" stroke="black" points="339.3,-187 336.3,-191 315.3,-191 312.3,-187 180.7,-187 180.7,-151 339.3,-151 339.3,-187"/>
<text text-anchor="middle" x="260" y="-164.8" font-family="Times,serif" font-size="14.00">SmartWalletsAPIModule</text>
</g>
<!-- ApiKeyModule&#45;&gt;SmartWalletsAPIModule -->
<g id="edge1" class="edge">
<title>ApiKeyModule&#45;&gt;SmartWalletsAPIModule</title>
<path fill="none" stroke="black" d="M76,-122.11C76,-141.34 76,-169 76,-169 76,-169 170.63,-169 170.63,-169"/>
<polygon fill="black" stroke="black" points="170.63,-172.5 180.63,-169 170.63,-165.5 170.63,-172.5"/>
</g>
<!-- JwtStrategy -->
<g id="node3" class="node">
<title>JwtStrategy</title>
<ellipse fill="#fdb462" stroke="black" cx="443" cy="-104" rx="56.76" ry="18"/>
<text text-anchor="middle" x="443" y="-99.8" font-family="Times,serif" font-size="14.00">JwtStrategy</text>
</g>
<!-- JwtStrategy&#45;&gt;SmartWalletsAPIModule -->
<g id="edge2" class="edge">
<title>JwtStrategy&#45;&gt;SmartWalletsAPIModule</title>
<path fill="none" stroke="black" d="M443,-122.11C443,-141.34 443,-169 443,-169 443,-169 349.2,-169 349.2,-169"/>
<polygon fill="black" stroke="black" points="349.2,-165.5 339.2,-169 349.2,-172.5 349.2,-165.5"/>
</g>
<!-- SmartWalletsAPIService -->
<g id="node4" class="node">
<title>SmartWalletsAPIService</title>
<ellipse fill="#fdb462" stroke="black" cx="260" cy="-104" rx="108.21" ry="18"/>
<text text-anchor="middle" x="260" y="-99.8" font-family="Times,serif" font-size="14.00">SmartWalletsAPIService</text>
</g>
<!-- SmartWalletsAPIService&#45;&gt;SmartWalletsAPIModule -->
<g id="edge3" class="edge">
<title>SmartWalletsAPIService&#45;&gt;SmartWalletsAPIModule</title>
<path fill="none" stroke="black" d="M260,-122.11C260,-122.11 260,-140.99 260,-140.99"/>
<polygon fill="black" stroke="black" points="256.5,-140.99 260,-150.99 263.5,-140.99 256.5,-140.99"/>
</g>
</g>
</svg>
