<?xml version="1.0" encoding="UTF-8" standalone="no"?>
<!DOCTYPE svg PUBLIC "-//W3C//DTD SVG 1.1//EN"
 "http://www.w3.org/Graphics/SVG/1.1/DTD/svg11.dtd">
<!-- Generated by graphviz version 2.47.3 (20210619.1520)
 -->
<!-- Title: dependencies Pages: 1 -->
<svg width="376pt" height="174pt"
 viewBox="0.00 0.00 376.00 173.80" xmlns="http://www.w3.org/2000/svg" xmlns:xlink="http://www.w3.org/1999/xlink">
<g id="graph0" class="graph" transform="scale(1 1) rotate(0) translate(4 169.8)">
<title>dependencies</title>
<polygon fill="white" stroke="transparent" points="-4,4 -4,-169.8 372,-169.8 372,4 -4,4"/>
<text text-anchor="middle" x="184" y="-8.2" font-family="sans-serif" font-size="14.00">dependencies</text>
<g id="clust1" class="cluster">
<title>cluster_AppModule</title>
<polygon fill="none" stroke="black" stroke-dasharray="1,5" points="8,-32.8 8,-157.8 360,-157.8 360,-32.8 8,-32.8"/>
</g>
<g id="clust3" class="cluster">
<title>cluster_AppModule_imports</title>
<polygon fill="none" stroke="black" points="16,-40.8 16,-92.8 352,-92.8 352,-40.8 16,-40.8"/>
</g>
<!-- AuthModule -->
<g id="node1" class="node">
<title>AuthModule</title>
<polygon fill="#8dd3c7" stroke="black" points="343.55,-84.8 340.55,-88.8 319.55,-88.8 316.55,-84.8 256.45,-84.8 256.45,-48.8 343.55,-48.8 343.55,-84.8"/>
<text text-anchor="middle" x="300" y="-62.6" font-family="Times,serif" font-size="14.00">AuthModule</text>
</g>
<!-- AppModule -->
<g id="node4" class="node">
<title>AppModule</title>
<polygon fill="#8dd3c7" stroke="black" points="227.66,-149.8 224.66,-153.8 203.66,-153.8 200.66,-149.8 144.34,-149.8 144.34,-113.8 227.66,-113.8 227.66,-149.8"/>
<text text-anchor="middle" x="186" y="-127.6" font-family="Times,serif" font-size="14.00">AppModule</text>
</g>
<!-- AuthModule&#45;&gt;AppModule -->
<g id="edge1" class="edge">
<title>AuthModule&#45;&gt;AppModule</title>
<path fill="none" stroke="black" d="M300,-84.91C300,-104.14 300,-131.8 300,-131.8 300,-131.8 237.8,-131.8 237.8,-131.8"/>
<polygon fill="black" stroke="black" points="237.8,-128.3 227.8,-131.8 237.8,-135.3 237.8,-128.3"/>
</g>
<!-- ProjectsModule -->
<g id="node2" class="node">
<title>ProjectsModule</title>
<polygon fill="#8dd3c7" stroke="black" points="238.15,-84.8 235.15,-88.8 214.15,-88.8 211.15,-84.8 133.85,-84.8 133.85,-48.8 238.15,-48.8 238.15,-84.8"/>
<text text-anchor="middle" x="186" y="-62.6" font-family="Times,serif" font-size="14.00">ProjectsModule</text>
</g>
<!-- ProjectsModule&#45;&gt;AppModule -->
<g id="edge2" class="edge">
<title>ProjectsModule&#45;&gt;AppModule</title>
<path fill="none" stroke="black" d="M186,-84.91C186,-84.91 186,-103.79 186,-103.79"/>
<polygon fill="black" stroke="black" points="182.5,-103.79 186,-113.79 189.5,-103.79 182.5,-103.79"/>
</g>
<!-- UsersModule -->
<g id="node3" class="node">
<title>UsersModule</title>
<polygon fill="#8dd3c7" stroke="black" points="115.92,-84.8 112.92,-88.8 91.92,-88.8 88.92,-84.8 24.08,-84.8 24.08,-48.8 115.92,-48.8 115.92,-84.8"/>
<text text-anchor="middle" x="70" y="-62.6" font-family="Times,serif" font-size="14.00">UsersModule</text>
</g>
<!-- UsersModule&#45;&gt;AppModule -->
<g id="edge3" class="edge">
<title>UsersModule&#45;&gt;AppModule</title>
<path fill="none" stroke="black" d="M70,-84.91C70,-104.14 70,-131.8 70,-131.8 70,-131.8 134.12,-131.8 134.12,-131.8"/>
<polygon fill="black" stroke="black" points="134.12,-135.3 144.12,-131.8 134.12,-128.3 134.12,-135.3"/>
</g>
</g>
</svg>
