<?xml version="1.0" encoding="UTF-8" standalone="no"?>
<!DOCTYPE svg PUBLIC "-//W3C//DTD SVG 1.1//EN"
 "http://www.w3.org/Graphics/SVG/1.1/DTD/svg11.dtd">
<!-- Generated by graphviz version 2.47.0 (20210316.0004)
 -->
<!-- Title: dependencies Pages: 1 -->
<svg width="1376pt" height="211pt"
 viewBox="0.00 0.00 1376.00 211.00" xmlns="http://www.w3.org/2000/svg" xmlns:xlink="http://www.w3.org/1999/xlink">
<g id="graph0" class="graph" transform="scale(1 1) rotate(0) translate(4 207)">
<title>dependencies</title>
<polygon fill="white" stroke="transparent" points="-4,4 -4,-207 1372,-207 1372,4 -4,4"/>
<text text-anchor="start" x="663.01" y="-42.4" font-family="Times-12" font-weight="bold" font-size="14.00">Legend</text>
<polygon fill="#ffffb3" stroke="transparent" points="450,-10 450,-30 470,-30 470,-10 450,-10"/>
<text text-anchor="start" x="473.63" y="-15.4" font-family="Times-12" font-size="14.00"> &#160;Declarations</text>
<polygon fill="#8dd3c7" stroke="transparent" points="563,-10 563,-30 583,-30 583,-10 563,-10"/>
<text text-anchor="start" x="586.73" y="-15.4" font-family="Times-12" font-size="14.00"> &#160;Module</text>
<polygon fill="#80b1d3" stroke="transparent" points="649,-10 649,-30 669,-30 669,-10 649,-10"/>
<text text-anchor="start" x="672.78" y="-15.4" font-family="Times-12" font-size="14.00"> &#160;Bootstrap</text>
<polygon fill="#fdb462" stroke="transparent" points="746,-10 746,-30 766,-30 766,-10 746,-10"/>
<text text-anchor="start" x="769.67" y="-15.4" font-family="Times-12" font-size="14.00"> &#160;Providers</text>
<polygon fill="#fb8072" stroke="transparent" points="842,-10 842,-30 862,-30 862,-10 842,-10"/>
<text text-anchor="start" x="865.73" y="-15.4" font-family="Times-12" font-size="14.00"> &#160;Exports</text>
<g id="clust1" class="cluster">
<title>cluster_DataLayerModule</title>
<polygon fill="none" stroke="black" stroke-dasharray="1,5" points="8,-70 8,-195 1360,-195 1360,-70 8,-70"/>
</g>
<g id="clust6" class="cluster">
<title>cluster_DataLayerModule_providers</title>
<polygon fill="none" stroke="black" points="264,-78 264,-130 1352,-130 1352,-78 264,-78"/>
</g>
<g id="clust3" class="cluster">
<title>cluster_DataLayerModule_imports</title>
<polygon fill="none" stroke="black" points="16,-78 16,-130 256,-130 256,-78 16,-78"/>
</g>
<!-- DatabaseModule -->
<g id="node1" class="node">
<title>DatabaseModule</title>
<polygon fill="#8dd3c7" stroke="black" points="248.35,-122 245.35,-126 224.35,-126 221.35,-122 137.65,-122 137.65,-86 248.35,-86 248.35,-122"/>
<text text-anchor="middle" x="193" y="-99.8" font-family="Times,serif" font-size="14.00">DatabaseModule</text>
</g>
<!-- DataLayerModule -->
<g id="node3" class="node">
<title>DataLayerModule</title>
<polygon fill="#8dd3c7" stroke="black" points="626.12,-187 623.12,-191 602.12,-191 599.12,-187 507.88,-187 507.88,-151 626.12,-151 626.12,-187"/>
<text text-anchor="middle" x="567" y="-164.8" font-family="Times,serif" font-size="14.00">DataLayerModule</text>
</g>
<!-- DatabaseModule&#45;&gt;DataLayerModule -->
<g id="edge1" class="edge">
<title>DatabaseModule&#45;&gt;DataLayerModule</title>
<path fill="none" stroke="black" d="M193,-122.11C193,-141.34 193,-169 193,-169 193,-169 497.74,-169 497.74,-169"/>
<polygon fill="black" stroke="black" points="497.74,-172.5 507.74,-169 497.74,-165.5 497.74,-172.5"/>
</g>
<!-- TokenModule -->
<g id="node2" class="node">
<title>TokenModule</title>
<polygon fill="#8dd3c7" stroke="black" points="119.82,-122 116.82,-126 95.82,-126 92.82,-122 24.18,-122 24.18,-86 119.82,-86 119.82,-122"/>
<text text-anchor="middle" x="72" y="-99.8" font-family="Times,serif" font-size="14.00">TokenModule</text>
</g>
<!-- TokenModule&#45;&gt;DataLayerModule -->
<g id="edge2" class="edge">
<title>TokenModule&#45;&gt;DataLayerModule</title>
<path fill="none" stroke="black" d="M72,-122.29C72,-144.21 72,-178 72,-178 72,-178 497.78,-178 497.78,-178"/>
<polygon fill="black" stroke="black" points="497.78,-181.5 507.78,-178 497.78,-174.5 497.78,-181.5"/>
</g>
<!-- AnalyticsService -->
<g id="node4" class="node">
<title>AnalyticsService</title>
<ellipse fill="#fdb462" stroke="black" cx="1267" cy="-104" rx="77" ry="18"/>
<text text-anchor="middle" x="1267" y="-99.8" font-family="Times,serif" font-size="14.00">AnalyticsService</text>
</g>
<!-- AnalyticsService&#45;&gt;DataLayerModule -->
<g id="edge3" class="edge">
<title>AnalyticsService&#45;&gt;DataLayerModule</title>
<path fill="none" stroke="black" d="M1267,-122.29C1267,-144.21 1267,-178 1267,-178 1267,-178 636.38,-178 636.38,-178"/>
<polygon fill="black" stroke="black" points="636.38,-174.5 626.38,-178 636.38,-181.5 636.38,-174.5"/>
</g>
<!-- DataLayerService -->
<g id="node5" class="node">
<title>DataLayerService</title>
<ellipse fill="#fdb462" stroke="black" cx="1091" cy="-104" rx="80.97" ry="18"/>
<text text-anchor="middle" x="1091" y="-99.8" font-family="Times,serif" font-size="14.00">DataLayerService</text>
</g>
<!-- DataLayerService&#45;&gt;DataLayerModule -->
<g id="edge4" class="edge">
<title>DataLayerService&#45;&gt;DataLayerModule</title>
<path fill="none" stroke="black" d="M1091,-122.11C1091,-141.34 1091,-169 1091,-169 1091,-169 636.34,-169 636.34,-169"/>
<polygon fill="black" stroke="black" points="636.34,-165.5 626.34,-169 636.34,-172.5 636.34,-165.5"/>
</g>
<!-- SmartWalletsAAEventsService -->
<g id="node6" class="node">
<title>SmartWalletsAAEventsService</title>
<ellipse fill="#fdb462" stroke="black" cx="859" cy="-104" rx="132.56" ry="18"/>
<text text-anchor="middle" x="859" y="-99.8" font-family="Times,serif" font-size="14.00">SmartWalletsAAEventsService</text>
</g>
<!-- SmartWalletsAAEventsService&#45;&gt;DataLayerModule -->
<g id="edge5" class="edge">
<title>SmartWalletsAAEventsService&#45;&gt;DataLayerModule</title>
<path fill="none" stroke="black" d="M859,-122.03C859,-138.4 859,-160 859,-160 859,-160 636.44,-160 636.44,-160"/>
<polygon fill="black" stroke="black" points="636.44,-156.5 626.44,-160 636.44,-163.5 636.44,-156.5"/>
</g>
<!-- TokenService -->
<g id="node7" class="node">
<title>TokenService</title>
<ellipse fill="#fdb462" stroke="black" cx="644" cy="-104" rx="64.83" ry="18"/>
<text text-anchor="middle" x="644" y="-99.8" font-family="Times,serif" font-size="14.00">TokenService</text>
</g>
<!-- TokenService&#45;&gt;DataLayerModule -->
<g id="edge6" class="edge">
<title>TokenService&#45;&gt;DataLayerModule</title>
<path fill="none" stroke="black" d="M602.82,-118.1C602.82,-118.1 602.82,-140.72 602.82,-140.72"/>
<polygon fill="black" stroke="black" points="599.32,-140.72 602.82,-150.72 606.32,-140.72 599.32,-140.72"/>
</g>
<!-- UserOpFactory -->
<g id="node8" class="node">
<title>UserOpFactory</title>
<ellipse fill="#fdb462" stroke="black" cx="491" cy="-104" rx="70.62" ry="18"/>
<text text-anchor="middle" x="491" y="-99.8" font-family="Times,serif" font-size="14.00">UserOpFactory</text>
</g>
<!-- UserOpFactory&#45;&gt;DataLayerModule -->
<g id="edge7" class="edge">
<title>UserOpFactory&#45;&gt;DataLayerModule</title>
<path fill="none" stroke="black" d="M534.63,-118.43C534.63,-118.43 534.63,-140.89 534.63,-140.89"/>
<polygon fill="black" stroke="black" points="531.13,-140.89 534.63,-150.89 538.13,-140.89 531.13,-140.89"/>
</g>
<!-- UserOpParser -->
<g id="node9" class="node">
<title>UserOpParser</title>
<ellipse fill="#fdb462" stroke="black" cx="337" cy="-104" rx="65.38" ry="18"/>
<text text-anchor="middle" x="337" y="-99.8" font-family="Times,serif" font-size="14.00">UserOpParser</text>
</g>
<!-- UserOpParser&#45;&gt;DataLayerModule -->
<g id="edge8" class="edge">
<title>UserOpParser&#45;&gt;DataLayerModule</title>
<path fill="none" stroke="black" d="M337,-122.03C337,-138.4 337,-160 337,-160 337,-160 497.77,-160 497.77,-160"/>
<polygon fill="black" stroke="black" points="497.77,-163.5 507.77,-160 497.77,-156.5 497.77,-163.5"/>
</g>
</g>
</svg>
