<?xml version="1.0" encoding="UTF-8" standalone="no"?>
<!DOCTYPE svg PUBLIC "-//W3C//DTD SVG 1.1//EN"
 "http://www.w3.org/Graphics/SVG/1.1/DTD/svg11.dtd">
<!-- Generated by graphviz version 2.47.0 (20210316.0004)
 -->
<!-- Title: dependencies Pages: 1 -->
<svg width="1405pt" height="211pt"
 viewBox="0.00 0.00 1405.00 211.00" xmlns="http://www.w3.org/2000/svg" xmlns:xlink="http://www.w3.org/1999/xlink">
<g id="graph0" class="graph" transform="scale(1 1) rotate(0) translate(4 207)">
<title>dependencies</title>
<polygon fill="white" stroke="transparent" points="-4,4 -4,-207 1401,-207 1401,4 -4,4"/>
<text text-anchor="start" x="677.51" y="-42.4" font-family="Times-12" font-weight="bold" font-size="14.00">Legend</text>
<polygon fill="#ffffb3" stroke="transparent" points="464.5,-10 464.5,-30 484.5,-30 484.5,-10 464.5,-10"/>
<text text-anchor="start" x="488.13" y="-15.4" font-family="Times-12" font-size="14.00"> &#160;Declarations</text>
<polygon fill="#8dd3c7" stroke="transparent" points="577.5,-10 577.5,-30 597.5,-30 597.5,-10 577.5,-10"/>
<text text-anchor="start" x="601.23" y="-15.4" font-family="Times-12" font-size="14.00"> &#160;Module</text>
<polygon fill="#80b1d3" stroke="transparent" points="663.5,-10 663.5,-30 683.5,-30 683.5,-10 663.5,-10"/>
<text text-anchor="start" x="687.28" y="-15.4" font-family="Times-12" font-size="14.00"> &#160;Bootstrap</text>
<polygon fill="#fdb462" stroke="transparent" points="760.5,-10 760.5,-30 780.5,-30 780.5,-10 760.5,-10"/>
<text text-anchor="start" x="784.17" y="-15.4" font-family="Times-12" font-size="14.00"> &#160;Providers</text>
<polygon fill="#fb8072" stroke="transparent" points="856.5,-10 856.5,-30 876.5,-30 876.5,-10 856.5,-10"/>
<text text-anchor="start" x="880.23" y="-15.4" font-family="Times-12" font-size="14.00"> &#160;Exports</text>
<g id="clust1" class="cluster">
<title>cluster_DataLayerModule</title>
<polygon fill="none" stroke="black" stroke-dasharray="1,5" points="8,-70 8,-195 1389,-195 1389,-70 8,-70"/>
</g>
<g id="clust3" class="cluster">
<title>cluster_DataLayerModule_imports</title>
<polygon fill="none" stroke="black" points="1255,-78 1255,-130 1381,-130 1381,-78 1255,-78"/>
</g>
<g id="clust6" class="cluster">
<title>cluster_DataLayerModule_providers</title>
<polygon fill="none" stroke="black" points="16,-78 16,-130 1247,-130 1247,-78 16,-78"/>
</g>
<!-- DatabaseModule -->
<g id="node1" class="node">
<title>DatabaseModule</title>
<polygon fill="#8dd3c7" stroke="black" points="1373.35,-122 1370.35,-126 1349.35,-126 1346.35,-122 1262.65,-122 1262.65,-86 1373.35,-86 1373.35,-122"/>
<text text-anchor="middle" x="1318" y="-99.8" font-family="Times,serif" font-size="14.00">DatabaseModule</text>
</g>
<!-- DataLayerModule -->
<g id="node2" class="node">
<title>DataLayerModule</title>
<polygon fill="#8dd3c7" stroke="black" points="705.12,-187 702.12,-191 681.12,-191 678.12,-187 586.88,-187 586.88,-151 705.12,-151 705.12,-187"/>
<text text-anchor="middle" x="646" y="-164.8" font-family="Times,serif" font-size="14.00">DataLayerModule</text>
</g>
<!-- DatabaseModule&#45;&gt;DataLayerModule -->
<g id="edge1" class="edge">
<title>DatabaseModule&#45;&gt;DataLayerModule</title>
<path fill="none" stroke="black" d="M1318,-122.29C1318,-144.21 1318,-178 1318,-178 1318,-178 715.34,-178 715.34,-178"/>
<polygon fill="black" stroke="black" points="715.34,-174.5 705.34,-178 715.34,-181.5 715.34,-174.5"/>
</g>
<!-- AnalyticsService -->
<g id="node3" class="node">
<title>AnalyticsService</title>
<ellipse fill="#fdb462" stroke="black" cx="1162" cy="-104" rx="77" ry="18"/>
<text text-anchor="middle" x="1162" y="-99.8" font-family="Times,serif" font-size="14.00">AnalyticsService</text>
</g>
<!-- AnalyticsService&#45;&gt;DataLayerModule -->
<g id="edge2" class="edge">
<title>AnalyticsService&#45;&gt;DataLayerModule</title>
<path fill="none" stroke="black" d="M1162,-122.11C1162,-141.34 1162,-169 1162,-169 1162,-169 715.19,-169 715.19,-169"/>
<polygon fill="black" stroke="black" points="715.19,-165.5 705.19,-169 715.19,-172.5 715.19,-165.5"/>
</g>
<!-- DataLayerService -->
<g id="node4" class="node">
<title>DataLayerService</title>
<ellipse fill="#fdb462" stroke="black" cx="986" cy="-104" rx="80.97" ry="18"/>
<text text-anchor="middle" x="986" y="-99.8" font-family="Times,serif" font-size="14.00">DataLayerService</text>
</g>
<!-- DataLayerService&#45;&gt;DataLayerModule -->
<g id="edge3" class="edge">
<title>DataLayerService&#45;&gt;DataLayerModule</title>
<path fill="none" stroke="black" d="M986,-122.03C986,-138.4 986,-160 986,-160 986,-160 715.22,-160 715.22,-160"/>
<polygon fill="black" stroke="black" points="715.22,-156.5 705.22,-160 715.22,-163.5 715.22,-156.5"/>
</g>
<!-- SmartWalletsAAEventsService -->
<g id="node5" class="node">
<title>SmartWalletsAAEventsService</title>
<ellipse fill="#fdb462" stroke="black" cx="754" cy="-104" rx="132.56" ry="18"/>
<text text-anchor="middle" x="754" y="-99.8" font-family="Times,serif" font-size="14.00">SmartWalletsAAEventsService</text>
</g>
<!-- SmartWalletsAAEventsService&#45;&gt;DataLayerModule -->
<g id="edge4" class="edge">
<title>SmartWalletsAAEventsService&#45;&gt;DataLayerModule</title>
<path fill="none" stroke="black" d="M663.27,-117.15C663.27,-117.15 663.27,-140.69 663.27,-140.69"/>
<polygon fill="black" stroke="black" points="659.77,-140.69 663.27,-150.69 666.77,-140.69 659.77,-140.69"/>
</g>
<!-- TokenService -->
<g id="node6" class="node">
<title>TokenService</title>
<ellipse fill="#fdb462" stroke="black" cx="539" cy="-104" rx="64.83" ry="18"/>
<text text-anchor="middle" x="539" y="-99.8" font-family="Times,serif" font-size="14.00">TokenService</text>
</g>
<!-- TokenService&#45;&gt;DataLayerModule -->
<g id="edge5" class="edge">
<title>TokenService&#45;&gt;DataLayerModule</title>
<path fill="none" stroke="black" d="M595.18,-113.04C595.18,-113.04 595.18,-140.96 595.18,-140.96"/>
<polygon fill="black" stroke="black" points="591.68,-140.96 595.18,-150.96 598.68,-140.96 591.68,-140.96"/>
</g>
<!-- TradeService -->
<g id="node7" class="node">
<title>TradeService</title>
<ellipse fill="#fdb462" stroke="black" cx="394" cy="-104" rx="62.52" ry="18"/>
<text text-anchor="middle" x="394" y="-99.8" font-family="Times,serif" font-size="14.00">TradeService</text>
</g>
<!-- TradeService&#45;&gt;DataLayerModule -->
<g id="edge6" class="edge">
<title>TradeService&#45;&gt;DataLayerModule</title>
<path fill="none" stroke="black" d="M394,-122.03C394,-138.4 394,-160 394,-160 394,-160 576.6,-160 576.6,-160"/>
<polygon fill="black" stroke="black" points="576.6,-163.5 586.6,-160 576.6,-156.5 576.6,-163.5"/>
</g>
<!-- UserOpFactory -->
<g id="node8" class="node">
<title>UserOpFactory</title>
<ellipse fill="#fdb462" stroke="black" cx="243" cy="-104" rx="70.62" ry="18"/>
<text text-anchor="middle" x="243" y="-99.8" font-family="Times,serif" font-size="14.00">UserOpFactory</text>
</g>
<!-- UserOpFactory&#45;&gt;DataLayerModule -->
<g id="edge7" class="edge">
<title>UserOpFactory&#45;&gt;DataLayerModule</title>
<path fill="none" stroke="black" d="M243,-122.11C243,-141.34 243,-169 243,-169 243,-169 576.54,-169 576.54,-169"/>
<polygon fill="black" stroke="black" points="576.54,-172.5 586.54,-169 576.54,-165.5 576.54,-172.5"/>
</g>
<!-- UserOpParser -->
<g id="node9" class="node">
<title>UserOpParser</title>
<ellipse fill="#fdb462" stroke="black" cx="89" cy="-104" rx="65.38" ry="18"/>
<text text-anchor="middle" x="89" y="-99.8" font-family="Times,serif" font-size="14.00">UserOpParser</text>
</g>
<!-- UserOpParser&#45;&gt;DataLayerModule -->
<g id="edge8" class="edge">
<title>UserOpParser&#45;&gt;DataLayerModule</title>
<path fill="none" stroke="black" d="M89,-122.29C89,-144.21 89,-178 89,-178 89,-178 576.66,-178 576.66,-178"/>
<polygon fill="black" stroke="black" points="576.66,-181.5 586.66,-178 576.66,-174.5 576.66,-181.5"/>
</g>
</g>
</svg>
