<?xml version="1.0" encoding="UTF-8" standalone="no"?>
<!DOCTYPE svg PUBLIC "-//W3C//DTD SVG 1.1//EN"
 "http://www.w3.org/Graphics/SVG/1.1/DTD/svg11.dtd">
<!-- Generated by graphviz version 2.47.3 (20210619.1520)
 -->
<!-- Title: dependencies Pages: 1 -->
<svg width="442pt" height="174pt"
 viewBox="0.00 0.00 442.00 173.80" xmlns="http://www.w3.org/2000/svg" xmlns:xlink="http://www.w3.org/1999/xlink">
<g id="graph0" class="graph" transform="scale(1 1) rotate(0) translate(4 169.8)">
<title>dependencies</title>
<polygon fill="white" stroke="transparent" points="-4,4 -4,-169.8 438,-169.8 438,4 -4,4"/>
<text text-anchor="middle" x="217" y="-8.2" font-family="sans-serif" font-size="14.00">dependencies</text>
<g id="clust1" class="cluster">
<title>cluster_ProjectsModule</title>
<polygon fill="none" stroke="black" stroke-dasharray="1,5" points="8,-32.8 8,-157.8 426,-157.8 426,-32.8 8,-32.8"/>
</g>
<g id="clust3" class="cluster">
<title>cluster_ProjectsModule_imports</title>
<polygon fill="none" stroke="black" points="182,-40.8 182,-92.8 418,-92.8 418,-40.8 182,-40.8"/>
</g>
<g id="clust6" class="cluster">
<title>cluster_ProjectsModule_providers</title>
<polygon fill="none" stroke="black" points="16,-40.8 16,-92.8 174,-92.8 174,-40.8 16,-40.8"/>
</g>
<!-- DatabaseModule -->
<g id="node1" class="node">
<title>DatabaseModule</title>
<polygon fill="#8dd3c7" stroke="black" points="410.35,-84.8 407.35,-88.8 386.35,-88.8 383.35,-84.8 299.65,-84.8 299.65,-48.8 410.35,-48.8 410.35,-84.8"/>
<text text-anchor="middle" x="355" y="-62.6" font-family="Times,serif" font-size="14.00">DatabaseModule</text>
</g>
<!-- ProjectsModule -->
<g id="node3" class="node">
<title>ProjectsModule</title>
<polygon fill="#8dd3c7" stroke="black" points="288.15,-149.8 285.15,-153.8 264.15,-153.8 261.15,-149.8 183.85,-149.8 183.85,-113.8 288.15,-113.8 288.15,-149.8"/>
<text text-anchor="middle" x="236" y="-127.6" font-family="Times,serif" font-size="14.00">ProjectsModule</text>
</g>
<!-- DatabaseModule&#45;&gt;ProjectsModule -->
<g id="edge1" class="edge">
<title>DatabaseModule&#45;&gt;ProjectsModule</title>
<path fill="none" stroke="black" d="M355,-84.91C355,-104.14 355,-131.8 355,-131.8 355,-131.8 298.2,-131.8 298.2,-131.8"/>
<polygon fill="black" stroke="black" points="298.2,-128.3 288.2,-131.8 298.2,-135.3 298.2,-128.3"/>
</g>
<!-- UsersModule -->
<g id="node2" class="node">
<title>UsersModule</title>
<polygon fill="#8dd3c7" stroke="black" points="281.92,-84.8 278.92,-88.8 257.92,-88.8 254.92,-84.8 190.08,-84.8 190.08,-48.8 281.92,-48.8 281.92,-84.8"/>
<text text-anchor="middle" x="236" y="-62.6" font-family="Times,serif" font-size="14.00">UsersModule</text>
</g>
<!-- UsersModule&#45;&gt;ProjectsModule -->
<g id="edge2" class="edge">
<title>UsersModule&#45;&gt;ProjectsModule</title>
<path fill="none" stroke="black" d="M236,-84.91C236,-84.91 236,-103.79 236,-103.79"/>
<polygon fill="black" stroke="black" points="232.5,-103.79 236,-113.79 239.5,-103.79 232.5,-103.79"/>
</g>
<!-- ProjectsService -->
<g id="node4" class="node">
<title>ProjectsService</title>
<ellipse fill="#fdb462" stroke="black" cx="95" cy="-66.8" rx="71.2" ry="18"/>
<text text-anchor="middle" x="95" y="-62.6" font-family="Times,serif" font-size="14.00">ProjectsService</text>
</g>
<!-- ProjectsService&#45;&gt;ProjectsModule -->
<g id="edge3" class="edge">
<title>ProjectsService&#45;&gt;ProjectsModule</title>
<path fill="none" stroke="black" d="M95,-84.91C95,-104.14 95,-131.8 95,-131.8 95,-131.8 173.5,-131.8 173.5,-131.8"/>
<polygon fill="black" stroke="black" points="173.5,-135.3 183.5,-131.8 173.5,-128.3 173.5,-135.3"/>
</g>
</g>
</svg>
