<?xml version="1.0" encoding="UTF-8" standalone="no"?>
<!DOCTYPE svg PUBLIC "-//W3C//DTD SVG 1.1//EN"
 "http://www.w3.org/Graphics/SVG/1.1/DTD/svg11.dtd">
<!-- Generated by graphviz version 2.47.0 (20210316.0004)
 -->
<!-- Title: dependencies Pages: 1 -->
<svg width="504pt" height="284pt"
 viewBox="0.00 0.00 504.00 284.00" xmlns="http://www.w3.org/2000/svg" xmlns:xlink="http://www.w3.org/1999/xlink">
<g id="graph0" class="graph" transform="scale(1 1) rotate(0) translate(4 280)">
<title>dependencies</title>
<polygon fill="white" stroke="transparent" points="-4,4 -4,-280 500,-280 500,4 -4,4"/>
<text text-anchor="start" x="227.01" y="-42.4" font-family="Times-12" font-weight="bold" font-size="14.00">Legend</text>
<polygon fill="#ffffb3" stroke="transparent" points="14,-10 14,-30 34,-30 34,-10 14,-10"/>
<text text-anchor="start" x="37.63" y="-15.4" font-family="Times-12" font-size="14.00"> &#160;Declarations</text>
<polygon fill="#8dd3c7" stroke="transparent" points="127,-10 127,-30 147,-30 147,-10 127,-10"/>
<text text-anchor="start" x="150.73" y="-15.4" font-family="Times-12" font-size="14.00"> &#160;Module</text>
<polygon fill="#80b1d3" stroke="transparent" points="213,-10 213,-30 233,-30 233,-10 213,-10"/>
<text text-anchor="start" x="236.78" y="-15.4" font-family="Times-12" font-size="14.00"> &#160;Bootstrap</text>
<polygon fill="#fdb462" stroke="transparent" points="310,-10 310,-30 330,-30 330,-10 310,-10"/>
<text text-anchor="start" x="333.67" y="-15.4" font-family="Times-12" font-size="14.00"> &#160;Providers</text>
<polygon fill="#fb8072" stroke="transparent" points="406,-10 406,-30 426,-30 426,-10 406,-10"/>
<text text-anchor="start" x="429.73" y="-15.4" font-family="Times-12" font-size="14.00"> &#160;Exports</text>
<g id="clust1" class="cluster">
<title>cluster_ProjectsModule</title>
<polygon fill="none" stroke="black" stroke-dasharray="1,5" points="39,-70 39,-268 457,-268 457,-70 39,-70"/>
</g>
<g id="clust4" class="cluster">
<title>cluster_ProjectsModule_exports</title>
<polygon fill="none" stroke="black" points="206,-208 206,-260 328,-260 328,-208 206,-208"/>
</g>
<g id="clust3" class="cluster">
<title>cluster_ProjectsModule_imports</title>
<polygon fill="none" stroke="black" points="213,-78 213,-130 449,-130 449,-78 213,-78"/>
</g>
<g id="clust6" class="cluster">
<title>cluster_ProjectsModule_providers</title>
<polygon fill="none" stroke="black" points="47,-78 47,-130 205,-130 205,-78 47,-78"/>
</g>
<!-- DatabaseModule -->
<g id="node1" class="node">
<title>DatabaseModule</title>
<polygon fill="#8dd3c7" stroke="black" points="441.35,-122 438.35,-126 417.35,-126 414.35,-122 330.65,-122 330.65,-86 441.35,-86 441.35,-122"/>
<text text-anchor="middle" x="386" y="-99.8" font-family="Times,serif" font-size="14.00">DatabaseModule</text>
</g>
<!-- ProjectsModule -->
<g id="node3" class="node">
<title>ProjectsModule</title>
<polygon fill="#8dd3c7" stroke="black" points="319.15,-187 316.15,-191 295.15,-191 292.15,-187 214.85,-187 214.85,-151 319.15,-151 319.15,-187"/>
<text text-anchor="middle" x="267" y="-164.8" font-family="Times,serif" font-size="14.00">ProjectsModule</text>
</g>
<!-- DatabaseModule&#45;&gt;ProjectsModule -->
<g id="edge1" class="edge">
<title>DatabaseModule&#45;&gt;ProjectsModule</title>
<path fill="none" stroke="black" d="M386,-122.11C386,-141.34 386,-169 386,-169 386,-169 329.2,-169 329.2,-169"/>
<polygon fill="black" stroke="black" points="329.2,-165.5 319.2,-169 329.2,-172.5 329.2,-165.5"/>
</g>
<!-- UsersModule -->
<g id="node2" class="node">
<title>UsersModule</title>
<polygon fill="#8dd3c7" stroke="black" points="312.92,-122 309.92,-126 288.92,-126 285.92,-122 221.08,-122 221.08,-86 312.92,-86 312.92,-122"/>
<text text-anchor="middle" x="267" y="-99.8" font-family="Times,serif" font-size="14.00">UsersModule</text>
</g>
<!-- UsersModule&#45;&gt;ProjectsModule -->
<g id="edge2" class="edge">
<title>UsersModule&#45;&gt;ProjectsModule</title>
<path fill="none" stroke="black" d="M267,-122.11C267,-122.11 267,-140.99 267,-140.99"/>
<polygon fill="black" stroke="black" points="263.5,-140.99 267,-150.99 270.5,-140.99 263.5,-140.99"/>
</g>
<!-- ProjectsService  -->
<g id="node4" class="node">
<title>ProjectsService </title>
<polygon fill="#fb8072" stroke="black" points="320.08,-252 213.92,-252 213.92,-216 320.08,-216 320.08,-252"/>
<text text-anchor="middle" x="267" y="-229.8" font-family="Times,serif" font-size="14.00">ProjectsService </text>
</g>
<!-- ProjectsModule&#45;&gt;ProjectsService  -->
<g id="edge3" class="edge">
<title>ProjectsModule&#45;&gt;ProjectsService </title>
<path fill="none" stroke="black" stroke-dasharray="5,2" d="M267,-187.11C267,-187.11 267,-205.99 267,-205.99"/>
<polygon fill="black" stroke="black" points="263.5,-205.99 267,-215.99 270.5,-205.99 263.5,-205.99"/>
</g>
<!-- ProjectsService -->
<g id="node5" class="node">
<title>ProjectsService</title>
<ellipse fill="#fdb462" stroke="black" cx="126" cy="-104" rx="71.2" ry="18"/>
<text text-anchor="middle" x="126" y="-99.8" font-family="Times,serif" font-size="14.00">ProjectsService</text>
</g>
<!-- ProjectsService&#45;&gt;ProjectsModule -->
<g id="edge4" class="edge">
<title>ProjectsService&#45;&gt;ProjectsModule</title>
<path fill="none" stroke="black" d="M126,-122.11C126,-141.34 126,-169 126,-169 126,-169 204.5,-169 204.5,-169"/>
<polygon fill="black" stroke="black" points="204.5,-172.5 214.5,-169 204.5,-165.5 204.5,-172.5"/>
</g>
</g>
</svg>
