<?xml version="1.0" encoding="UTF-8" standalone="no"?>
<!DOCTYPE svg PUBLIC "-//W3C//DTD SVG 1.1//EN"
 "http://www.w3.org/Graphics/SVG/1.1/DTD/svg11.dtd">
<!-- Generated by graphviz version 2.47.0 (20210316.0004)
 -->
<!-- Title: dependencies Pages: 1 -->
<svg width="2064pt" height="211pt"
 viewBox="0.00 0.00 2064.00 211.00" xmlns="http://www.w3.org/2000/svg" xmlns:xlink="http://www.w3.org/1999/xlink">
<g id="graph0" class="graph" transform="scale(1 1) rotate(0) translate(4 207)">
<title>dependencies</title>
<polygon fill="white" stroke="transparent" points="-4,4 -4,-207 2060,-207 2060,4 -4,4"/>
<text text-anchor="start" x="1007.01" y="-42.4" font-family="Times-12" font-weight="bold" font-size="14.00">Legend</text>
<polygon fill="#ffffb3" stroke="transparent" points="794,-10 794,-30 814,-30 814,-10 794,-10"/>
<text text-anchor="start" x="817.63" y="-15.4" font-family="Times-12" font-size="14.00"> &#160;Declarations</text>
<polygon fill="#8dd3c7" stroke="transparent" points="907,-10 907,-30 927,-30 927,-10 907,-10"/>
<text text-anchor="start" x="930.73" y="-15.4" font-family="Times-12" font-size="14.00"> &#160;Module</text>
<polygon fill="#80b1d3" stroke="transparent" points="993,-10 993,-30 1013,-30 1013,-10 993,-10"/>
<text text-anchor="start" x="1016.78" y="-15.4" font-family="Times-12" font-size="14.00"> &#160;Bootstrap</text>
<polygon fill="#fdb462" stroke="transparent" points="1090,-10 1090,-30 1110,-30 1110,-10 1090,-10"/>
<text text-anchor="start" x="1113.67" y="-15.4" font-family="Times-12" font-size="14.00"> &#160;Providers</text>
<polygon fill="#fb8072" stroke="transparent" points="1186,-10 1186,-30 1206,-30 1206,-10 1186,-10"/>
<text text-anchor="start" x="1209.73" y="-15.4" font-family="Times-12" font-size="14.00"> &#160;Exports</text>
<g id="clust1" class="cluster">
<title>cluster_SmartWalletsModule</title>
<polygon fill="none" stroke="black" stroke-dasharray="1,5" points="8,-70 8,-195 2048,-195 2048,-70 8,-70"/>
</g>
<g id="clust6" class="cluster">
<title>cluster_SmartWalletsModule_providers</title>
<polygon fill="none" stroke="black" points="806,-78 806,-130 2040,-130 2040,-78 806,-78"/>
</g>
<g id="clust3" class="cluster">
<title>cluster_SmartWalletsModule_imports</title>
<polygon fill="none" stroke="black" points="16,-78 16,-130 798,-130 798,-78 16,-78"/>
</g>
<!-- ChargeApiModule -->
<g id="node1" class="node">
<title>ChargeApiModule</title>
<polygon fill="#8dd3c7" stroke="black" points="790.47,-122 787.47,-126 766.47,-126 763.47,-122 669.53,-122 669.53,-86 790.47,-86 790.47,-122"/>
<text text-anchor="middle" x="730" y="-99.8" font-family="Times,serif" font-size="14.00">ChargeApiModule</text>
</g>
<!-- SmartWalletsModule -->
<g id="node7" class="node">
<title>SmartWalletsModule</title>
<polygon fill="#8dd3c7" stroke="black" points="870.75,-187 867.75,-191 846.75,-191 843.75,-187 735.25,-187 735.25,-151 870.75,-151 870.75,-187"/>
<text text-anchor="middle" x="803" y="-164.8" font-family="Times,serif" font-size="14.00">SmartWalletsModule</text>
</g>
<!-- ChargeApiModule&#45;&gt;SmartWalletsModule -->
<g id="edge1" class="edge">
<title>ChargeApiModule&#45;&gt;SmartWalletsModule</title>
<path fill="none" stroke="black" d="M762.81,-122.11C762.81,-122.11 762.81,-140.99 762.81,-140.99"/>
<polygon fill="black" stroke="black" points="759.31,-140.99 762.81,-150.99 766.31,-140.99 759.31,-140.99"/>
</g>
<!-- DatabaseModule -->
<g id="node2" class="node">
<title>DatabaseModule</title>
<polygon fill="#8dd3c7" stroke="black" points="651.35,-122 648.35,-126 627.35,-126 624.35,-122 540.65,-122 540.65,-86 651.35,-86 651.35,-122"/>
<text text-anchor="middle" x="596" y="-99.8" font-family="Times,serif" font-size="14.00">DatabaseModule</text>
</g>
<!-- DatabaseModule&#45;&gt;SmartWalletsModule -->
<g id="edge2" class="edge">
<title>DatabaseModule&#45;&gt;SmartWalletsModule</title>
<path fill="none" stroke="black" d="M596,-122.24C596,-137.57 596,-157 596,-157 596,-157 725.22,-157 725.22,-157"/>
<polygon fill="black" stroke="black" points="725.22,-160.5 735.22,-157 725.22,-153.5 725.22,-160.5"/>
</g>
<!-- NotificationsModule -->
<g id="node3" class="node">
<title>NotificationsModule</title>
<polygon fill="#8dd3c7" stroke="black" points="522.14,-122 519.14,-126 498.14,-126 495.14,-122 389.86,-122 389.86,-86 522.14,-86 522.14,-122"/>
<text text-anchor="middle" x="456" y="-99.8" font-family="Times,serif" font-size="14.00">NotificationsModule</text>
</g>
<!-- NotificationsModule&#45;&gt;SmartWalletsModule -->
<g id="edge3" class="edge">
<title>NotificationsModule&#45;&gt;SmartWalletsModule</title>
<path fill="none" stroke="black" d="M456,-122.02C456,-139.37 456,-163 456,-163 456,-163 724.86,-163 724.86,-163"/>
<polygon fill="black" stroke="black" points="724.86,-166.5 734.86,-163 724.86,-159.5 724.86,-166.5"/>
</g>
<!-- OperatorsModule -->
<g id="node4" class="node">
<title>OperatorsModule</title>
<polygon fill="#8dd3c7" stroke="black" points="371.24,-122 368.24,-126 347.24,-126 344.24,-122 256.76,-122 256.76,-86 371.24,-86 371.24,-122"/>
<text text-anchor="middle" x="314" y="-99.8" font-family="Times,serif" font-size="14.00">OperatorsModule</text>
</g>
<!-- OperatorsModule&#45;&gt;SmartWalletsModule -->
<g id="edge4" class="edge">
<title>OperatorsModule&#45;&gt;SmartWalletsModule</title>
<path fill="none" stroke="black" d="M314,-122.11C314,-141.34 314,-169 314,-169 314,-169 725.01,-169 725.01,-169"/>
<polygon fill="black" stroke="black" points="725.01,-172.5 735.01,-169 725.01,-165.5 725.01,-172.5"/>
</g>
<!-- ProjectsModule -->
<g id="node5" class="node">
<title>ProjectsModule</title>
<polygon fill="#8dd3c7" stroke="black" points="238.15,-122 235.15,-126 214.15,-126 211.15,-122 133.85,-122 133.85,-86 238.15,-86 238.15,-122"/>
<text text-anchor="middle" x="186" y="-99.8" font-family="Times,serif" font-size="14.00">ProjectsModule</text>
</g>
<!-- ProjectsModule&#45;&gt;SmartWalletsModule -->
<g id="edge5" class="edge">
<title>ProjectsModule&#45;&gt;SmartWalletsModule</title>
<path fill="none" stroke="black" d="M186,-122.28C186,-143.32 186,-175 186,-175 186,-175 725.21,-175 725.21,-175"/>
<polygon fill="black" stroke="black" points="725.21,-178.5 735.21,-175 725.21,-171.5 725.21,-178.5"/>
</g>
<!-- UsersModule -->
<g id="node6" class="node">
<title>UsersModule</title>
<polygon fill="#8dd3c7" stroke="black" points="115.92,-122 112.92,-126 91.92,-126 88.92,-122 24.08,-122 24.08,-86 115.92,-86 115.92,-122"/>
<text text-anchor="middle" x="70" y="-99.8" font-family="Times,serif" font-size="14.00">UsersModule</text>
</g>
<!-- UsersModule&#45;&gt;SmartWalletsModule -->
<g id="edge6" class="edge">
<title>UsersModule&#45;&gt;SmartWalletsModule</title>
<path fill="none" stroke="black" d="M70,-122.09C70,-145.13 70,-182 70,-182 70,-182 725.03,-182 725.03,-182"/>
<polygon fill="black" stroke="black" points="725.03,-185.5 735.03,-182 725.03,-178.5 725.03,-185.5"/>
</g>
<!-- AnalyticsService -->
<g id="node8" class="node">
<title>AnalyticsService</title>
<ellipse fill="#fdb462" stroke="black" cx="1955" cy="-104" rx="77" ry="18"/>
<text text-anchor="middle" x="1955" y="-99.8" font-family="Times,serif" font-size="14.00">AnalyticsService</text>
</g>
<!-- AnalyticsService&#45;&gt;SmartWalletsModule -->
<g id="edge7" class="edge">
<title>AnalyticsService&#45;&gt;SmartWalletsModule</title>
<path fill="none" stroke="black" d="M1955,-122.09C1955,-145.13 1955,-182 1955,-182 1955,-182 880.76,-182 880.76,-182"/>
<polygon fill="black" stroke="black" points="880.76,-178.5 870.76,-182 880.76,-185.5 880.76,-178.5"/>
</g>
<!-- RelayAPIService -->
<g id="node9" class="node">
<title>RelayAPIService</title>
<ellipse fill="#fdb462" stroke="black" cx="1782" cy="-104" rx="78.14" ry="18"/>
<text text-anchor="middle" x="1782" y="-99.8" font-family="Times,serif" font-size="14.00">RelayAPIService</text>
</g>
<!-- RelayAPIService&#45;&gt;SmartWalletsModule -->
<g id="edge8" class="edge">
<title>RelayAPIService&#45;&gt;SmartWalletsModule</title>
<path fill="none" stroke="black" d="M1782,-122.28C1782,-143.32 1782,-175 1782,-175 1782,-175 881.06,-175 881.06,-175"/>
<polygon fill="black" stroke="black" points="881.06,-171.5 871.06,-175 881.06,-178.5 881.06,-171.5"/>
</g>
<!-- SmartWalletsAAService -->
<g id="node10" class="node">
<title>SmartWalletsAAService</title>
<ellipse fill="#fdb462" stroke="black" cx="1579" cy="-104" rx="106.49" ry="18"/>
<text text-anchor="middle" x="1579" y="-99.8" font-family="Times,serif" font-size="14.00">SmartWalletsAAService</text>
</g>
<!-- SmartWalletsAAService&#45;&gt;SmartWalletsModule -->
<g id="edge9" class="edge">
<title>SmartWalletsAAService&#45;&gt;SmartWalletsModule</title>
<path fill="none" stroke="black" d="M1579,-122.11C1579,-141.34 1579,-169 1579,-169 1579,-169 880.85,-169 880.85,-169"/>
<polygon fill="black" stroke="black" points="880.85,-165.5 870.85,-169 880.85,-172.5 880.85,-165.5"/>
</g>
<!-- SmartWalletsEventsService -->
<g id="node11" class="node">
<title>SmartWalletsEventsService</title>
<ellipse fill="#fdb462" stroke="black" cx="1336" cy="-104" rx="118.67" ry="18"/>
<text text-anchor="middle" x="1336" y="-99.8" font-family="Times,serif" font-size="14.00">SmartWalletsEventsService</text>
</g>
<!-- SmartWalletsEventsService&#45;&gt;SmartWalletsModule -->
<g id="edge10" class="edge">
<title>SmartWalletsEventsService&#45;&gt;SmartWalletsModule</title>
<path fill="none" stroke="black" d="M1336,-122.02C1336,-139.37 1336,-163 1336,-163 1336,-163 880.78,-163 880.78,-163"/>
<polygon fill="black" stroke="black" points="880.78,-159.5 870.78,-163 880.78,-166.5 880.78,-159.5"/>
</g>
<!-- SmartWalletsLegacyService -->
<g id="node12" class="node">
<title>SmartWalletsLegacyService</title>
<ellipse fill="#fdb462" stroke="black" cx="1078" cy="-104" rx="120.94" ry="18"/>
<text text-anchor="middle" x="1078" y="-99.8" font-family="Times,serif" font-size="14.00">SmartWalletsLegacyService</text>
</g>
<!-- SmartWalletsLegacyService&#45;&gt;SmartWalletsModule -->
<g id="edge11" class="edge">
<title>SmartWalletsLegacyService&#45;&gt;SmartWalletsModule</title>
<path fill="none" stroke="black" d="M1078,-122.24C1078,-137.57 1078,-157 1078,-157 1078,-157 880.98,-157 880.98,-157"/>
<polygon fill="black" stroke="black" points="880.98,-153.5 870.98,-157 880.98,-160.5 880.98,-153.5"/>
</g>
<!-- TradeService -->
<g id="node13" class="node">
<title>TradeService</title>
<ellipse fill="#fdb462" stroke="black" cx="877" cy="-104" rx="62.52" ry="18"/>
<text text-anchor="middle" x="877" y="-99.8" font-family="Times,serif" font-size="14.00">TradeService</text>
</g>
<!-- TradeService&#45;&gt;SmartWalletsModule -->
<g id="edge12" class="edge">
<title>TradeService&#45;&gt;SmartWalletsModule</title>
<path fill="none" stroke="black" d="M842.68,-119.08C842.68,-119.08 842.68,-140.76 842.68,-140.76"/>
<polygon fill="black" stroke="black" points="839.18,-140.76 842.68,-150.76 846.18,-140.76 839.18,-140.76"/>
</g>
</g>
</svg>
