<?xml version="1.0" encoding="UTF-8" standalone="no"?>
<!DOCTYPE svg PUBLIC "-//W3C//DTD SVG 1.1//EN"
 "http://www.w3.org/Graphics/SVG/1.1/DTD/svg11.dtd">
<!-- Generated by graphviz version 2.47.0 (20210316.0004)
 -->
<!-- Title: dependencies Pages: 1 -->
<svg width="2034pt" height="211pt"
 viewBox="0.00 0.00 2034.00 211.00" xmlns="http://www.w3.org/2000/svg" xmlns:xlink="http://www.w3.org/1999/xlink">
<g id="graph0" class="graph" transform="scale(1 1) rotate(0) translate(4 207)">
<title>dependencies</title>
<polygon fill="white" stroke="transparent" points="-4,4 -4,-207 2030,-207 2030,4 -4,4"/>
<text text-anchor="start" x="992.01" y="-42.4" font-family="Times-12" font-weight="bold" font-size="14.00">Legend</text>
<polygon fill="#ffffb3" stroke="transparent" points="779,-10 779,-30 799,-30 799,-10 779,-10"/>
<text text-anchor="start" x="802.63" y="-15.4" font-family="Times-12" font-size="14.00"> &#160;Declarations</text>
<polygon fill="#8dd3c7" stroke="transparent" points="892,-10 892,-30 912,-30 912,-10 892,-10"/>
<text text-anchor="start" x="915.73" y="-15.4" font-family="Times-12" font-size="14.00"> &#160;Module</text>
<polygon fill="#80b1d3" stroke="transparent" points="978,-10 978,-30 998,-30 998,-10 978,-10"/>
<text text-anchor="start" x="1001.78" y="-15.4" font-family="Times-12" font-size="14.00"> &#160;Bootstrap</text>
<polygon fill="#fdb462" stroke="transparent" points="1075,-10 1075,-30 1095,-30 1095,-10 1075,-10"/>
<text text-anchor="start" x="1098.67" y="-15.4" font-family="Times-12" font-size="14.00"> &#160;Providers</text>
<polygon fill="#fb8072" stroke="transparent" points="1171,-10 1171,-30 1191,-30 1191,-10 1171,-10"/>
<text text-anchor="start" x="1194.73" y="-15.4" font-family="Times-12" font-size="14.00"> &#160;Exports</text>
<g id="clust1" class="cluster">
<title>cluster_SmartWalletsModule</title>
<polygon fill="none" stroke="black" stroke-dasharray="1,5" points="8,-70 8,-195 2018,-195 2018,-70 8,-70"/>
</g>
<g id="clust6" class="cluster">
<title>cluster_SmartWalletsModule_providers</title>
<polygon fill="none" stroke="black" points="919,-78 919,-130 2010,-130 2010,-78 919,-78"/>
</g>
<g id="clust3" class="cluster">
<title>cluster_SmartWalletsModule_imports</title>
<polygon fill="none" stroke="black" points="16,-78 16,-130 911,-130 911,-78 16,-78"/>
</g>
<!-- ChargeApiModule -->
<g id="node1" class="node">
<title>ChargeApiModule</title>
<polygon fill="#8dd3c7" stroke="black" points="903.47,-122 900.47,-126 879.47,-126 876.47,-122 782.53,-122 782.53,-86 903.47,-86 903.47,-122"/>
<text text-anchor="middle" x="843" y="-99.8" font-family="Times,serif" font-size="14.00">ChargeApiModule</text>
</g>
<!-- SmartWalletsModule -->
<g id="node8" class="node">
<title>SmartWalletsModule</title>
<polygon fill="#8dd3c7" stroke="black" points="843.75,-187 840.75,-191 819.75,-191 816.75,-187 708.25,-187 708.25,-151 843.75,-151 843.75,-187"/>
<text text-anchor="middle" x="776" y="-164.8" font-family="Times,serif" font-size="14.00">SmartWalletsModule</text>
</g>
<!-- ChargeApiModule&#45;&gt;SmartWalletsModule -->
<g id="edge1" class="edge">
<title>ChargeApiModule&#45;&gt;SmartWalletsModule</title>
<path fill="none" stroke="black" d="M813.19,-122.11C813.19,-122.11 813.19,-140.99 813.19,-140.99"/>
<polygon fill="black" stroke="black" points="809.69,-140.99 813.19,-150.99 816.69,-140.99 809.69,-140.99"/>
</g>
<!-- DatabaseModule -->
<g id="node2" class="node">
<title>DatabaseModule</title>
<polygon fill="#8dd3c7" stroke="black" points="764.35,-122 761.35,-126 740.35,-126 737.35,-122 653.65,-122 653.65,-86 764.35,-86 764.35,-122"/>
<text text-anchor="middle" x="709" y="-99.8" font-family="Times,serif" font-size="14.00">DatabaseModule</text>
</g>
<!-- DatabaseModule&#45;&gt;SmartWalletsModule -->
<g id="edge2" class="edge">
<title>DatabaseModule&#45;&gt;SmartWalletsModule</title>
<path fill="none" stroke="black" d="M736.28,-122.11C736.28,-122.11 736.28,-140.99 736.28,-140.99"/>
<polygon fill="black" stroke="black" points="732.78,-140.99 736.28,-150.99 739.78,-140.99 732.78,-140.99"/>
</g>
<!-- NotificationsModule -->
<g id="node3" class="node">
<title>NotificationsModule</title>
<polygon fill="#8dd3c7" stroke="black" points="635.14,-122 632.14,-126 611.14,-126 608.14,-122 502.86,-122 502.86,-86 635.14,-86 635.14,-122"/>
<text text-anchor="middle" x="569" y="-99.8" font-family="Times,serif" font-size="14.00">NotificationsModule</text>
</g>
<!-- NotificationsModule&#45;&gt;SmartWalletsModule -->
<g id="edge3" class="edge">
<title>NotificationsModule&#45;&gt;SmartWalletsModule</title>
<path fill="none" stroke="black" d="M569,-122.24C569,-137.57 569,-157 569,-157 569,-157 698.22,-157 698.22,-157"/>
<polygon fill="black" stroke="black" points="698.22,-160.5 708.22,-157 698.22,-153.5 698.22,-160.5"/>
</g>
<!-- OperatorsModule -->
<g id="node4" class="node">
<title>OperatorsModule</title>
<polygon fill="#8dd3c7" stroke="black" points="484.24,-122 481.24,-126 460.24,-126 457.24,-122 369.76,-122 369.76,-86 484.24,-86 484.24,-122"/>
<text text-anchor="middle" x="427" y="-99.8" font-family="Times,serif" font-size="14.00">OperatorsModule</text>
</g>
<!-- OperatorsModule&#45;&gt;SmartWalletsModule -->
<g id="edge4" class="edge">
<title>OperatorsModule&#45;&gt;SmartWalletsModule</title>
<path fill="none" stroke="black" d="M427,-122.02C427,-139.37 427,-163 427,-163 427,-163 697.88,-163 697.88,-163"/>
<polygon fill="black" stroke="black" points="697.88,-166.5 707.88,-163 697.88,-159.5 697.88,-166.5"/>
</g>
<!-- ProjectsModule -->
<g id="node5" class="node">
<title>ProjectsModule</title>
<polygon fill="#8dd3c7" stroke="black" points="351.15,-122 348.15,-126 327.15,-126 324.15,-122 246.85,-122 246.85,-86 351.15,-86 351.15,-122"/>
<text text-anchor="middle" x="299" y="-99.8" font-family="Times,serif" font-size="14.00">ProjectsModule</text>
</g>
<!-- ProjectsModule&#45;&gt;SmartWalletsModule -->
<g id="edge5" class="edge">
<title>ProjectsModule&#45;&gt;SmartWalletsModule</title>
<path fill="none" stroke="black" d="M299,-122.11C299,-141.34 299,-169 299,-169 299,-169 698.16,-169 698.16,-169"/>
<polygon fill="black" stroke="black" points="698.16,-172.5 708.16,-169 698.16,-165.5 698.16,-172.5"/>
</g>
<!-- TokenModule -->
<g id="node6" class="node">
<title>TokenModule</title>
<polygon fill="#8dd3c7" stroke="black" points="228.82,-122 225.82,-126 204.82,-126 201.82,-122 133.18,-122 133.18,-86 228.82,-86 228.82,-122"/>
<text text-anchor="middle" x="181" y="-99.8" font-family="Times,serif" font-size="14.00">TokenModule</text>
</g>
<!-- TokenModule&#45;&gt;SmartWalletsModule -->
<g id="edge6" class="edge">
<title>TokenModule&#45;&gt;SmartWalletsModule</title>
<path fill="none" stroke="black" d="M181,-122.28C181,-143.32 181,-175 181,-175 181,-175 698.04,-175 698.04,-175"/>
<polygon fill="black" stroke="black" points="698.04,-178.5 708.04,-175 698.04,-171.5 698.04,-178.5"/>
</g>
<!-- UsersModule -->
<g id="node7" class="node">
<title>UsersModule</title>
<polygon fill="#8dd3c7" stroke="black" points="115.92,-122 112.92,-126 91.92,-126 88.92,-122 24.08,-122 24.08,-86 115.92,-86 115.92,-122"/>
<text text-anchor="middle" x="70" y="-99.8" font-family="Times,serif" font-size="14.00">UsersModule</text>
</g>
<!-- UsersModule&#45;&gt;SmartWalletsModule -->
<g id="edge7" class="edge">
<title>UsersModule&#45;&gt;SmartWalletsModule</title>
<path fill="none" stroke="black" d="M70,-122.09C70,-145.13 70,-182 70,-182 70,-182 697.99,-182 697.99,-182"/>
<polygon fill="black" stroke="black" points="697.99,-185.5 707.99,-182 697.99,-178.5 697.99,-185.5"/>
</g>
<!-- AnalyticsService -->
<g id="node9" class="node">
<title>AnalyticsService</title>
<ellipse fill="#fdb462" stroke="black" cx="1925" cy="-104" rx="77" ry="18"/>
<text text-anchor="middle" x="1925" y="-99.8" font-family="Times,serif" font-size="14.00">AnalyticsService</text>
</g>
<!-- AnalyticsService&#45;&gt;SmartWalletsModule -->
<g id="edge8" class="edge">
<title>AnalyticsService&#45;&gt;SmartWalletsModule</title>
<path fill="none" stroke="black" d="M1925,-122.09C1925,-145.13 1925,-182 1925,-182 1925,-182 854.01,-182 854.01,-182"/>
<polygon fill="black" stroke="black" points="854.01,-178.5 844.01,-182 854.01,-185.5 854.01,-178.5"/>
</g>
<!-- RelayAPIService -->
<g id="node10" class="node">
<title>RelayAPIService</title>
<ellipse fill="#fdb462" stroke="black" cx="1752" cy="-104" rx="78.14" ry="18"/>
<text text-anchor="middle" x="1752" y="-99.8" font-family="Times,serif" font-size="14.00">RelayAPIService</text>
</g>
<!-- RelayAPIService&#45;&gt;SmartWalletsModule -->
<g id="edge9" class="edge">
<title>RelayAPIService&#45;&gt;SmartWalletsModule</title>
<path fill="none" stroke="black" d="M1752,-122.28C1752,-143.32 1752,-175 1752,-175 1752,-175 853.86,-175 853.86,-175"/>
<polygon fill="black" stroke="black" points="853.86,-171.5 843.86,-175 853.86,-178.5 853.86,-171.5"/>
</g>
<!-- SmartWalletsAAService -->
<g id="node11" class="node">
<title>SmartWalletsAAService</title>
<ellipse fill="#fdb462" stroke="black" cx="1549" cy="-104" rx="106.49" ry="18"/>
<text text-anchor="middle" x="1549" y="-99.8" font-family="Times,serif" font-size="14.00">SmartWalletsAAService</text>
</g>
<!-- SmartWalletsAAService&#45;&gt;SmartWalletsModule -->
<g id="edge10" class="edge">
<title>SmartWalletsAAService&#45;&gt;SmartWalletsModule</title>
<path fill="none" stroke="black" d="M1549,-122.11C1549,-141.34 1549,-169 1549,-169 1549,-169 853.92,-169 853.92,-169"/>
<polygon fill="black" stroke="black" points="853.92,-165.5 843.92,-169 853.92,-172.5 853.92,-165.5"/>
</g>
<!-- SmartWalletsEventsService -->
<g id="node12" class="node">
<title>SmartWalletsEventsService</title>
<ellipse fill="#fdb462" stroke="black" cx="1306" cy="-104" rx="118.67" ry="18"/>
<text text-anchor="middle" x="1306" y="-99.8" font-family="Times,serif" font-size="14.00">SmartWalletsEventsService</text>
</g>
<!-- SmartWalletsEventsService&#45;&gt;SmartWalletsModule -->
<g id="edge11" class="edge">
<title>SmartWalletsEventsService&#45;&gt;SmartWalletsModule</title>
<path fill="none" stroke="black" d="M1306,-122.02C1306,-139.37 1306,-163 1306,-163 1306,-163 853.93,-163 853.93,-163"/>
<polygon fill="black" stroke="black" points="853.93,-159.5 843.93,-163 853.93,-166.5 853.93,-159.5"/>
</g>
<!-- SmartWalletsLegacyService -->
<g id="node13" class="node">
<title>SmartWalletsLegacyService</title>
<ellipse fill="#fdb462" stroke="black" cx="1048" cy="-104" rx="120.94" ry="18"/>
<text text-anchor="middle" x="1048" y="-99.8" font-family="Times,serif" font-size="14.00">SmartWalletsLegacyService</text>
</g>
<!-- SmartWalletsLegacyService&#45;&gt;SmartWalletsModule -->
<g id="edge12" class="edge">
<title>SmartWalletsLegacyService&#45;&gt;SmartWalletsModule</title>
<path fill="none" stroke="black" d="M1048,-122.24C1048,-137.57 1048,-157 1048,-157 1048,-157 853.94,-157 853.94,-157"/>
<polygon fill="black" stroke="black" points="853.94,-153.5 843.94,-157 853.94,-160.5 853.94,-153.5"/>
</g>
</g>
</svg>
