<?xml version="1.0" encoding="UTF-8" standalone="no"?>
<!DOCTYPE svg PUBLIC "-//W3C//DTD SVG 1.1//EN"
 "http://www.w3.org/Graphics/SVG/1.1/DTD/svg11.dtd">
<!-- Generated by graphviz version 2.47.0 (20210316.0004)
 -->
<!-- Title: dependencies Pages: 1 -->
<svg width="504pt" height="211pt"
 viewBox="0.00 0.00 504.00 211.00" xmlns="http://www.w3.org/2000/svg" xmlns:xlink="http://www.w3.org/1999/xlink">
<g id="graph0" class="graph" transform="scale(1 1) rotate(0) translate(4 207)">
<title>dependencies</title>
<polygon fill="white" stroke="transparent" points="-4,4 -4,-207 500,-207 500,4 -4,4"/>
<text text-anchor="start" x="227.01" y="-42.4" font-family="Times-12" font-weight="bold" font-size="14.00">Legend</text>
<polygon fill="#ffffb3" stroke="transparent" points="14,-10 14,-30 34,-30 34,-10 14,-10"/>
<text text-anchor="start" x="37.63" y="-15.4" font-family="Times-12" font-size="14.00"> &#160;Declarations</text>
<polygon fill="#8dd3c7" stroke="transparent" points="127,-10 127,-30 147,-30 147,-10 127,-10"/>
<text text-anchor="start" x="150.73" y="-15.4" font-family="Times-12" font-size="14.00"> &#160;Module</text>
<polygon fill="#80b1d3" stroke="transparent" points="213,-10 213,-30 233,-30 233,-10 213,-10"/>
<text text-anchor="start" x="236.78" y="-15.4" font-family="Times-12" font-size="14.00"> &#160;Bootstrap</text>
<polygon fill="#fdb462" stroke="transparent" points="310,-10 310,-30 330,-30 330,-10 310,-10"/>
<text text-anchor="start" x="333.67" y="-15.4" font-family="Times-12" font-size="14.00"> &#160;Providers</text>
<polygon fill="#fb8072" stroke="transparent" points="406,-10 406,-30 426,-30 426,-10 406,-10"/>
<text text-anchor="start" x="429.73" y="-15.4" font-family="Times-12" font-size="14.00"> &#160;Exports</text>
<g id="clust1" class="cluster">
<title>cluster_ChargeSmartWalletsServiceModule</title>
<polygon fill="none" stroke="black" stroke-dasharray="1,5" points="39,-70 39,-195 457,-195 457,-70 39,-70"/>
</g>
<g id="clust3" class="cluster">
<title>cluster_ChargeSmartWalletsServiceModule_imports</title>
<polygon fill="none" stroke="black" points="47,-78 47,-130 449,-130 449,-78 47,-78"/>
</g>
<!-- DataLayerModule -->
<g id="node1" class="node">
<title>DataLayerModule</title>
<polygon fill="#8dd3c7" stroke="black" points="441.12,-122 438.12,-126 417.12,-126 414.12,-122 322.88,-122 322.88,-86 441.12,-86 441.12,-122"/>
<text text-anchor="middle" x="382" y="-99.8" font-family="Times,serif" font-size="14.00">DataLayerModule</text>
</g>
<!-- ChargeSmartWalletsServiceModule -->
<g id="node4" class="node">
<title>ChargeSmartWalletsServiceModule</title>
<polygon fill="#8dd3c7" stroke="black" points="346.15,-187 343.15,-191 322.15,-191 319.15,-187 127.85,-187 127.85,-151 346.15,-151 346.15,-187"/>
<text text-anchor="middle" x="237" y="-164.8" font-family="Times,serif" font-size="14.00">ChargeSmartWalletsServiceModule</text>
</g>
<!-- DataLayerModule&#45;&gt;ChargeSmartWalletsServiceModule -->
<g id="edge1" class="edge">
<title>DataLayerModule&#45;&gt;ChargeSmartWalletsServiceModule</title>
<path fill="none" stroke="black" d="M334.38,-122.11C334.38,-122.11 334.38,-140.99 334.38,-140.99"/>
<polygon fill="black" stroke="black" points="330.88,-140.99 334.38,-150.99 337.88,-140.99 330.88,-140.99"/>
</g>
<!-- SmartWalletsModule -->
<g id="node2" class="node">
<title>SmartWalletsModule</title>
<polygon fill="#8dd3c7" stroke="black" points="304.75,-122 301.75,-126 280.75,-126 277.75,-122 169.25,-122 169.25,-86 304.75,-86 304.75,-122"/>
<text text-anchor="middle" x="237" y="-99.8" font-family="Times,serif" font-size="14.00">SmartWalletsModule</text>
</g>
<!-- SmartWalletsModule&#45;&gt;ChargeSmartWalletsServiceModule -->
<g id="edge2" class="edge">
<title>SmartWalletsModule&#45;&gt;ChargeSmartWalletsServiceModule</title>
<path fill="none" stroke="black" d="M237,-122.11C237,-122.11 237,-140.99 237,-140.99"/>
<polygon fill="black" stroke="black" points="233.5,-140.99 237,-150.99 240.5,-140.99 233.5,-140.99"/>
</g>
<!-- TokenModule -->
<g id="node3" class="node">
<title>TokenModule</title>
<polygon fill="#8dd3c7" stroke="black" points="150.82,-122 147.82,-126 126.82,-126 123.82,-122 55.18,-122 55.18,-86 150.82,-86 150.82,-122"/>
<text text-anchor="middle" x="103" y="-99.8" font-family="Times,serif" font-size="14.00">TokenModule</text>
</g>
<!-- TokenModule&#45;&gt;ChargeSmartWalletsServiceModule -->
<g id="edge3" class="edge">
<title>TokenModule&#45;&gt;ChargeSmartWalletsServiceModule</title>
<path fill="none" stroke="black" d="M139.29,-122.11C139.29,-122.11 139.29,-140.99 139.29,-140.99"/>
<polygon fill="black" stroke="black" points="135.79,-140.99 139.29,-150.99 142.79,-140.99 135.79,-140.99"/>
</g>
</g>
</svg>
