<?xml version="1.0" encoding="UTF-8" standalone="no"?>
<!DOCTYPE svg PUBLIC "-//W3C//DTD SVG 1.1//EN"
 "http://www.w3.org/Graphics/SVG/1.1/DTD/svg11.dtd">
<!-- Generated by graphviz version 2.47.0 (20210316.0004)
 -->
<!-- Title: dependencies Pages: 1 -->
<svg width="504pt" height="211pt"
 viewBox="0.00 0.00 504.00 211.00" xmlns="http://www.w3.org/2000/svg" xmlns:xlink="http://www.w3.org/1999/xlink">
<g id="graph0" class="graph" transform="scale(1 1) rotate(0) translate(4 207)">
<title>dependencies</title>
<polygon fill="white" stroke="transparent" points="-4,4 -4,-207 500,-207 500,4 -4,4"/>
<text text-anchor="start" x="227.01" y="-42.4" font-family="Times-12" font-weight="bold" font-size="14.00">Legend</text>
<polygon fill="#ffffb3" stroke="transparent" points="14,-10 14,-30 34,-30 34,-10 14,-10"/>
<text text-anchor="start" x="37.63" y="-15.4" font-family="Times-12" font-size="14.00"> &#160;Declarations</text>
<polygon fill="#8dd3c7" stroke="transparent" points="127,-10 127,-30 147,-30 147,-10 127,-10"/>
<text text-anchor="start" x="150.73" y="-15.4" font-family="Times-12" font-size="14.00"> &#160;Module</text>
<polygon fill="#80b1d3" stroke="transparent" points="213,-10 213,-30 233,-30 233,-10 213,-10"/>
<text text-anchor="start" x="236.78" y="-15.4" font-family="Times-12" font-size="14.00"> &#160;Bootstrap</text>
<polygon fill="#fdb462" stroke="transparent" points="310,-10 310,-30 330,-30 330,-10 310,-10"/>
<text text-anchor="start" x="333.67" y="-15.4" font-family="Times-12" font-size="14.00"> &#160;Providers</text>
<polygon fill="#fb8072" stroke="transparent" points="406,-10 406,-30 426,-30 426,-10 406,-10"/>
<text text-anchor="start" x="429.73" y="-15.4" font-family="Times-12" font-size="14.00"> &#160;Exports</text>
<g id="clust1" class="cluster">
<title>cluster_ChargeSmartWalletsServiceModule</title>
<polygon fill="none" stroke="black" stroke-dasharray="1,5" points="96,-70 96,-195 400,-195 400,-70 96,-70"/>
</g>
<g id="clust3" class="cluster">
<title>cluster_ChargeSmartWalletsServiceModule_imports</title>
<polygon fill="none" stroke="black" points="104,-78 104,-130 392,-130 392,-78 104,-78"/>
</g>
<!-- DataLayerModule -->
<g id="node1" class="node">
<title>DataLayerModule</title>
<polygon fill="#8dd3c7" stroke="black" points="384.12,-122 381.12,-126 360.12,-126 357.12,-122 265.88,-122 265.88,-86 384.12,-86 384.12,-122"/>
<text text-anchor="middle" x="325" y="-99.8" font-family="Times,serif" font-size="14.00">DataLayerModule</text>
</g>
<!-- ChargeSmartWalletsServiceModule -->
<g id="node3" class="node">
<title>ChargeSmartWalletsServiceModule</title>
<polygon fill="#8dd3c7" stroke="black" points="357.15,-187 354.15,-191 333.15,-191 330.15,-187 138.85,-187 138.85,-151 357.15,-151 357.15,-187"/>
<text text-anchor="middle" x="248" y="-164.8" font-family="Times,serif" font-size="14.00">ChargeSmartWalletsServiceModule</text>
</g>
<!-- DataLayerModule&#45;&gt;ChargeSmartWalletsServiceModule -->
<g id="edge1" class="edge">
<title>DataLayerModule&#45;&gt;ChargeSmartWalletsServiceModule</title>
<path fill="none" stroke="black" d="M311.38,-122.11C311.38,-122.11 311.38,-140.99 311.38,-140.99"/>
<polygon fill="black" stroke="black" points="307.88,-140.99 311.38,-150.99 314.88,-140.99 307.88,-140.99"/>
</g>
<!-- SmartWalletsModule -->
<g id="node2" class="node">
<title>SmartWalletsModule</title>
<polygon fill="#8dd3c7" stroke="black" points="247.75,-122 244.75,-126 223.75,-126 220.75,-122 112.25,-122 112.25,-86 247.75,-86 247.75,-122"/>
<text text-anchor="middle" x="180" y="-99.8" font-family="Times,serif" font-size="14.00">SmartWalletsModule</text>
</g>
<!-- SmartWalletsModule&#45;&gt;ChargeSmartWalletsServiceModule -->
<g id="edge2" class="edge">
<title>SmartWalletsModule&#45;&gt;ChargeSmartWalletsServiceModule</title>
<path fill="none" stroke="black" d="M193.4,-122.11C193.4,-122.11 193.4,-140.99 193.4,-140.99"/>
<polygon fill="black" stroke="black" points="189.9,-140.99 193.4,-150.99 196.9,-140.99 189.9,-140.99"/>
</g>
</g>
</svg>
