<?xml version="1.0" encoding="UTF-8" standalone="no"?>
<!DOCTYPE svg PUBLIC "-//W3C//DTD SVG 1.1//EN"
 "http://www.w3.org/Graphics/SVG/1.1/DTD/svg11.dtd">
<!-- Generated by graphviz version 2.47.0 (20210316.0004)
 -->
<!-- Title: dependencies Pages: 1 -->
<svg width="771pt" height="284pt"
 viewBox="0.00 0.00 771.00 284.00" xmlns="http://www.w3.org/2000/svg" xmlns:xlink="http://www.w3.org/1999/xlink">
<g id="graph0" class="graph" transform="scale(1 1) rotate(0) translate(4 280)">
<title>dependencies</title>
<polygon fill="white" stroke="transparent" points="-4,4 -4,-280 767,-280 767,4 -4,4"/>
<text text-anchor="start" x="360.51" y="-42.4" font-family="Times-12" font-weight="bold" font-size="14.00">Legend</text>
<polygon fill="#ffffb3" stroke="transparent" points="147.5,-10 147.5,-30 167.5,-30 167.5,-10 147.5,-10"/>
<text text-anchor="start" x="171.13" y="-15.4" font-family="Times-12" font-size="14.00"> &#160;Declarations</text>
<polygon fill="#8dd3c7" stroke="transparent" points="260.5,-10 260.5,-30 280.5,-30 280.5,-10 260.5,-10"/>
<text text-anchor="start" x="284.23" y="-15.4" font-family="Times-12" font-size="14.00"> &#160;Module</text>
<polygon fill="#80b1d3" stroke="transparent" points="346.5,-10 346.5,-30 366.5,-30 366.5,-10 346.5,-10"/>
<text text-anchor="start" x="370.28" y="-15.4" font-family="Times-12" font-size="14.00"> &#160;Bootstrap</text>
<polygon fill="#fdb462" stroke="transparent" points="443.5,-10 443.5,-30 463.5,-30 463.5,-10 443.5,-10"/>
<text text-anchor="start" x="467.17" y="-15.4" font-family="Times-12" font-size="14.00"> &#160;Providers</text>
<polygon fill="#fb8072" stroke="transparent" points="539.5,-10 539.5,-30 559.5,-30 559.5,-10 539.5,-10"/>
<text text-anchor="start" x="563.23" y="-15.4" font-family="Times-12" font-size="14.00"> &#160;Exports</text>
<g id="clust1" class="cluster">
<title>cluster_ApiKeyModule</title>
<polygon fill="none" stroke="black" stroke-dasharray="1,5" points="8,-70 8,-268 755,-268 755,-70 8,-70"/>
</g>
<g id="clust3" class="cluster">
<title>cluster_ApiKeyModule_imports</title>
<polygon fill="none" stroke="black" points="188,-78 188,-130 747,-130 747,-78 188,-78"/>
</g>
<g id="clust4" class="cluster">
<title>cluster_ApiKeyModule_exports</title>
<polygon fill="none" stroke="black" points="359,-208 359,-260 487,-260 487,-208 359,-208"/>
</g>
<g id="clust6" class="cluster">
<title>cluster_ApiKeyModule_providers</title>
<polygon fill="none" stroke="black" points="16,-78 16,-130 180,-130 180,-78 16,-78"/>
</g>
<!-- DatabaseModule -->
<g id="node1" class="node">
<title>DatabaseModule</title>
<polygon fill="#8dd3c7" stroke="black" points="739.35,-122 736.35,-126 715.35,-126 712.35,-122 628.65,-122 628.65,-86 739.35,-86 739.35,-122"/>
<text text-anchor="middle" x="684" y="-99.8" font-family="Times,serif" font-size="14.00">DatabaseModule</text>
</g>
<!-- ApiKeyModule -->
<g id="node5" class="node">
<title>ApiKeyModule</title>
<polygon fill="#8dd3c7" stroke="black" points="474.87,-187 471.87,-191 450.87,-191 447.87,-187 371.13,-187 371.13,-151 474.87,-151 474.87,-187"/>
<text text-anchor="middle" x="423" y="-164.8" font-family="Times,serif" font-size="14.00">ApiKeyModule</text>
</g>
<!-- DatabaseModule&#45;&gt;ApiKeyModule -->
<g id="edge1" class="edge">
<title>DatabaseModule&#45;&gt;ApiKeyModule</title>
<path fill="none" stroke="black" d="M684,-122.28C684,-143.32 684,-175 684,-175 684,-175 484.88,-175 484.88,-175"/>
<polygon fill="black" stroke="black" points="484.88,-171.5 474.88,-175 484.88,-178.5 484.88,-171.5"/>
</g>
<!-- PaymasterModule -->
<g id="node2" class="node">
<title>PaymasterModule</title>
<polygon fill="#8dd3c7" stroke="black" points="610.86,-122 607.86,-126 586.86,-126 583.86,-122 493.14,-122 493.14,-86 610.86,-86 610.86,-122"/>
<text text-anchor="middle" x="552" y="-99.8" font-family="Times,serif" font-size="14.00">PaymasterModule</text>
</g>
<!-- PaymasterModule&#45;&gt;ApiKeyModule -->
<g id="edge2" class="edge">
<title>PaymasterModule&#45;&gt;ApiKeyModule</title>
<path fill="none" stroke="black" d="M552,-122.02C552,-139.37 552,-163 552,-163 552,-163 485.1,-163 485.1,-163"/>
<polygon fill="black" stroke="black" points="485.1,-159.5 475.1,-163 485.1,-166.5 485.1,-159.5"/>
</g>
<!-- ProjectsModule -->
<g id="node3" class="node">
<title>ProjectsModule</title>
<polygon fill="#8dd3c7" stroke="black" points="475.15,-122 472.15,-126 451.15,-126 448.15,-122 370.85,-122 370.85,-86 475.15,-86 475.15,-122"/>
<text text-anchor="middle" x="423" y="-99.8" font-family="Times,serif" font-size="14.00">ProjectsModule</text>
</g>
<!-- ProjectsModule&#45;&gt;ApiKeyModule -->
<g id="edge3" class="edge">
<title>ProjectsModule&#45;&gt;ApiKeyModule</title>
<path fill="none" stroke="black" d="M423,-122.11C423,-122.11 423,-140.99 423,-140.99"/>
<polygon fill="black" stroke="black" points="419.5,-140.99 423,-150.99 426.5,-140.99 419.5,-140.99"/>
</g>
<!-- StudioLegacyJwtModule -->
<g id="node4" class="node">
<title>StudioLegacyJwtModule</title>
<polygon fill="#8dd3c7" stroke="black" points="352.25,-122 349.25,-126 328.25,-126 325.25,-122 195.75,-122 195.75,-86 352.25,-86 352.25,-122"/>
<text text-anchor="middle" x="274" y="-99.8" font-family="Times,serif" font-size="14.00">StudioLegacyJwtModule</text>
</g>
<!-- StudioLegacyJwtModule&#45;&gt;ApiKeyModule -->
<g id="edge4" class="edge">
<title>StudioLegacyJwtModule&#45;&gt;ApiKeyModule</title>
<path fill="none" stroke="black" d="M274,-122.02C274,-139.37 274,-163 274,-163 274,-163 360.89,-163 360.89,-163"/>
<polygon fill="black" stroke="black" points="360.89,-166.5 370.89,-163 360.89,-159.5 360.89,-166.5"/>
</g>
<!-- ApiKeysService  -->
<g id="node6" class="node">
<title>ApiKeysService </title>
<polygon fill="#fb8072" stroke="black" points="478.74,-252 367.26,-252 367.26,-216 478.74,-216 478.74,-252"/>
<text text-anchor="middle" x="423" y="-229.8" font-family="Times,serif" font-size="14.00">ApiKeysService </text>
</g>
<!-- ApiKeyModule&#45;&gt;ApiKeysService  -->
<g id="edge5" class="edge">
<title>ApiKeyModule&#45;&gt;ApiKeysService </title>
<path fill="none" stroke="black" stroke-dasharray="5,2" d="M423,-187.11C423,-187.11 423,-205.99 423,-205.99"/>
<polygon fill="black" stroke="black" points="419.5,-205.99 423,-215.99 426.5,-205.99 419.5,-205.99"/>
</g>
<!-- ApiKeysService -->
<g id="node7" class="node">
<title>ApiKeysService</title>
<ellipse fill="#fdb462" stroke="black" cx="98" cy="-104" rx="74.14" ry="18"/>
<text text-anchor="middle" x="98" y="-99.8" font-family="Times,serif" font-size="14.00">ApiKeysService</text>
</g>
<!-- ApiKeysService&#45;&gt;ApiKeyModule -->
<g id="edge6" class="edge">
<title>ApiKeysService&#45;&gt;ApiKeyModule</title>
<path fill="none" stroke="black" d="M98,-122.28C98,-143.32 98,-175 98,-175 98,-175 360.78,-175 360.78,-175"/>
<polygon fill="black" stroke="black" points="360.78,-178.5 370.78,-175 360.78,-171.5 360.78,-178.5"/>
</g>
</g>
</svg>
