<?xml version="1.0" encoding="UTF-8" standalone="no"?>
<!DOCTYPE svg PUBLIC "-//W3C//DTD SVG 1.1//EN"
 "http://www.w3.org/Graphics/SVG/1.1/DTD/svg11.dtd">
<!-- Generated by graphviz version 2.47.0 (20210316.0004)
 -->
<!-- Title: dependencies Pages: 1 -->
<svg width="1314pt" height="284pt"
 viewBox="0.00 0.00 1314.00 284.00" xmlns="http://www.w3.org/2000/svg" xmlns:xlink="http://www.w3.org/1999/xlink">
<g id="graph0" class="graph" transform="scale(1 1) rotate(0) translate(4 280)">
<title>dependencies</title>
<polygon fill="white" stroke="transparent" points="-4,4 -4,-280 1310,-280 1310,4 -4,4"/>
<text text-anchor="start" x="632.01" y="-42.4" font-family="Times-12" font-weight="bold" font-size="14.00">Legend</text>
<polygon fill="#ffffb3" stroke="transparent" points="419,-10 419,-30 439,-30 439,-10 419,-10"/>
<text text-anchor="start" x="442.63" y="-15.4" font-family="Times-12" font-size="14.00"> &#160;Declarations</text>
<polygon fill="#8dd3c7" stroke="transparent" points="532,-10 532,-30 552,-30 552,-10 532,-10"/>
<text text-anchor="start" x="555.73" y="-15.4" font-family="Times-12" font-size="14.00"> &#160;Module</text>
<polygon fill="#80b1d3" stroke="transparent" points="618,-10 618,-30 638,-30 638,-10 618,-10"/>
<text text-anchor="start" x="641.78" y="-15.4" font-family="Times-12" font-size="14.00"> &#160;Bootstrap</text>
<polygon fill="#fdb462" stroke="transparent" points="715,-10 715,-30 735,-30 735,-10 715,-10"/>
<text text-anchor="start" x="738.67" y="-15.4" font-family="Times-12" font-size="14.00"> &#160;Providers</text>
<polygon fill="#fb8072" stroke="transparent" points="811,-10 811,-30 831,-30 831,-10 811,-10"/>
<text text-anchor="start" x="834.73" y="-15.4" font-family="Times-12" font-size="14.00"> &#160;Exports</text>
<g id="clust1" class="cluster">
<title>cluster_OperatorsModule</title>
<polygon fill="none" stroke="black" stroke-dasharray="1,5" points="8,-70 8,-268 1298,-268 1298,-70 8,-70"/>
</g>
<g id="clust6" class="cluster">
<title>cluster_OperatorsModule_providers</title>
<polygon fill="none" stroke="black" points="746,-78 746,-130 1290,-130 1290,-78 746,-78"/>
</g>
<g id="clust3" class="cluster">
<title>cluster_OperatorsModule_imports</title>
<polygon fill="none" stroke="black" points="16,-78 16,-130 738,-130 738,-78 16,-78"/>
</g>
<g id="clust4" class="cluster">
<title>cluster_OperatorsModule_exports</title>
<polygon fill="none" stroke="black" points="498,-208 498,-260 630,-260 630,-208 498,-208"/>
</g>
<!-- ApiKeyModule -->
<g id="node1" class="node">
<title>ApiKeyModule</title>
<polygon fill="#8dd3c7" stroke="black" points="729.87,-122 726.87,-126 705.87,-126 702.87,-122 626.13,-122 626.13,-86 729.87,-86 729.87,-122"/>
<text text-anchor="middle" x="678" y="-99.8" font-family="Times,serif" font-size="14.00">ApiKeyModule</text>
</g>
<!-- OperatorsModule -->
<g id="node7" class="node">
<title>OperatorsModule</title>
<polygon fill="#8dd3c7" stroke="black" points="621.24,-187 618.24,-191 597.24,-191 594.24,-187 506.76,-187 506.76,-151 621.24,-151 621.24,-187"/>
<text text-anchor="middle" x="564" y="-164.8" font-family="Times,serif" font-size="14.00">OperatorsModule</text>
</g>
<!-- ApiKeyModule&#45;&gt;OperatorsModule -->
<g id="edge1" class="edge">
<title>ApiKeyModule&#45;&gt;OperatorsModule</title>
<path fill="none" stroke="black" d="M625.91,-104C619.18,-104 614.57,-104 614.57,-104 614.57,-104 614.57,-140.89 614.57,-140.89"/>
<polygon fill="black" stroke="black" points="611.07,-140.89 614.57,-150.89 618.07,-140.89 611.07,-140.89"/>
</g>
<!-- AuthModule -->
<g id="node2" class="node">
<title>AuthModule</title>
<polygon fill="#8dd3c7" stroke="black" points="607.55,-122 604.55,-126 583.55,-126 580.55,-122 520.45,-122 520.45,-86 607.55,-86 607.55,-122"/>
<text text-anchor="middle" x="564" y="-99.8" font-family="Times,serif" font-size="14.00">AuthModule</text>
</g>
<!-- AuthModule&#45;&gt;OperatorsModule -->
<g id="edge2" class="edge">
<title>AuthModule&#45;&gt;OperatorsModule</title>
<path fill="none" stroke="black" d="M564,-122.11C564,-122.11 564,-140.99 564,-140.99"/>
<polygon fill="black" stroke="black" points="560.5,-140.99 564,-150.99 567.5,-140.99 560.5,-140.99"/>
</g>
<!-- DatabaseModule -->
<g id="node3" class="node">
<title>DatabaseModule</title>
<polygon fill="#8dd3c7" stroke="black" points="502.35,-122 499.35,-126 478.35,-126 475.35,-122 391.65,-122 391.65,-86 502.35,-86 502.35,-122"/>
<text text-anchor="middle" x="447" y="-99.8" font-family="Times,serif" font-size="14.00">DatabaseModule</text>
</g>
<!-- DatabaseModule&#45;&gt;OperatorsModule -->
<g id="edge3" class="edge">
<title>DatabaseModule&#45;&gt;OperatorsModule</title>
<path fill="none" stroke="black" d="M502.46,-104C509.01,-104 513.43,-104 513.43,-104 513.43,-104 513.43,-140.89 513.43,-140.89"/>
<polygon fill="black" stroke="black" points="509.93,-140.89 513.43,-150.89 516.93,-140.89 509.93,-140.89"/>
</g>
<!-- PaymasterModule -->
<g id="node4" class="node">
<title>PaymasterModule</title>
<polygon fill="#8dd3c7" stroke="black" points="373.86,-122 370.86,-126 349.86,-126 346.86,-122 256.14,-122 256.14,-86 373.86,-86 373.86,-122"/>
<text text-anchor="middle" x="315" y="-99.8" font-family="Times,serif" font-size="14.00">PaymasterModule</text>
</g>
<!-- PaymasterModule&#45;&gt;OperatorsModule -->
<g id="edge4" class="edge">
<title>PaymasterModule&#45;&gt;OperatorsModule</title>
<path fill="none" stroke="black" d="M315,-122.03C315,-138.4 315,-160 315,-160 315,-160 496.56,-160 496.56,-160"/>
<polygon fill="black" stroke="black" points="496.56,-163.5 506.56,-160 496.56,-156.5 496.56,-163.5"/>
</g>
<!-- ProjectsModule -->
<g id="node5" class="node">
<title>ProjectsModule</title>
<polygon fill="#8dd3c7" stroke="black" points="238.15,-122 235.15,-126 214.15,-126 211.15,-122 133.85,-122 133.85,-86 238.15,-86 238.15,-122"/>
<text text-anchor="middle" x="186" y="-99.8" font-family="Times,serif" font-size="14.00">ProjectsModule</text>
</g>
<!-- ProjectsModule&#45;&gt;OperatorsModule -->
<g id="edge5" class="edge">
<title>ProjectsModule&#45;&gt;OperatorsModule</title>
<path fill="none" stroke="black" d="M186,-122.11C186,-141.34 186,-169 186,-169 186,-169 496.59,-169 496.59,-169"/>
<polygon fill="black" stroke="black" points="496.59,-172.5 506.59,-169 496.59,-165.5 496.59,-172.5"/>
</g>
<!-- UsersModule -->
<g id="node6" class="node">
<title>UsersModule</title>
<polygon fill="#8dd3c7" stroke="black" points="115.92,-122 112.92,-126 91.92,-126 88.92,-122 24.08,-122 24.08,-86 115.92,-86 115.92,-122"/>
<text text-anchor="middle" x="70" y="-99.8" font-family="Times,serif" font-size="14.00">UsersModule</text>
</g>
<!-- UsersModule&#45;&gt;OperatorsModule -->
<g id="edge6" class="edge">
<title>UsersModule&#45;&gt;OperatorsModule</title>
<path fill="none" stroke="black" d="M70,-122.29C70,-144.21 70,-178 70,-178 70,-178 496.37,-178 496.37,-178"/>
<polygon fill="black" stroke="black" points="496.37,-181.5 506.37,-178 496.37,-174.5 496.37,-181.5"/>
</g>
<!-- OperatorsService  -->
<g id="node8" class="node">
<title>OperatorsService </title>
<polygon fill="#fb8072" stroke="black" points="622.17,-252 505.83,-252 505.83,-216 622.17,-216 622.17,-252"/>
<text text-anchor="middle" x="564" y="-229.8" font-family="Times,serif" font-size="14.00">OperatorsService </text>
</g>
<!-- OperatorsModule&#45;&gt;OperatorsService  -->
<g id="edge7" class="edge">
<title>OperatorsModule&#45;&gt;OperatorsService </title>
<path fill="none" stroke="black" stroke-dasharray="5,2" d="M564,-187.11C564,-187.11 564,-205.99 564,-205.99"/>
<polygon fill="black" stroke="black" points="560.5,-205.99 564,-215.99 567.5,-205.99 560.5,-205.99"/>
</g>
<!-- AnalyticsService -->
<g id="node9" class="node">
<title>AnalyticsService</title>
<ellipse fill="#fdb462" stroke="black" cx="1205" cy="-104" rx="77" ry="18"/>
<text text-anchor="middle" x="1205" y="-99.8" font-family="Times,serif" font-size="14.00">AnalyticsService</text>
</g>
<!-- AnalyticsService&#45;&gt;OperatorsModule -->
<g id="edge8" class="edge">
<title>AnalyticsService&#45;&gt;OperatorsModule</title>
<path fill="none" stroke="black" d="M1205,-122.29C1205,-144.21 1205,-178 1205,-178 1205,-178 631.45,-178 631.45,-178"/>
<polygon fill="black" stroke="black" points="631.45,-174.5 621.45,-178 631.45,-181.5 631.45,-174.5"/>
</g>
<!-- OperatorJwtStrategy -->
<g id="node10" class="node">
<title>OperatorJwtStrategy</title>
<ellipse fill="#fdb462" stroke="black" cx="1019" cy="-104" rx="90.89" ry="18"/>
<text text-anchor="middle" x="1019" y="-99.8" font-family="Times,serif" font-size="14.00">OperatorJwtStrategy</text>
</g>
<!-- OperatorJwtStrategy&#45;&gt;OperatorsModule -->
<g id="edge9" class="edge">
<title>OperatorJwtStrategy&#45;&gt;OperatorsModule</title>
<path fill="none" stroke="black" d="M1019,-122.11C1019,-141.34 1019,-169 1019,-169 1019,-169 631.63,-169 631.63,-169"/>
<polygon fill="black" stroke="black" points="631.63,-165.5 621.63,-169 631.63,-172.5 631.63,-165.5"/>
</g>
<!-- OperatorsService -->
<g id="node11" class="node">
<title>OperatorsService</title>
<ellipse fill="#fdb462" stroke="black" cx="832" cy="-104" rx="78.12" ry="18"/>
<text text-anchor="middle" x="832" y="-99.8" font-family="Times,serif" font-size="14.00">OperatorsService</text>
</g>
<!-- OperatorsService&#45;&gt;OperatorsModule -->
<g id="edge10" class="edge">
<title>OperatorsService&#45;&gt;OperatorsModule</title>
<path fill="none" stroke="black" d="M832,-122.03C832,-138.4 832,-160 832,-160 832,-160 631.49,-160 631.49,-160"/>
<polygon fill="black" stroke="black" points="631.49,-156.5 621.49,-160 631.49,-163.5 631.49,-156.5"/>
</g>
</g>
</svg>
