<?xml version="1.0" encoding="UTF-8" standalone="no"?>
<!DOCTYPE svg PUBLIC "-//W3C//DTD SVG 1.1//EN"
 "http://www.w3.org/Graphics/SVG/1.1/DTD/svg11.dtd">
<!-- Generated by graphviz version 2.47.0 (20210316.0004)
 -->
<!-- Title: dependencies Pages: 1 -->
<svg width="1427pt" height="284pt"
 viewBox="0.00 0.00 1427.00 284.00" xmlns="http://www.w3.org/2000/svg" xmlns:xlink="http://www.w3.org/1999/xlink">
<g id="graph0" class="graph" transform="scale(1 1) rotate(0) translate(4 280)">
<title>dependencies</title>
<polygon fill="white" stroke="transparent" points="-4,4 -4,-280 1423,-280 1423,4 -4,4"/>
<text text-anchor="start" x="688.51" y="-42.4" font-family="Times-12" font-weight="bold" font-size="14.00">Legend</text>
<polygon fill="#ffffb3" stroke="transparent" points="475.5,-10 475.5,-30 495.5,-30 495.5,-10 475.5,-10"/>
<text text-anchor="start" x="499.13" y="-15.4" font-family="Times-12" font-size="14.00"> &#160;Declarations</text>
<polygon fill="#8dd3c7" stroke="transparent" points="588.5,-10 588.5,-30 608.5,-30 608.5,-10 588.5,-10"/>
<text text-anchor="start" x="612.23" y="-15.4" font-family="Times-12" font-size="14.00"> &#160;Module</text>
<polygon fill="#80b1d3" stroke="transparent" points="674.5,-10 674.5,-30 694.5,-30 694.5,-10 674.5,-10"/>
<text text-anchor="start" x="698.28" y="-15.4" font-family="Times-12" font-size="14.00"> &#160;Bootstrap</text>
<polygon fill="#fdb462" stroke="transparent" points="771.5,-10 771.5,-30 791.5,-30 791.5,-10 771.5,-10"/>
<text text-anchor="start" x="795.17" y="-15.4" font-family="Times-12" font-size="14.00"> &#160;Providers</text>
<polygon fill="#fb8072" stroke="transparent" points="867.5,-10 867.5,-30 887.5,-30 887.5,-10 867.5,-10"/>
<text text-anchor="start" x="891.23" y="-15.4" font-family="Times-12" font-size="14.00"> &#160;Exports</text>
<g id="clust1" class="cluster">
<title>cluster_OperatorsModule</title>
<polygon fill="none" stroke="black" stroke-dasharray="1,5" points="8,-70 8,-268 1411,-268 1411,-70 8,-70"/>
</g>
<g id="clust3" class="cluster">
<title>cluster_OperatorsModule_imports</title>
<polygon fill="none" stroke="black" points="568,-78 568,-130 1403,-130 1403,-78 568,-78"/>
</g>
<g id="clust4" class="cluster">
<title>cluster_OperatorsModule_exports</title>
<polygon fill="none" stroke="black" points="726,-208 726,-260 858,-260 858,-208 726,-208"/>
</g>
<g id="clust6" class="cluster">
<title>cluster_OperatorsModule_providers</title>
<polygon fill="none" stroke="black" points="16,-78 16,-130 560,-130 560,-78 16,-78"/>
</g>
<!-- ApiKeyModule -->
<g id="node1" class="node">
<title>ApiKeyModule</title>
<polygon fill="#8dd3c7" stroke="black" points="1394.87,-122 1391.87,-126 1370.87,-126 1367.87,-122 1291.13,-122 1291.13,-86 1394.87,-86 1394.87,-122"/>
<text text-anchor="middle" x="1343" y="-99.8" font-family="Times,serif" font-size="14.00">ApiKeyModule</text>
</g>
<!-- OperatorsModule -->
<g id="node8" class="node">
<title>OperatorsModule</title>
<polygon fill="#8dd3c7" stroke="black" points="849.24,-187 846.24,-191 825.24,-191 822.24,-187 734.76,-187 734.76,-151 849.24,-151 849.24,-187"/>
<text text-anchor="middle" x="792" y="-164.8" font-family="Times,serif" font-size="14.00">OperatorsModule</text>
</g>
<!-- ApiKeyModule&#45;&gt;OperatorsModule -->
<g id="edge1" class="edge">
<title>ApiKeyModule&#45;&gt;OperatorsModule</title>
<path fill="none" stroke="black" d="M1343,-122.01C1343,-144.49 1343,-180 1343,-180 1343,-180 859.41,-180 859.41,-180"/>
<polygon fill="black" stroke="black" points="859.41,-176.5 849.41,-180 859.41,-183.5 859.41,-176.5"/>
</g>
<!-- AuthModule -->
<g id="node2" class="node">
<title>AuthModule</title>
<polygon fill="#8dd3c7" stroke="black" points="1272.55,-122 1269.55,-126 1248.55,-126 1245.55,-122 1185.45,-122 1185.45,-86 1272.55,-86 1272.55,-122"/>
<text text-anchor="middle" x="1229" y="-99.8" font-family="Times,serif" font-size="14.00">AuthModule</text>
</g>
<!-- AuthModule&#45;&gt;OperatorsModule -->
<g id="edge2" class="edge">
<title>AuthModule&#45;&gt;OperatorsModule</title>
<path fill="none" stroke="black" d="M1229,-122.13C1229,-142.57 1229,-173 1229,-173 1229,-173 859.58,-173 859.58,-173"/>
<polygon fill="black" stroke="black" points="859.58,-169.5 849.58,-173 859.58,-176.5 859.58,-169.5"/>
</g>
<!-- DatabaseModule -->
<g id="node3" class="node">
<title>DatabaseModule</title>
<polygon fill="#8dd3c7" stroke="black" points="1167.35,-122 1164.35,-126 1143.35,-126 1140.35,-122 1056.65,-122 1056.65,-86 1167.35,-86 1167.35,-122"/>
<text text-anchor="middle" x="1112" y="-99.8" font-family="Times,serif" font-size="14.00">DatabaseModule</text>
</g>
<!-- DatabaseModule&#45;&gt;OperatorsModule -->
<g id="edge3" class="edge">
<title>DatabaseModule&#45;&gt;OperatorsModule</title>
<path fill="none" stroke="black" d="M1112,-122.27C1112,-140.56 1112,-166 1112,-166 1112,-166 859.58,-166 859.58,-166"/>
<polygon fill="black" stroke="black" points="859.58,-162.5 849.58,-166 859.58,-169.5 859.58,-162.5"/>
</g>
<!-- PaymasterModule -->
<g id="node4" class="node">
<title>PaymasterModule</title>
<polygon fill="#8dd3c7" stroke="black" points="1038.86,-122 1035.86,-126 1014.86,-126 1011.86,-122 921.14,-122 921.14,-86 1038.86,-86 1038.86,-122"/>
<text text-anchor="middle" x="980" y="-99.8" font-family="Times,serif" font-size="14.00">PaymasterModule</text>
</g>
<!-- PaymasterModule&#45;&gt;OperatorsModule -->
<g id="edge4" class="edge">
<title>PaymasterModule&#45;&gt;OperatorsModule</title>
<path fill="none" stroke="black" d="M980,-122.01C980,-138.05 980,-159 980,-159 980,-159 859.43,-159 859.43,-159"/>
<polygon fill="black" stroke="black" points="859.43,-155.5 849.43,-159 859.43,-162.5 859.43,-155.5"/>
</g>
<!-- ProjectsModule -->
<g id="node5" class="node">
<title>ProjectsModule</title>
<polygon fill="#8dd3c7" stroke="black" points="903.15,-122 900.15,-126 879.15,-126 876.15,-122 798.85,-122 798.85,-86 903.15,-86 903.15,-122"/>
<text text-anchor="middle" x="851" y="-99.8" font-family="Times,serif" font-size="14.00">ProjectsModule</text>
</g>
<!-- ProjectsModule&#45;&gt;OperatorsModule -->
<g id="edge5" class="edge">
<title>ProjectsModule&#45;&gt;OperatorsModule</title>
<path fill="none" stroke="black" d="M824.02,-122.11C824.02,-122.11 824.02,-140.99 824.02,-140.99"/>
<polygon fill="black" stroke="black" points="820.52,-140.99 824.02,-150.99 827.52,-140.99 820.52,-140.99"/>
</g>
<!-- TokenModule -->
<g id="node6" class="node">
<title>TokenModule</title>
<polygon fill="#8dd3c7" stroke="black" points="780.82,-122 777.82,-126 756.82,-126 753.82,-122 685.18,-122 685.18,-86 780.82,-86 780.82,-122"/>
<text text-anchor="middle" x="733" y="-99.8" font-family="Times,serif" font-size="14.00">TokenModule</text>
</g>
<!-- TokenModule&#45;&gt;OperatorsModule -->
<g id="edge6" class="edge">
<title>TokenModule&#45;&gt;OperatorsModule</title>
<path fill="none" stroke="black" d="M757.64,-122.11C757.64,-122.11 757.64,-140.99 757.64,-140.99"/>
<polygon fill="black" stroke="black" points="754.14,-140.99 757.64,-150.99 761.14,-140.99 754.14,-140.99"/>
</g>
<!-- UsersModule -->
<g id="node7" class="node">
<title>UsersModule</title>
<polygon fill="#8dd3c7" stroke="black" points="667.92,-122 664.92,-126 643.92,-126 640.92,-122 576.08,-122 576.08,-86 667.92,-86 667.92,-122"/>
<text text-anchor="middle" x="622" y="-99.8" font-family="Times,serif" font-size="14.00">UsersModule</text>
</g>
<!-- UsersModule&#45;&gt;OperatorsModule -->
<g id="edge7" class="edge">
<title>UsersModule&#45;&gt;OperatorsModule</title>
<path fill="none" stroke="black" d="M622,-122.01C622,-138.05 622,-159 622,-159 622,-159 724.45,-159 724.45,-159"/>
<polygon fill="black" stroke="black" points="724.45,-162.5 734.45,-159 724.45,-155.5 724.45,-162.5"/>
</g>
<!-- OperatorsService  -->
<g id="node9" class="node">
<title>OperatorsService </title>
<polygon fill="#fb8072" stroke="black" points="850.17,-252 733.83,-252 733.83,-216 850.17,-216 850.17,-252"/>
<text text-anchor="middle" x="792" y="-229.8" font-family="Times,serif" font-size="14.00">OperatorsService </text>
</g>
<!-- OperatorsModule&#45;&gt;OperatorsService  -->
<g id="edge8" class="edge">
<title>OperatorsModule&#45;&gt;OperatorsService </title>
<path fill="none" stroke="black" stroke-dasharray="5,2" d="M792,-187.11C792,-187.11 792,-205.99 792,-205.99"/>
<polygon fill="black" stroke="black" points="788.5,-205.99 792,-215.99 795.5,-205.99 788.5,-205.99"/>
</g>
<!-- AnalyticsService -->
<g id="node10" class="node">
<title>AnalyticsService</title>
<ellipse fill="#fdb462" stroke="black" cx="475" cy="-104" rx="77" ry="18"/>
<text text-anchor="middle" x="475" y="-99.8" font-family="Times,serif" font-size="14.00">AnalyticsService</text>
</g>
<!-- AnalyticsService&#45;&gt;OperatorsModule -->
<g id="edge9" class="edge">
<title>AnalyticsService&#45;&gt;OperatorsModule</title>
<path fill="none" stroke="black" d="M475,-122.27C475,-140.56 475,-166 475,-166 475,-166 724.59,-166 724.59,-166"/>
<polygon fill="black" stroke="black" points="724.59,-169.5 734.59,-166 724.59,-162.5 724.59,-169.5"/>
</g>
<!-- OperatorJwtStrategy -->
<g id="node11" class="node">
<title>OperatorJwtStrategy</title>
<ellipse fill="#fdb462" stroke="black" cx="289" cy="-104" rx="90.89" ry="18"/>
<text text-anchor="middle" x="289" y="-99.8" font-family="Times,serif" font-size="14.00">OperatorJwtStrategy</text>
</g>
<!-- OperatorJwtStrategy&#45;&gt;OperatorsModule -->
<g id="edge10" class="edge">
<title>OperatorJwtStrategy&#45;&gt;OperatorsModule</title>
<path fill="none" stroke="black" d="M289,-122.13C289,-142.57 289,-173 289,-173 289,-173 724.3,-173 724.3,-173"/>
<polygon fill="black" stroke="black" points="724.3,-176.5 734.3,-173 724.3,-169.5 724.3,-176.5"/>
</g>
<!-- OperatorsService -->
<g id="node12" class="node">
<title>OperatorsService</title>
<ellipse fill="#fdb462" stroke="black" cx="102" cy="-104" rx="78.12" ry="18"/>
<text text-anchor="middle" x="102" y="-99.8" font-family="Times,serif" font-size="14.00">OperatorsService</text>
</g>
<!-- OperatorsService&#45;&gt;OperatorsModule -->
<g id="edge11" class="edge">
<title>OperatorsService&#45;&gt;OperatorsModule</title>
<path fill="none" stroke="black" d="M102,-122.01C102,-144.49 102,-180 102,-180 102,-180 724.65,-180 724.65,-180"/>
<polygon fill="black" stroke="black" points="724.65,-183.5 734.65,-180 724.65,-176.5 724.65,-183.5"/>
</g>
</g>
</svg>
