<?xml version="1.0" encoding="UTF-8" standalone="no"?>
<!DOCTYPE svg PUBLIC "-//W3C//DTD SVG 1.1//EN"
 "http://www.w3.org/Graphics/SVG/1.1/DTD/svg11.dtd">
<!-- Generated by graphviz version 2.47.0 (20210316.0004)
 -->
<!-- Title: dependencies Pages: 1 -->
<svg width="1314pt" height="284pt"
 viewBox="0.00 0.00 1314.00 284.00" xmlns="http://www.w3.org/2000/svg" xmlns:xlink="http://www.w3.org/1999/xlink">
<g id="graph0" class="graph" transform="scale(1 1) rotate(0) translate(4 280)">
<title>dependencies</title>
<polygon fill="white" stroke="transparent" points="-4,4 -4,-280 1310,-280 1310,4 -4,4"/>
<text text-anchor="start" x="632.01" y="-42.4" font-family="Times-12" font-weight="bold" font-size="14.00">Legend</text>
<polygon fill="#ffffb3" stroke="transparent" points="419,-10 419,-30 439,-30 439,-10 419,-10"/>
<text text-anchor="start" x="442.63" y="-15.4" font-family="Times-12" font-size="14.00"> &#160;Declarations</text>
<polygon fill="#8dd3c7" stroke="transparent" points="532,-10 532,-30 552,-30 552,-10 532,-10"/>
<text text-anchor="start" x="555.73" y="-15.4" font-family="Times-12" font-size="14.00"> &#160;Module</text>
<polygon fill="#80b1d3" stroke="transparent" points="618,-10 618,-30 638,-30 638,-10 618,-10"/>
<text text-anchor="start" x="641.78" y="-15.4" font-family="Times-12" font-size="14.00"> &#160;Bootstrap</text>
<polygon fill="#fdb462" stroke="transparent" points="715,-10 715,-30 735,-30 735,-10 715,-10"/>
<text text-anchor="start" x="738.67" y="-15.4" font-family="Times-12" font-size="14.00"> &#160;Providers</text>
<polygon fill="#fb8072" stroke="transparent" points="811,-10 811,-30 831,-30 831,-10 811,-10"/>
<text text-anchor="start" x="834.73" y="-15.4" font-family="Times-12" font-size="14.00"> &#160;Exports</text>
<g id="clust1" class="cluster">
<title>cluster_OperatorsModule</title>
<polygon fill="none" stroke="black" stroke-dasharray="1,5" points="8,-70 8,-268 1298,-268 1298,-70 8,-70"/>
</g>
<g id="clust3" class="cluster">
<title>cluster_OperatorsModule_imports</title>
<polygon fill="none" stroke="black" points="568,-78 568,-130 1290,-130 1290,-78 568,-78"/>
</g>
<g id="clust4" class="cluster">
<title>cluster_OperatorsModule_exports</title>
<polygon fill="none" stroke="black" points="672,-208 672,-260 804,-260 804,-208 672,-208"/>
</g>
<g id="clust6" class="cluster">
<title>cluster_OperatorsModule_providers</title>
<polygon fill="none" stroke="black" points="16,-78 16,-130 560,-130 560,-78 16,-78"/>
</g>
<!-- ApiKeyModule -->
<g id="node1" class="node">
<title>ApiKeyModule</title>
<polygon fill="#8dd3c7" stroke="black" points="1281.87,-122 1278.87,-126 1257.87,-126 1254.87,-122 1178.13,-122 1178.13,-86 1281.87,-86 1281.87,-122"/>
<text text-anchor="middle" x="1230" y="-99.8" font-family="Times,serif" font-size="14.00">ApiKeyModule</text>
</g>
<!-- OperatorsModule -->
<g id="node7" class="node">
<title>OperatorsModule</title>
<polygon fill="#8dd3c7" stroke="black" points="795.24,-187 792.24,-191 771.24,-191 768.24,-187 680.76,-187 680.76,-151 795.24,-151 795.24,-187"/>
<text text-anchor="middle" x="738" y="-164.8" font-family="Times,serif" font-size="14.00">OperatorsModule</text>
</g>
<!-- ApiKeyModule&#45;&gt;OperatorsModule -->
<g id="edge1" class="edge">
<title>ApiKeyModule&#45;&gt;OperatorsModule</title>
<path fill="none" stroke="black" d="M1230,-122.01C1230,-144.49 1230,-180 1230,-180 1230,-180 805.4,-180 805.4,-180"/>
<polygon fill="black" stroke="black" points="805.4,-176.5 795.4,-180 805.4,-183.5 805.4,-176.5"/>
</g>
<!-- AuthModule -->
<g id="node2" class="node">
<title>AuthModule</title>
<polygon fill="#8dd3c7" stroke="black" points="1159.55,-122 1156.55,-126 1135.55,-126 1132.55,-122 1072.45,-122 1072.45,-86 1159.55,-86 1159.55,-122"/>
<text text-anchor="middle" x="1116" y="-99.8" font-family="Times,serif" font-size="14.00">AuthModule</text>
</g>
<!-- AuthModule&#45;&gt;OperatorsModule -->
<g id="edge2" class="edge">
<title>AuthModule&#45;&gt;OperatorsModule</title>
<path fill="none" stroke="black" d="M1116,-122.13C1116,-142.57 1116,-173 1116,-173 1116,-173 805.41,-173 805.41,-173"/>
<polygon fill="black" stroke="black" points="805.41,-169.5 795.41,-173 805.41,-176.5 805.41,-169.5"/>
</g>
<!-- DatabaseModule -->
<g id="node3" class="node">
<title>DatabaseModule</title>
<polygon fill="#8dd3c7" stroke="black" points="1054.35,-122 1051.35,-126 1030.35,-126 1027.35,-122 943.65,-122 943.65,-86 1054.35,-86 1054.35,-122"/>
<text text-anchor="middle" x="999" y="-99.8" font-family="Times,serif" font-size="14.00">DatabaseModule</text>
</g>
<!-- DatabaseModule&#45;&gt;OperatorsModule -->
<g id="edge3" class="edge">
<title>DatabaseModule&#45;&gt;OperatorsModule</title>
<path fill="none" stroke="black" d="M999,-122.27C999,-140.56 999,-166 999,-166 999,-166 805.28,-166 805.28,-166"/>
<polygon fill="black" stroke="black" points="805.28,-162.5 795.28,-166 805.28,-169.5 805.28,-162.5"/>
</g>
<!-- PaymasterModule -->
<g id="node4" class="node">
<title>PaymasterModule</title>
<polygon fill="#8dd3c7" stroke="black" points="925.86,-122 922.86,-126 901.86,-126 898.86,-122 808.14,-122 808.14,-86 925.86,-86 925.86,-122"/>
<text text-anchor="middle" x="867" y="-99.8" font-family="Times,serif" font-size="14.00">PaymasterModule</text>
</g>
<!-- PaymasterModule&#45;&gt;OperatorsModule -->
<g id="edge4" class="edge">
<title>PaymasterModule&#45;&gt;OperatorsModule</title>
<path fill="none" stroke="black" d="M867,-122.01C867,-138.05 867,-159 867,-159 867,-159 805.33,-159 805.33,-159"/>
<polygon fill="black" stroke="black" points="805.33,-155.5 795.33,-159 805.33,-162.5 805.33,-155.5"/>
</g>
<!-- ProjectsModule -->
<g id="node5" class="node">
<title>ProjectsModule</title>
<polygon fill="#8dd3c7" stroke="black" points="790.15,-122 787.15,-126 766.15,-126 763.15,-122 685.85,-122 685.85,-86 790.15,-86 790.15,-122"/>
<text text-anchor="middle" x="738" y="-99.8" font-family="Times,serif" font-size="14.00">ProjectsModule</text>
</g>
<!-- ProjectsModule&#45;&gt;OperatorsModule -->
<g id="edge5" class="edge">
<title>ProjectsModule&#45;&gt;OperatorsModule</title>
<path fill="none" stroke="black" d="M738,-122.11C738,-122.11 738,-140.99 738,-140.99"/>
<polygon fill="black" stroke="black" points="734.5,-140.99 738,-150.99 741.5,-140.99 734.5,-140.99"/>
</g>
<!-- UsersModule -->
<g id="node6" class="node">
<title>UsersModule</title>
<polygon fill="#8dd3c7" stroke="black" points="667.92,-122 664.92,-126 643.92,-126 640.92,-122 576.08,-122 576.08,-86 667.92,-86 667.92,-122"/>
<text text-anchor="middle" x="622" y="-99.8" font-family="Times,serif" font-size="14.00">UsersModule</text>
</g>
<!-- UsersModule&#45;&gt;OperatorsModule -->
<g id="edge6" class="edge">
<title>UsersModule&#45;&gt;OperatorsModule</title>
<path fill="none" stroke="black" d="M622,-122.01C622,-138.05 622,-159 622,-159 622,-159 670.68,-159 670.68,-159"/>
<polygon fill="black" stroke="black" points="670.68,-162.5 680.68,-159 670.68,-155.5 670.68,-162.5"/>
</g>
<!-- OperatorsService  -->
<g id="node8" class="node">
<title>OperatorsService </title>
<polygon fill="#fb8072" stroke="black" points="796.17,-252 679.83,-252 679.83,-216 796.17,-216 796.17,-252"/>
<text text-anchor="middle" x="738" y="-229.8" font-family="Times,serif" font-size="14.00">OperatorsService </text>
</g>
<!-- OperatorsModule&#45;&gt;OperatorsService  -->
<g id="edge7" class="edge">
<title>OperatorsModule&#45;&gt;OperatorsService </title>
<path fill="none" stroke="black" stroke-dasharray="5,2" d="M738,-187.11C738,-187.11 738,-205.99 738,-205.99"/>
<polygon fill="black" stroke="black" points="734.5,-205.99 738,-215.99 741.5,-205.99 734.5,-205.99"/>
</g>
<!-- AnalyticsService -->
<g id="node9" class="node">
<title>AnalyticsService</title>
<ellipse fill="#fdb462" stroke="black" cx="475" cy="-104" rx="77" ry="18"/>
<text text-anchor="middle" x="475" y="-99.8" font-family="Times,serif" font-size="14.00">AnalyticsService</text>
</g>
<!-- AnalyticsService&#45;&gt;OperatorsModule -->
<g id="edge8" class="edge">
<title>AnalyticsService&#45;&gt;OperatorsModule</title>
<path fill="none" stroke="black" d="M475,-122.27C475,-140.56 475,-166 475,-166 475,-166 670.61,-166 670.61,-166"/>
<polygon fill="black" stroke="black" points="670.61,-169.5 680.61,-166 670.61,-162.5 670.61,-169.5"/>
</g>
<!-- OperatorJwtStrategy -->
<g id="node10" class="node">
<title>OperatorJwtStrategy</title>
<ellipse fill="#fdb462" stroke="black" cx="289" cy="-104" rx="90.89" ry="18"/>
<text text-anchor="middle" x="289" y="-99.8" font-family="Times,serif" font-size="14.00">OperatorJwtStrategy</text>
</g>
<!-- OperatorJwtStrategy&#45;&gt;OperatorsModule -->
<g id="edge9" class="edge">
<title>OperatorJwtStrategy&#45;&gt;OperatorsModule</title>
<path fill="none" stroke="black" d="M289,-122.13C289,-142.57 289,-173 289,-173 289,-173 670.68,-173 670.68,-173"/>
<polygon fill="black" stroke="black" points="670.68,-176.5 680.68,-173 670.68,-169.5 670.68,-176.5"/>
</g>
<!-- OperatorsService -->
<g id="node11" class="node">
<title>OperatorsService</title>
<ellipse fill="#fdb462" stroke="black" cx="102" cy="-104" rx="78.12" ry="18"/>
<text text-anchor="middle" x="102" y="-99.8" font-family="Times,serif" font-size="14.00">OperatorsService</text>
</g>
<!-- OperatorsService&#45;&gt;OperatorsModule -->
<g id="edge10" class="edge">
<title>OperatorsService&#45;&gt;OperatorsModule</title>
<path fill="none" stroke="black" d="M102,-122.01C102,-144.49 102,-180 102,-180 102,-180 670.72,-180 670.72,-180"/>
<polygon fill="black" stroke="black" points="670.72,-183.5 680.72,-180 670.72,-176.5 670.72,-183.5"/>
</g>
</g>
</svg>
