<?xml version="1.0" encoding="UTF-8" standalone="no"?>
<!DOCTYPE svg PUBLIC "-//W3C//DTD SVG 1.1//EN"
 "http://www.w3.org/Graphics/SVG/1.1/DTD/svg11.dtd">
<!-- Generated by graphviz version 2.47.0 (20210316.0004)
 -->
<!-- Title: dependencies Pages: 1 -->
<svg width="522pt" height="211pt"
 viewBox="0.00 0.00 522.00 211.00" xmlns="http://www.w3.org/2000/svg" xmlns:xlink="http://www.w3.org/1999/xlink">
<g id="graph0" class="graph" transform="scale(1 1) rotate(0) translate(4 207)">
<title>dependencies</title>
<polygon fill="white" stroke="transparent" points="-4,4 -4,-207 518,-207 518,4 -4,4"/>
<text text-anchor="start" x="236.01" y="-42.4" font-family="Times-12" font-weight="bold" font-size="14.00">Legend</text>
<polygon fill="#ffffb3" stroke="transparent" points="23,-10 23,-30 43,-30 43,-10 23,-10"/>
<text text-anchor="start" x="46.63" y="-15.4" font-family="Times-12" font-size="14.00"> &#160;Declarations</text>
<polygon fill="#8dd3c7" stroke="transparent" points="136,-10 136,-30 156,-30 156,-10 136,-10"/>
<text text-anchor="start" x="159.73" y="-15.4" font-family="Times-12" font-size="14.00"> &#160;Module</text>
<polygon fill="#80b1d3" stroke="transparent" points="222,-10 222,-30 242,-30 242,-10 222,-10"/>
<text text-anchor="start" x="245.78" y="-15.4" font-family="Times-12" font-size="14.00"> &#160;Bootstrap</text>
<polygon fill="#fdb462" stroke="transparent" points="319,-10 319,-30 339,-30 339,-10 319,-10"/>
<text text-anchor="start" x="342.67" y="-15.4" font-family="Times-12" font-size="14.00"> &#160;Providers</text>
<polygon fill="#fb8072" stroke="transparent" points="415,-10 415,-30 435,-30 435,-10 415,-10"/>
<text text-anchor="start" x="438.73" y="-15.4" font-family="Times-12" font-size="14.00"> &#160;Exports</text>
<g id="clust1" class="cluster">
<title>cluster_PaymasterApiModule</title>
<polygon fill="none" stroke="black" stroke-dasharray="1,5" points="8,-70 8,-195 506,-195 506,-70 8,-70"/>
</g>
<g id="clust6" class="cluster">
<title>cluster_PaymasterApiModule_providers</title>
<polygon fill="none" stroke="black" points="144,-78 144,-130 498,-130 498,-78 144,-78"/>
</g>
<g id="clust3" class="cluster">
<title>cluster_PaymasterApiModule_imports</title>
<polygon fill="none" stroke="black" points="16,-78 16,-130 136,-130 136,-78 16,-78"/>
</g>
<!-- ApiKeyModule -->
<g id="node1" class="node">
<title>ApiKeyModule</title>
<polygon fill="#8dd3c7" stroke="black" points="127.87,-122 124.87,-126 103.87,-126 100.87,-122 24.13,-122 24.13,-86 127.87,-86 127.87,-122"/>
<text text-anchor="middle" x="76" y="-99.8" font-family="Times,serif" font-size="14.00">ApiKeyModule</text>
</g>
<!-- PaymasterApiModule -->
<g id="node2" class="node">
<title>PaymasterApiModule</title>
<polygon fill="#8dd3c7" stroke="black" points="286.36,-187 283.36,-191 262.36,-191 259.36,-187 147.64,-187 147.64,-151 286.36,-151 286.36,-187"/>
<text text-anchor="middle" x="217" y="-164.8" font-family="Times,serif" font-size="14.00">PaymasterApiModule</text>
</g>
<!-- ApiKeyModule&#45;&gt;PaymasterApiModule -->
<g id="edge1" class="edge">
<title>ApiKeyModule&#45;&gt;PaymasterApiModule</title>
<path fill="none" stroke="black" d="M76,-122.11C76,-141.34 76,-169 76,-169 76,-169 137.33,-169 137.33,-169"/>
<polygon fill="black" stroke="black" points="137.33,-172.5 147.33,-169 137.33,-165.5 137.33,-172.5"/>
</g>
<!-- PaymasterApiService -->
<g id="node3" class="node">
<title>PaymasterApiService</title>
<ellipse fill="#fdb462" stroke="black" cx="395" cy="-104" rx="94.9" ry="18"/>
<text text-anchor="middle" x="395" y="-99.8" font-family="Times,serif" font-size="14.00">PaymasterApiService</text>
</g>
<!-- PaymasterApiService&#45;&gt;PaymasterApiModule -->
<g id="edge2" class="edge">
<title>PaymasterApiService&#45;&gt;PaymasterApiModule</title>
<path fill="none" stroke="black" d="M395,-122.11C395,-141.34 395,-169 395,-169 395,-169 296.58,-169 296.58,-169"/>
<polygon fill="black" stroke="black" points="296.58,-165.5 286.58,-169 296.58,-172.5 296.58,-165.5"/>
</g>
<!-- UserOpParser -->
<g id="node4" class="node">
<title>UserOpParser</title>
<ellipse fill="#fdb462" stroke="black" cx="217" cy="-104" rx="65.38" ry="18"/>
<text text-anchor="middle" x="217" y="-99.8" font-family="Times,serif" font-size="14.00">UserOpParser</text>
</g>
<!-- UserOpParser&#45;&gt;PaymasterApiModule -->
<g id="edge3" class="edge">
<title>UserOpParser&#45;&gt;PaymasterApiModule</title>
<path fill="none" stroke="black" d="M217,-122.11C217,-122.11 217,-140.99 217,-140.99"/>
<polygon fill="black" stroke="black" points="213.5,-140.99 217,-150.99 220.5,-140.99 213.5,-140.99"/>
</g>
</g>
</svg>
