<?xml version="1.0" encoding="UTF-8" standalone="no"?>
<!DOCTYPE svg PUBLIC "-//W3C//DTD SVG 1.1//EN"
 "http://www.w3.org/Graphics/SVG/1.1/DTD/svg11.dtd">
<!-- Generated by graphviz version 2.47.0 (20210316.0004)
 -->
<!-- Title: dependencies Pages: 1 -->
<svg width="742pt" height="211pt"
 viewBox="0.00 0.00 742.00 211.00" xmlns="http://www.w3.org/2000/svg" xmlns:xlink="http://www.w3.org/1999/xlink">
<g id="graph0" class="graph" transform="scale(1 1) rotate(0) translate(4 207)">
<title>dependencies</title>
<polygon fill="white" stroke="transparent" points="-4,4 -4,-207 738,-207 738,4 -4,4"/>
<text text-anchor="start" x="346.01" y="-42.4" font-family="Times-12" font-weight="bold" font-size="14.00">Legend</text>
<polygon fill="#ffffb3" stroke="transparent" points="133,-10 133,-30 153,-30 153,-10 133,-10"/>
<text text-anchor="start" x="156.63" y="-15.4" font-family="Times-12" font-size="14.00"> &#160;Declarations</text>
<polygon fill="#8dd3c7" stroke="transparent" points="246,-10 246,-30 266,-30 266,-10 246,-10"/>
<text text-anchor="start" x="269.73" y="-15.4" font-family="Times-12" font-size="14.00"> &#160;Module</text>
<polygon fill="#80b1d3" stroke="transparent" points="332,-10 332,-30 352,-30 352,-10 332,-10"/>
<text text-anchor="start" x="355.78" y="-15.4" font-family="Times-12" font-size="14.00"> &#160;Bootstrap</text>
<polygon fill="#fdb462" stroke="transparent" points="429,-10 429,-30 449,-30 449,-10 429,-10"/>
<text text-anchor="start" x="452.67" y="-15.4" font-family="Times-12" font-size="14.00"> &#160;Providers</text>
<polygon fill="#fb8072" stroke="transparent" points="525,-10 525,-30 545,-30 545,-10 525,-10"/>
<text text-anchor="start" x="548.73" y="-15.4" font-family="Times-12" font-size="14.00"> &#160;Exports</text>
<g id="clust1" class="cluster">
<title>cluster_ChargeAppsServiceModule</title>
<polygon fill="none" stroke="black" stroke-dasharray="1,5" points="8,-70 8,-195 726,-195 726,-70 8,-70"/>
</g>
<g id="clust3" class="cluster">
<title>cluster_ChargeAppsServiceModule_imports</title>
<polygon fill="none" stroke="black" points="274,-78 274,-130 718,-130 718,-78 274,-78"/>
</g>
<g id="clust6" class="cluster">
<title>cluster_ChargeAppsServiceModule_providers</title>
<polygon fill="none" stroke="black" points="16,-78 16,-130 266,-130 266,-78 16,-78"/>
</g>
<!-- ApiKeysModule -->
<g id="node1" class="node">
<title>ApiKeysModule</title>
<polygon fill="#8dd3c7" stroke="black" points="709.81,-122 706.81,-126 685.81,-126 682.81,-122 600.19,-122 600.19,-86 709.81,-86 709.81,-122"/>
<text text-anchor="middle" x="655" y="-99.8" font-family="Times,serif" font-size="14.00">ApiKeysModule</text>
</g>
<!-- ChargeAppsServiceModule -->
<g id="node4" class="node">
<title>ChargeAppsServiceModule</title>
<polygon fill="#8dd3c7" stroke="black" points="503.51,-187 500.51,-191 479.51,-191 476.51,-187 332.49,-187 332.49,-151 503.51,-151 503.51,-187"/>
<text text-anchor="middle" x="418" y="-164.8" font-family="Times,serif" font-size="14.00">ChargeAppsServiceModule</text>
</g>
<!-- ApiKeysModule&#45;&gt;ChargeAppsServiceModule -->
<g id="edge1" class="edge">
<title>ApiKeysModule&#45;&gt;ChargeAppsServiceModule</title>
<path fill="none" stroke="black" d="M655,-122.11C655,-141.34 655,-169 655,-169 655,-169 513.56,-169 513.56,-169"/>
<polygon fill="black" stroke="black" points="513.56,-165.5 503.56,-169 513.56,-172.5 513.56,-165.5"/>
</g>
<!-- EthereumPaymentsModule -->
<g id="node2" class="node">
<title>EthereumPaymentsModule</title>
<polygon fill="#8dd3c7" stroke="black" points="582.41,-122 579.41,-126 558.41,-126 555.41,-122 413.59,-122 413.59,-86 582.41,-86 582.41,-122"/>
<text text-anchor="middle" x="498" y="-99.8" font-family="Times,serif" font-size="14.00">EthereumPaymentsModule</text>
</g>
<!-- EthereumPaymentsModule&#45;&gt;ChargeAppsServiceModule -->
<g id="edge2" class="edge">
<title>EthereumPaymentsModule&#45;&gt;ChargeAppsServiceModule</title>
<path fill="none" stroke="black" d="M458.77,-122.11C458.77,-122.11 458.77,-140.99 458.77,-140.99"/>
<polygon fill="black" stroke="black" points="455.27,-140.99 458.77,-150.99 462.27,-140.99 455.27,-140.99"/>
</g>
<!-- PaymentsModule -->
<g id="node3" class="node">
<title>PaymentsModule</title>
<polygon fill="#8dd3c7" stroke="black" points="395.99,-122 392.99,-126 371.99,-126 368.99,-122 282.01,-122 282.01,-86 395.99,-86 395.99,-122"/>
<text text-anchor="middle" x="339" y="-99.8" font-family="Times,serif" font-size="14.00">PaymentsModule</text>
</g>
<!-- PaymentsModule&#45;&gt;ChargeAppsServiceModule -->
<g id="edge3" class="edge">
<title>PaymentsModule&#45;&gt;ChargeAppsServiceModule</title>
<path fill="none" stroke="black" d="M364.12,-122.11C364.12,-122.11 364.12,-140.99 364.12,-140.99"/>
<polygon fill="black" stroke="black" points="360.62,-140.99 364.12,-150.99 367.62,-140.99 360.62,-140.99"/>
</g>
<!-- ChargeAppsServiceService -->
<g id="node5" class="node">
<title>ChargeAppsServiceService</title>
<ellipse fill="#fdb462" stroke="black" cx="141" cy="-104" rx="117.43" ry="18"/>
<text text-anchor="middle" x="141" y="-99.8" font-family="Times,serif" font-size="14.00">ChargeAppsServiceService</text>
</g>
<!-- ChargeAppsServiceService&#45;&gt;ChargeAppsServiceModule -->
<g id="edge4" class="edge">
<title>ChargeAppsServiceService&#45;&gt;ChargeAppsServiceModule</title>
<path fill="none" stroke="black" d="M141,-122.11C141,-141.34 141,-169 141,-169 141,-169 322.25,-169 322.25,-169"/>
<polygon fill="black" stroke="black" points="322.25,-172.5 332.25,-169 322.25,-165.5 322.25,-172.5"/>
</g>
</g>
</svg>
