<?xml version="1.0" encoding="UTF-8" standalone="no"?>
<!DOCTYPE svg PUBLIC "-//W3C//DTD SVG 1.1//EN"
 "http://www.w3.org/Graphics/SVG/1.1/DTD/svg11.dtd">
<!-- Generated by graphviz version 2.47.3 (20210619.1520)
 -->
<!-- Title: dependencies Pages: 1 -->
<svg width="468pt" height="250pt"
 viewBox="0.00 0.00 468.00 249.80" xmlns="http://www.w3.org/2000/svg" xmlns:xlink="http://www.w3.org/1999/xlink">
<g id="graph0" class="graph" transform="scale(1 1) rotate(0) translate(4 245.8)">
<title>dependencies</title>
<polygon fill="white" stroke="transparent" points="-4,4 -4,-245.8 464,-245.8 464,4 -4,4"/>
<text text-anchor="middle" x="230" y="-8.2" font-family="sans-serif" font-size="14.00">dependencies</text>
<g id="clust1" class="cluster">
<title>cluster_AppModule</title>
<polygon fill="none" stroke="black" stroke-dasharray="1,5" points="73,-108.8 73,-233.8 302,-233.8 302,-108.8 73,-108.8"/>
</g>
<g id="clust3" class="cluster">
<title>cluster_AppModule_imports</title>
<polygon fill="none" stroke="black" points="81,-116.8 81,-168.8 294,-168.8 294,-116.8 81,-116.8"/>
</g>
<g id="clust7" class="cluster">
<title>cluster_AuthModule</title>
<polygon fill="none" stroke="black" stroke-dasharray="1,5" points="8,-32.8 8,-100.8 154,-100.8 154,-32.8 8,-32.8"/>
</g>
<g id="clust12" class="cluster">
<title>cluster_AuthModule_providers</title>
<polygon fill="none" stroke="black" points="16,-40.8 16,-92.8 146,-92.8 146,-40.8 16,-40.8"/>
</g>
<g id="clust19" class="cluster">
<title>cluster_UsersModule</title>
<polygon fill="none" stroke="black" stroke-dasharray="1,5" points="162,-32.8 162,-100.8 452,-100.8 452,-32.8 162,-32.8"/>
</g>
<g id="clust21" class="cluster">
<title>cluster_UsersModule_imports</title>
<polygon fill="none" stroke="black" points="318,-40.8 318,-92.8 444,-92.8 444,-40.8 318,-40.8"/>
</g>
<g id="clust24" class="cluster">
<title>cluster_UsersModule_providers</title>
<polygon fill="none" stroke="black" points="170,-40.8 170,-92.8 310,-92.8 310,-40.8 170,-40.8"/>
</g>
<!-- AuthModule -->
<g id="node1" class="node">
<title>AuthModule</title>
<polygon fill="#8dd3c7" stroke="black" points="176.55,-160.8 173.55,-164.8 152.55,-164.8 149.55,-160.8 89.45,-160.8 89.45,-124.8 176.55,-124.8 176.55,-160.8"/>
<text text-anchor="middle" x="133" y="-138.6" font-family="Times,serif" font-size="14.00">AuthModule</text>
</g>
<!-- AppModule -->
<g id="node3" class="node">
<title>AppModule</title>
<polygon fill="#8dd3c7" stroke="black" points="227.66,-225.8 224.66,-229.8 203.66,-229.8 200.66,-225.8 144.34,-225.8 144.34,-189.8 227.66,-189.8 227.66,-225.8"/>
<text text-anchor="middle" x="186" y="-203.6" font-family="Times,serif" font-size="14.00">AppModule</text>
</g>
<!-- AuthModule&#45;&gt;AppModule -->
<g id="edge1" class="edge">
<title>AuthModule&#45;&gt;AppModule</title>
<path fill="none" stroke="black" d="M160.47,-160.91C160.47,-160.91 160.47,-179.79 160.47,-179.79"/>
<polygon fill="black" stroke="black" points="156.97,-179.79 160.47,-189.79 163.97,-179.79 156.97,-179.79"/>
</g>
<!-- UsersModule -->
<g id="node2" class="node">
<title>UsersModule</title>
<polygon fill="#8dd3c7" stroke="black" points="285.92,-160.8 282.92,-164.8 261.92,-164.8 258.92,-160.8 194.08,-160.8 194.08,-124.8 285.92,-124.8 285.92,-160.8"/>
<text text-anchor="middle" x="240" y="-138.6" font-family="Times,serif" font-size="14.00">UsersModule</text>
</g>
<!-- UsersModule&#45;&gt;AppModule -->
<g id="edge2" class="edge">
<title>UsersModule&#45;&gt;AppModule</title>
<path fill="none" stroke="black" d="M211.06,-160.91C211.06,-160.91 211.06,-179.79 211.06,-179.79"/>
<polygon fill="black" stroke="black" points="207.56,-179.79 211.06,-189.79 214.56,-179.79 207.56,-179.79"/>
</g>
<!-- JwtStrategy -->
<g id="node4" class="node">
<title>JwtStrategy</title>
<ellipse fill="#fdb462" stroke="black" cx="81" cy="-66.8" rx="56.76" ry="18"/>
<text text-anchor="middle" x="81" y="-62.6" font-family="Times,serif" font-size="14.00">JwtStrategy</text>
</g>
<!-- JwtStrategy&#45;&gt;AuthModule -->
<g id="edge3" class="edge">
<title>JwtStrategy&#45;&gt;AuthModule</title>
<path fill="none" stroke="black" d="M113.43,-81.82C113.43,-81.82 113.43,-114.6 113.43,-114.6"/>
<polygon fill="black" stroke="black" points="109.93,-114.6 113.43,-124.6 116.93,-114.6 109.93,-114.6"/>
</g>
<!-- DatabaseModule -->
<g id="node5" class="node">
<title>DatabaseModule</title>
<polygon fill="#8dd3c7" stroke="black" points="436.35,-84.8 433.35,-88.8 412.35,-88.8 409.35,-84.8 325.65,-84.8 325.65,-48.8 436.35,-48.8 436.35,-84.8"/>
<text text-anchor="middle" x="381" y="-62.6" font-family="Times,serif" font-size="14.00">DatabaseModule</text>
</g>
<!-- DatabaseModule&#45;&gt;UsersModule -->
<g id="edge4" class="edge">
<title>DatabaseModule&#45;&gt;UsersModule</title>
<path fill="none" stroke="black" d="M381,-84.81C381,-107.29 381,-142.8 381,-142.8 381,-142.8 295.78,-142.8 295.78,-142.8"/>
<polygon fill="black" stroke="black" points="295.78,-139.3 285.78,-142.8 295.78,-146.3 295.78,-139.3"/>
</g>
<!-- UsersService -->
<g id="node6" class="node">
<title>UsersService</title>
<ellipse fill="#fdb462" stroke="black" cx="240" cy="-66.8" rx="61.95" ry="18"/>
<text text-anchor="middle" x="240" y="-62.6" font-family="Times,serif" font-size="14.00">UsersService</text>
</g>
<!-- UsersService&#45;&gt;UsersModule -->
<g id="edge5" class="edge">
<title>UsersService&#45;&gt;UsersModule</title>
<path fill="none" stroke="black" d="M240,-84.81C240,-84.81 240,-114.65 240,-114.65"/>
<polygon fill="black" stroke="black" points="236.5,-114.65 240,-124.65 243.5,-114.65 236.5,-114.65"/>
</g>
</g>
</svg>
