<?xml version="1.0" encoding="UTF-8" standalone="no"?>
<!DOCTYPE svg PUBLIC "-//W3C//DTD SVG 1.1//EN"
 "http://www.w3.org/Graphics/SVG/1.1/DTD/svg11.dtd">
<!-- Generated by graphviz version 2.47.3 (20210619.1520)
 -->
<!-- Title: dependencies Pages: 1 -->
<svg width="857pt" height="326pt"
 viewBox="0.00 0.00 857.00 325.80" xmlns="http://www.w3.org/2000/svg" xmlns:xlink="http://www.w3.org/1999/xlink">
<g id="graph0" class="graph" transform="scale(1 1) rotate(0) translate(4 321.8)">
<title>dependencies</title>
<polygon fill="white" stroke="transparent" points="-4,4 -4,-321.8 853,-321.8 853,4 -4,4"/>
<text text-anchor="middle" x="424.5" y="-8.2" font-family="sans-serif" font-size="14.00">dependencies</text>
<g id="clust1" class="cluster">
<title>cluster_AppModule</title>
<polygon fill="none" stroke="black" stroke-dasharray="1,5" points="305,-108.8 305,-309.8 559,-309.8 559,-108.8 305,-108.8"/>
</g>
<g id="clust3" class="cluster">
<title>cluster_AppModule_imports</title>
<polygon fill="none" stroke="black" points="313,-116.8 313,-244.8 539,-244.8 539,-116.8 313,-116.8"/>
</g>
<g id="clust7" class="cluster">
<title>cluster_AuthModule</title>
<polygon fill="none" stroke="black" stroke-dasharray="1,5" points="151,-108.8 151,-176.8 297,-176.8 297,-108.8 151,-108.8"/>
</g>
<g id="clust12" class="cluster">
<title>cluster_AuthModule_providers</title>
<polygon fill="none" stroke="black" points="159,-116.8 159,-168.8 289,-168.8 289,-116.8 159,-116.8"/>
</g>
<g id="clust19" class="cluster">
<title>cluster_ProjectsModule</title>
<polygon fill="none" stroke="black" stroke-dasharray="1,5" points="8,-32.8 8,-100.8 316,-100.8 316,-32.8 8,-32.8"/>
</g>
<g id="clust21" class="cluster">
<title>cluster_ProjectsModule_imports</title>
<polygon fill="none" stroke="black" points="182,-40.8 182,-92.8 308,-92.8 308,-40.8 182,-40.8"/>
</g>
<g id="clust24" class="cluster">
<title>cluster_ProjectsModule_providers</title>
<polygon fill="none" stroke="black" points="16,-40.8 16,-92.8 174,-92.8 174,-40.8 16,-40.8"/>
</g>
<g id="clust25" class="cluster">
<title>cluster_UsersModule</title>
<polygon fill="none" stroke="black" stroke-dasharray="1,5" points="567,-184.8 567,-252.8 841,-252.8 841,-184.8 567,-184.8"/>
</g>
<g id="clust28" class="cluster">
<title>cluster_UsersModule_exports</title>
<polygon fill="none" stroke="black" points="723,-192.8 723,-244.8 833,-244.8 833,-192.8 723,-192.8"/>
</g>
<g id="clust30" class="cluster">
<title>cluster_UsersModule_providers</title>
<polygon fill="none" stroke="black" points="575,-192.8 575,-244.8 715,-244.8 715,-192.8 575,-192.8"/>
</g>
<!-- AuthModule -->
<g id="node1" class="node">
<title>AuthModule</title>
<polygon fill="#8dd3c7" stroke="black" points="530.55,-236.8 527.55,-240.8 506.55,-240.8 503.55,-236.8 443.45,-236.8 443.45,-200.8 530.55,-200.8 530.55,-236.8"/>
<text text-anchor="middle" x="487" y="-214.6" font-family="Times,serif" font-size="14.00">AuthModule</text>
</g>
<!-- AppModule -->
<g id="node4" class="node">
<title>AppModule</title>
<polygon fill="#8dd3c7" stroke="black" points="528.66,-301.8 525.66,-305.8 504.66,-305.8 501.66,-301.8 445.34,-301.8 445.34,-265.8 528.66,-265.8 528.66,-301.8"/>
<text text-anchor="middle" x="487" y="-279.6" font-family="Times,serif" font-size="14.00">AppModule</text>
</g>
<!-- AuthModule&#45;&gt;AppModule -->
<g id="edge1" class="edge">
<title>AuthModule&#45;&gt;AppModule</title>
<path fill="none" stroke="black" d="M487,-236.91C487,-236.91 487,-255.79 487,-255.79"/>
<polygon fill="black" stroke="black" points="483.5,-255.79 487,-265.79 490.5,-255.79 483.5,-255.79"/>
</g>
<!-- ProjectsModule -->
<g id="node2" class="node">
<title>ProjectsModule</title>
<polygon fill="#8dd3c7" stroke="black" points="425.15,-236.8 422.15,-240.8 401.15,-240.8 398.15,-236.8 320.85,-236.8 320.85,-200.8 425.15,-200.8 425.15,-236.8"/>
<text text-anchor="middle" x="373" y="-214.6" font-family="Times,serif" font-size="14.00">ProjectsModule</text>
</g>
<!-- ProjectsModule&#45;&gt;AppModule -->
<g id="edge2" class="edge">
<title>ProjectsModule&#45;&gt;AppModule</title>
<path fill="none" stroke="black" d="M373,-237.08C373,-258.12 373,-289.8 373,-289.8 373,-289.8 435.2,-289.8 435.2,-289.8"/>
<polygon fill="black" stroke="black" points="435.2,-293.3 445.2,-289.8 435.2,-286.3 435.2,-293.3"/>
</g>
<!-- UsersModule -->
<g id="node3" class="node">
<title>UsersModule</title>
<polygon fill="#8dd3c7" stroke="black" points="530.92,-160.8 527.92,-164.8 506.92,-164.8 503.92,-160.8 439.08,-160.8 439.08,-124.8 530.92,-124.8 530.92,-160.8"/>
<text text-anchor="middle" x="485" y="-138.6" font-family="Times,serif" font-size="14.00">UsersModule</text>
</g>
<!-- UsersModule&#45;&gt;AuthModule -->
<g id="edge4" class="edge">
<title>UsersModule&#45;&gt;AuthModule</title>
<path fill="none" stroke="black" d="M486.97,-160.81C486.97,-160.81 486.97,-190.65 486.97,-190.65"/>
<polygon fill="black" stroke="black" points="483.47,-190.65 486.97,-200.65 490.47,-190.65 483.47,-190.65"/>
</g>
<!-- UsersModule&#45;&gt;ProjectsModule -->
<g id="edge7" class="edge">
<title>UsersModule&#45;&gt;ProjectsModule</title>
<path fill="none" stroke="black" d="M439.12,-153.8C408.19,-153.8 373,-153.8 373,-153.8 373,-153.8 373,-190.69 373,-190.69"/>
<polygon fill="black" stroke="black" points="369.5,-190.69 373,-200.69 376.5,-190.69 369.5,-190.69"/>
</g>
<!-- UsersModule&#45;&gt;AppModule -->
<g id="edge3" class="edge">
<title>UsersModule&#45;&gt;AppModule</title>
<path fill="none" stroke="black" d="M439.06,-146.8C433.64,-146.8 429.98,-146.8 429.98,-146.8 429.98,-146.8 429.98,-277.8 429.98,-277.8 429.98,-277.8 435.26,-277.8 435.26,-277.8"/>
<polygon fill="black" stroke="black" points="435.26,-281.3 445.26,-277.8 435.26,-274.3 435.26,-281.3"/>
</g>
<!-- UsersService  -->
<g id="node8" class="node">
<title>UsersService </title>
<polygon fill="#fb8072" stroke="black" points="824.85,-236.8 731.15,-236.8 731.15,-200.8 824.85,-200.8 824.85,-236.8"/>
<text text-anchor="middle" x="778" y="-214.6" font-family="Times,serif" font-size="14.00">UsersService </text>
</g>
<!-- UsersModule&#45;&gt;UsersService  -->
<g id="edge10" class="edge">
<title>UsersModule&#45;&gt;UsersService </title>
<path fill="none" stroke="black" stroke-dasharray="5,2" d="M530.78,-136.8C613.19,-136.8 778,-136.8 778,-136.8 778,-136.8 778,-190.6 778,-190.6"/>
<polygon fill="black" stroke="black" points="774.5,-190.6 778,-200.6 781.5,-190.6 774.5,-190.6"/>
</g>
<!-- JwtStrategy -->
<g id="node5" class="node">
<title>JwtStrategy</title>
<ellipse fill="#fdb462" stroke="black" cx="224" cy="-142.8" rx="56.76" ry="18"/>
<text text-anchor="middle" x="224" y="-138.6" font-family="Times,serif" font-size="14.00">JwtStrategy</text>
</g>
<!-- JwtStrategy&#45;&gt;AuthModule -->
<g id="edge5" class="edge">
<title>JwtStrategy&#45;&gt;AuthModule</title>
<path fill="none" stroke="black" d="M279.89,-139.8C342.29,-139.8 434.63,-139.8 434.63,-139.8 434.63,-139.8 434.63,-218.8 434.63,-218.8 434.63,-218.8 435.5,-218.8 435.5,-218.8"/>
<polygon fill="black" stroke="black" points="433.28,-222.3 443.28,-218.8 433.28,-215.3 433.28,-222.3"/>
</g>
<!-- DatabaseModule -->
<g id="node6" class="node">
<title>DatabaseModule</title>
<polygon fill="#8dd3c7" stroke="black" points="300.35,-84.8 297.35,-88.8 276.35,-88.8 273.35,-84.8 189.65,-84.8 189.65,-48.8 300.35,-48.8 300.35,-84.8"/>
<text text-anchor="middle" x="245" y="-62.6" font-family="Times,serif" font-size="14.00">DatabaseModule</text>
</g>
<!-- DatabaseModule&#45;&gt;ProjectsModule -->
<g id="edge6" class="edge">
<title>DatabaseModule&#45;&gt;ProjectsModule</title>
<path fill="none" stroke="black" d="M287.23,-85C287.23,-124.13 287.23,-212.8 287.23,-212.8 287.23,-212.8 310.63,-212.8 310.63,-212.8"/>
<polygon fill="black" stroke="black" points="310.63,-216.3 320.63,-212.8 310.63,-209.3 310.63,-216.3"/>
</g>
<!-- DatabaseModule&#45;&gt;UsersModule -->
<g id="edge9" class="edge">
<title>DatabaseModule&#45;&gt;UsersModule</title>
<path fill="none" stroke="black" d="M293.83,-84.83C293.83,-104.38 293.83,-132.8 293.83,-132.8 293.83,-132.8 429.21,-132.8 429.21,-132.8"/>
<polygon fill="black" stroke="black" points="429.21,-136.3 439.21,-132.8 429.21,-129.3 429.21,-136.3"/>
</g>
<!-- ProjectsService -->
<g id="node7" class="node">
<title>ProjectsService</title>
<ellipse fill="#fdb462" stroke="black" cx="95" cy="-66.8" rx="71.2" ry="18"/>
<text text-anchor="middle" x="95" y="-62.6" font-family="Times,serif" font-size="14.00">ProjectsService</text>
</g>
<!-- ProjectsService&#45;&gt;ProjectsModule -->
<g id="edge8" class="edge">
<title>ProjectsService&#45;&gt;ProjectsModule</title>
<path fill="none" stroke="black" d="M95,-84.92C95,-126.43 95,-224.8 95,-224.8 95,-224.8 310.71,-224.8 310.71,-224.8"/>
<polygon fill="black" stroke="black" points="310.71,-228.3 320.71,-224.8 310.71,-221.3 310.71,-228.3"/>
</g>
<!-- UsersService -->
<g id="node9" class="node">
<title>UsersService</title>
<ellipse fill="#fdb462" stroke="black" cx="645" cy="-218.8" rx="61.95" ry="18"/>
<text text-anchor="middle" x="645" y="-214.6" font-family="Times,serif" font-size="14.00">UsersService</text>
</g>
<!-- UsersService&#45;&gt;UsersModule -->
<g id="edge11" class="edge">
<title>UsersService&#45;&gt;UsersModule</title>
<path fill="none" stroke="black" d="M645,-200.77C645,-180.03 645,-148.8 645,-148.8 645,-148.8 540.85,-148.8 540.85,-148.8"/>
<polygon fill="black" stroke="black" points="540.85,-145.3 530.85,-148.8 540.85,-152.3 540.85,-145.3"/>
</g>
</g>
</svg>
